<?xml version="1.0" encoding="UTF-8"?>
<svg id="Layer_1" data-name="Layer 1" xmlns="http://www.w3.org/2000/svg" viewBox="0 0 50 50">
  <defs>
    <style>
      .cls-1 {
        fill: #fff;
      }

      .cls-2 {
        fill: #f6355a;
      }
    </style>
  </defs>
  <rect class="cls-2" y="0" width="50" height="50" rx="10.21" ry="10.21"/>
  <path class="cls-1" d="M10.65,25.56c-.8,0-1.45.65-1.44,1.45v11.29c0,.8.65,1.45,1.45,1.45h3.85c.61,0,1.16-.39,1.36-.97h1.01c.67,0,1.25-.47,1.41-1.12,1.5.07,3.2.54,4.85,1.01,1.34.38,2.73.78,4.05.96.18.03.36.04.54.04,1.01-.01,1.98-.39,2.73-1.07l9.49-8.42c.9-.8,1.11-2.13.49-3.16-.71-1.2-2.25-1.6-3.45-.89l-8.81,5.23-5.4-2.82c-1.3-.68-2.73-1.05-4.2-1.08h-.36c-.22-.56-.75-.92-1.35-.93h-1.01c-.2-.58-.75-.97-1.36-.97h-3.85s0,0,0,0ZM18.34,36.88v-8.66h.24c1.35.03,2.67.37,3.86,1l6.24,3.26c.08.04.15.09.22.15.52.44.59,1.22.15,1.74-.38.45-1.03.58-1.54.29l-6.45-3.56c-.19-.1-.42-.03-.52.15s-.03.42.15.52l6.45,3.57c.98.52,2.19.16,2.72-.82s.16-2.19-.82-2.72l-.04-.02,8.4-5c.68-.39,1.54-.29,2.11.25.03.03.06.06.09.1.64.72.57,1.83-.15,2.47l-9.49,8.42c-.71.66-1.68.96-2.64.84-1.27-.18-2.63-.57-3.95-.94-1.69-.48-3.43-.97-5.02-1.05ZM16.88,38.01h-.93v-10.71h.93c.37,0,.68.3.68.68v9.35c0,.37-.3.68-.68.68ZM9.98,27.01c0-.37.3-.68.68-.68h3.85c.37,0,.68.3.68.68v11.29h0c0,.37-.3.68-.68.68h-3.86c-.37,0-.68-.3-.68-.68v-11.29ZM13.76,33.07c-.57,0-1.03.46-1.03,1.03,0,.57.46,1.03,1.03,1.03s1.03-.46,1.03-1.03c0-.57-.46-1.03-1.03-1.03h0ZM13.5,34.11h0c0-.14.12-.26.26-.26s.26.12.26.26-.12.26-.26.26-.26-.12-.26-.26ZM13.76,35.95s0,0-.01,0c-.57,0-1.02.47-1.02,1.04,0,0,0,0,0,0,0,.57.46,1.03,1.03,1.03s1.03-.46,1.03-1.03c0-.57-.46-1.03-1.03-1.03h0ZM13.76,37.24c-.14,0-.25-.11-.26-.24h0c0-.14.12-.26.26-.26s.26.12.26.26-.12.26-.26.26v-.02ZM19.67,17.02c0-.32-.26-.59-.58-.59,0,0,0,0,0,0-.63,0-1.14-.51-1.14-1.14,0-.47.29-.9.73-1.07l.07-.03v-.19c0-.15.12-.28.28-.28s.28.12.28.28v.16l.08.02c.5.13.85.59.85,1.11,0,.15-.12.28-.28.28s-.28-.12-.28-.28c0-.32-.25-.59-.57-.6s-.59.25-.6.57c0,.32.25.59.57.6,0,0,.01,0,.02,0,.63,0,1.14.51,1.14,1.14,0,.52-.35.97-.85,1.11l-.08.02v.14c0,.15-.12.28-.28.28s-.28-.12-.28-.28v-.17l-.07-.03c-.44-.17-.72-.59-.72-1.06,0-.15.12-.28.28-.28s.28.12.28.28c0,.32.26.59.59.59s.59-.26.59-.59h0ZM19.08,22.02c3.25,0,5.88-2.64,5.88-5.88,0-3.25-2.63-5.88-5.88-5.88-3.25,0-5.88,2.63-5.88,5.88,0,3.25,2.63,5.88,5.88,5.88h0ZM19.08,11.03c2.82,0,5.1,2.29,5.11,5.11,0,2.82-2.29,5.11-5.11,5.11s-5.11-2.29-5.11-5.11,2.29-5.11,5.11-5.11h0ZM22.09,19.41c.05-.05.11-.1.16-.15.44-.44.78-.97,1-1.55.05-.14.1-.28.14-.43.1-.38.15-.77.15-1.16,0-2.45-2-4.43-4.46-4.42-.39,0-.78.05-1.16.15-.14.04-.29.08-.43.14-.58.22-1.11.56-1.56,1-.05.05-.1.1-.15.16-.16.17-.3.36-.43.56l-.03.05c-.17.25-.31.53-.41.81-.04.11-.08.22-.11.34-.12.4-.18.82-.19,1.23,0,2.13,1.51,3.96,3.6,4.35.28.06.57.08.85.08.42,0,.84-.07,1.24-.19.11-.03.23-.07.34-.11.29-.11.57-.25.84-.42l.04-.02c.2-.13.38-.27.56-.43h0ZM22.65,17.09c-.03.12-.07.24-.11.34-.18.48-.47.92-.83,1.28l-.13.12c-.14.13-.3.26-.46.37-.23.15-.47.27-.73.36-.1.04-.19.07-.28.09-.57.16-1.16.19-1.74.08-1.73-.32-2.98-1.83-2.98-3.59,0-.34.05-.69.14-1.02.03-.09.06-.19.09-.28.09-.24.21-.47.35-.69,0-.01.01-.02.02-.03.11-.16.22-.31.35-.45l.12-.13c.37-.36.81-.65,1.3-.83.11-.04.23-.08.35-.11.31-.08.63-.12.96-.12,2.03,0,3.68,1.63,3.69,3.66,0,.32-.04.64-.13.95h0ZM30.85,22.8c0,.32-.26.59-.59.59s-.59-.26-.59-.59c0-.15-.12-.28-.28-.28s-.28.12-.28.28c0,.47.29.89.73,1.06l.07.03v.17c0,.15.12.28.28.28s.28-.12.28-.28v-.13l.08-.02c.5-.13.85-.59.85-1.11,0-.63-.51-1.14-1.14-1.14h0c.32,0-.59-.26-.59-.59,0-.32.26-.59.59-.59.32,0,.59.26.59.59,0,.15.12.28.28.28s.28-.12.28-.28c0-.52-.35-.98-.85-1.11l-.08-.02v-.16c0-.15-.12-.28-.28-.28s-.28.12-.28.28v.19l-.07.03c-.44.17-.73.59-.73,1.06,0,.63.51,1.14,1.14,1.14.32,0,.59.26.59.59h0ZM30.26,27.8c3.25,0,5.88-2.63,5.88-5.88,0,0,0,0,0,0,0-3.25-2.63-5.88-5.88-5.88-3.25,0-5.88,2.63-5.88,5.88,0,3.25,2.63,5.88,5.88,5.88h0ZM30.26,16.81c2.82,0,5.1,2.29,5.1,5.11,0,0,0,0,0,0,0,2.82-2.3,5.11-5.12,5.1-2.82,0-5.11-2.3-5.1-5.12,0-2.82,2.3-5.11,5.12-5.1h0ZM33.43,25.04c.44-.44.78-.97,1-1.55.05-.14.1-.28.14-.43.1-.37.15-.76.15-1.15,0-.38-.05-.76-.15-1.13-.64-2.38-3.08-3.79-5.46-3.16-.14.04-.29.08-.43.14-.58.22-1.11.56-1.56,1-.05.05-.1.1-.15.15-.16.17-.3.36-.43.56l-.03.05c-.17.26-.3.53-.41.81-.04.11-.08.22-.11.34-.12.4-.18.82-.17,1.24,0,2.13,1.51,3.97,3.61,4.36.28.06.57.08.85.08.42,0,.84-.07,1.24-.19.11-.03.23-.07.34-.11.29-.11.56-.25.82-.42l.04-.03c.2-.13.38-.27.56-.43.05-.05.1-.1.16-.15ZM33.82,22.87c-.03.12-.07.24-.11.35-.18.48-.47.92-.83,1.28l-.13.12c-.14.13-.3.25-.46.36-.23.15-.47.27-.72.37-.1.04-.19.07-.28.09-.57.16-1.16.19-1.74.08-1.73-.32-2.98-1.83-2.98-3.59,0-.35.05-.69.15-1.02.03-.1.06-.19.09-.28.09-.24.21-.47.35-.68.11-.17.23-.33.37-.48.04-.04.08-.09.12-.13.37-.36.81-.65,1.3-.83.11-.04.23-.08.35-.11.31-.08.63-.12.96-.12,2.03,0,3.68,1.63,3.69,3.66,0,.32-.04.64-.13.95h0Z"/>
</svg>