<?xml version="1.0" encoding="UTF-8"?>
<svg id="Layer_1" xmlns="http://www.w3.org/2000/svg" viewBox="0 0 83 83">
  <defs>
    <style>
      .cls-1 {
        fill: #fff;
      }

      .cls-2 {
        fill: #f6355a;
      }
    </style>
  </defs>
  <rect class="cls-2" y="0" width="83" height="83" rx="21.61" ry="21.61"/>
  <g>
    <path class="cls-1" d="M22.58,34.88c0,.17-.02.31-.02.45,0,7.12,0,14.25,0,21.37,0,1.88,1.09,3.28,2.83,3.66.36.08.73.08,1.1.08,4.87,0,9.73,0,14.6,0,.18,0,.35,0,.53.01.85.09,1.45.77,1.42,1.59-.03.81-.68,1.47-1.53,1.47-5.24,0-10.47.05-15.71-.02-3.38-.04-6.2-2.91-6.3-6.29-.06-2.19-.02-4.39-.02-6.58,0-5.46,0-10.92,0-16.38,0-2.67,0-5.34,0-8.02.01-3.43,2.27-6.1,5.65-6.67.39-.07.8-.07,1.2-.07,10.12,0,20.24,0,30.36,0,3.51,0,6.18,2.23,6.77,5.65.06.34.07.7.07,1.05,0,5.75,0,11.49,0,17.24,0,.98-.61,1.64-1.49,1.65-.92.02-1.58-.66-1.58-1.67,0-1.97,0-3.94,0-5.91,0-.86,0-1.72,0-2.61H22.58ZM60.46,31.74c0-.18,0-.32,0-.46,0-1.65,0-3.3,0-4.94,0-2.3-1.49-3.78-3.78-3.78-10.11,0-20.23,0-30.34,0-2.27,0-3.76,1.49-3.77,3.75,0,1.66,0,3.33,0,4.99,0,.14.02.28.02.45h37.87Z"/>
    <path class="cls-1" d="M57.49,56.25c1.13,1.62,2.23,3.15,3.28,4.71.21.31.35.73.37,1.1.02.66-.45,1.2-1.06,1.39-.64.19-1.32-.04-1.73-.62-.98-1.38-1.95-2.78-2.92-4.17-.14-.2-.28-.39-.46-.64-.18.22-.33.41-.48.61-.68.89-1.36,1.78-2.05,2.67-.77.99-1.78,1.42-3,1.11-1.2-.31-1.87-1.14-2.09-2.37-.86-4.94-1.74-9.89-2.61-14.83-.21-1.17.15-2.14,1.1-2.83.97-.71,2.03-.73,3.07-.14,3.22,1.84,6.43,3.7,9.64,5.55,1.14.65,2.27,1.31,3.41,1.96,1.13.64,1.7,1.6,1.53,2.9-.16,1.24-.93,1.99-2.11,2.36-1.28.4-2.55.8-3.9,1.23ZM47.85,45.17c.82,4.66,1.62,9.2,2.44,13.85.16-.2.27-.31.36-.44.72-.94,1.44-1.88,2.16-2.81,1.57-2.02.88-1.52,3.28-2.3.18-.06.37-.12.55-.17,1.1-.35,2.21-.7,3.41-1.08-4.09-2.36-8.1-4.67-12.2-7.04Z"/>
    <path class="cls-1" d="M32.8,25.63c.85,0,1.52.67,1.53,1.52,0,.84-.67,1.53-1.5,1.55-.83.02-1.57-.72-1.56-1.55,0-.84.7-1.51,1.54-1.51Z"/>
    <path class="cls-1" d="M36.39,27.17c0-.86.64-1.53,1.5-1.54.86-.01,1.58.68,1.57,1.53,0,.83-.71,1.53-1.53,1.53-.83,0-1.52-.69-1.53-1.52Z"/>
    <path class="cls-1" d="M27.69,25.63c.84,0,1.52.69,1.52,1.53,0,.83-.7,1.53-1.53,1.53-.84,0-1.56-.72-1.54-1.57.01-.84.7-1.5,1.55-1.5Z"/>
  </g>
</svg>