<?xml version="1.0" encoding="UTF-8"?>
<svg id="Layer_1" data-name="Layer 1" xmlns="http://www.w3.org/2000/svg" viewBox="0 0 50 50">
  <defs>
    <style>
      .cls-1 {
        fill: #fff;
      }

      .cls-2 {
        fill: #f6355a;
      }
    </style>
  </defs>
  <rect class="cls-2" x="0" y="0" width="50" height="50" rx="10.21" ry="10.21"/>
  <g>
    <path class="cls-1" d="M27.08,32.48h-4.21c-1.25,3.09-4.34,5.41-7.7,5.61-11.55.69-14.36-17.84.59-18.43,5.84-.23,12.74-.24,18.58,0,4.75.2,8.76,2.18,9.89,7.15,2.47,10.85-12.87,15.92-17.15,5.66ZM20.05,34.68c.47-.47,1.04-1.3,1.39-1.88.32-.53.39-1.35.98-1.61.44-.19,4.13-.2,4.75-.11.96.15.89.97,1.27,1.62,5.22,8.7,17.48,2.4,14.3-6.54-.93-2.6-3.42-4.66-6.14-5.12-7.41.45-15.65-.66-22.97-.02-4.87.42-7.92,5.7-6.57,10.23,1.65,5.52,8.84,7.52,12.99,3.41Z"/>
    <path class="cls-1" d="M23.88,11.95c1.16-.13,2.23-.06,3.35.22.43.11,2.24.77,2.47,1.03.42.48.09,1.11-.54,1.08-.25-.01-1.54-.72-2.11-.87-1.65-.43-3-.37-4.63.13-.64.2-1.41.85-2.07.63-.36-.12-.34-.7-.1-.97.41-.46,2.94-1.17,3.62-1.25Z"/>
    <path class="cls-1" d="M24.03,14.39c1.01-.12,2.04-.05,3.01.25.51.16,2.46,1.03,1.29,1.61-.55.27-1.79-.54-2.55-.65-.99-.13-1.62,0-2.55.26-.48.13-1.61.97-1.87.05-.24-.85,2.06-1.45,2.68-1.52Z"/>
    <path class="cls-1" d="M24.33,16.82c.75-.1,3.38.07,3.06,1.22-.25.88-1.68-.04-2.34-.06-.73-.02-2.24.93-2.49.06-.23-.81,1.19-1.14,1.77-1.22Z"/>
    <path class="cls-1" d="M14.78,28.35l3.4.02.35.67c-.12.92-3.08.39-3.75.53-.17.74.5,3.9-.69,3.8-.16.03-.53-.31-.53-.37v-3.42h-3.42c-.08,0-.4-.38-.39-.54-.08-.19.28-.68.39-.68h3.2l.23-.23v-3.35c0-.2.61-.31.81-.21.13.04.4.43.4.51v3.27Z"/>
    <path class="cls-1" d="M38.63,26.86c3.19-.66,3.58,3.94.71,4.22-2.63.25-3.15-3.71-.71-4.22ZM38.55,28.23c-.79.8.34,2.14,1.18,1.4.99-.88-.42-2.16-1.18-1.4Z"/>
    <path class="cls-1" d="M36.94,34.23c-2.31,2.29-5.26-1.71-2.74-3.27,2.36-1.46,4.34,1.68,2.74,3.27ZM34.75,32.03c-.86.86.63,2.26,1.34,1.27.67-.94-.66-1.95-1.34-1.27Z"/>
    <path class="cls-1" d="M34.82,23.06c3.14-.65,3.54,3.95.71,4.22-2.54.24-3.11-3.72-.71-4.22ZM34.75,24.43c-.86.86.63,2.26,1.34,1.27.67-.94-.66-1.95-1.34-1.27Z"/>
    <path class="cls-1" d="M30.05,30.42c-1.82-1.87.96-5,3-3.08s-1.01,5.12-3,3.08ZM32.24,28.23c-.79-.74-2.07.49-1.25,1.33s2.08-.55,1.25-1.33Z"/>
    <path class="cls-1" d="M22.34,26.55c.4-.12,1.74-.14,1.95.27.51,1-1.28,1.05-1.91.85s-.57-.96-.04-1.12Z"/>
    <path class="cls-1" d="M25.99,26.55c.4-.12,1.74-.14,1.95.27.51,1-1.28,1.05-1.91.85s-.57-.96-.04-1.12Z"/>
  </g>
</svg>