<?xml version="1.0" encoding="UTF-8"?>
<svg id="Layer_1" data-name="Layer 1" xmlns="http://www.w3.org/2000/svg" viewBox="0 0 50 50">
  <defs>
    <style>
      .cls-1 {
        fill: #fff;
      }

      .cls-2 {
        fill: #f6355a;
      }
    </style>
  </defs>
  <rect class="cls-2" y="0" width="50" height="50" rx="10.21" ry="10.21"/>
  <g>
    <path class="cls-1" d="M29.45,22.12v.99l4.79,4.81-.06.26-2.78,2.78c-.17.27-.63-.35-.59-.04.06.43.38,1.21.55,1.65.58,1.55,1.38,3.16,2.37,4.48.13.18.76.83.77.94,0,.07-.06.16-.09.16h-1.4v3.49h6.44s.01.27,0,.27H10.54s-.01-.27,0-.27h6.44v-3.49h-1.4s-.11-.09-.1-.16c.01-.08.87-1.05,1.01-1.25,2.3-3.2,3.38-7.67,3.85-11.53l-3.8,3.63c-.2,0-2.52-2.55-2.92-2.84l-.06-.26,5.82-5.84c.21-.11.66.69.82.59l2.06-2.71-6.45-6.51-.07-.14c.94-1.06,1.98-2.09,3.04-3.04l5.93,5.93-2.09,2.15c-.09.17.5.6.63.75,1.17-.87,2.31-.87,3.48,0l6.76-6.61,2.88,2.88.06.26-5.8,5.8-.26-.06-1.95-1.96c-.21-.1-.75.44-.65.65.39.39.76.81,1.09,1.24.31.4,1.49,1.94,1.59,2.32.18.66-.5.75-1,.69ZM18.74,8.42l-.72.77c.13.12.66.74.77.72l.72-.77c-.13-.12-.66-.74-.77-.72ZM19.7,9.38l-.72.77c.13.12.66.74.77.72l.72-.77c-.13-.12-.66-.74-.77-.72ZM17.72,9.45c-.08.02-.67.62-.67.71.07.17.6.72.72.72.31-.16.52-.49.79-.72-.19-.13-.63-.77-.84-.71ZM16.76,10.41c-.08.02-.67.62-.67.71.07.17.6.72.72.72.31-.16.52-.49.79-.72-.19-.13-.63-.77-.84-.71ZM18.67,10.41c-.08.02-.67.62-.67.71.07.17.6.72.72.72.31-.16.52-.49.79-.72-.19-.13-.63-.77-.84-.71ZM20.66,10.41c-.15.04-.56.6-.73.71.17.12.63.72.79.72.15-.06.72-.6.72-.72-.09-.18-.6-.76-.78-.71ZM33.41,10.68c-.15.04-.56.6-.73.71.17.12.63.72.79.72.15-.06.72-.6.72-.72-.09-.18-.6-.76-.78-.71ZM17.78,11.37l-.72.72c-.02.1.57.67.71.71.16,0,.62-.6.79-.72l-.78-.71ZM19.7,11.37l-.72.77.77.72.72-.77c-.13-.12-.66-.74-.77-.72ZM21.94,11.61c-.1-.09-.11-.3-.32-.24-.15.04-.56.6-.73.71.25.17.62.86.93.66.06-.04.56-.56.57-.6.04-.16-.33-.41-.45-.53ZM32.45,11.64c-.15.04-.56.6-.73.71.17.12.63.72.79.72.15-.06.72-.6.72-.72-.09-.18-.6-.76-.78-.71ZM34.37,11.64c-.15.04-.56.6-.73.71.17.12.63.72.79.72.15-.06.72-.6.72-.72-.09-.18-.6-.76-.78-.71ZM18.74,12.32l-.72.77.77.72.72-.77-.77-.72ZM20.66,12.32l-.72.77c.13.12.66.74.77.72l.72-.77-.77-.72ZM23.25,12.91c-.17-.21-.37-.48-.61-.59-.13,0-.66.57-.72.72,0,.16.6.62.72.79.15-.21.75-.61.72-.85,0-.04-.09-.04-.11-.07ZM31.49,12.6c-.12.13-.74.66-.72.77l.77.72c.12-.13.74-.66.72-.77l-.77-.72ZM33.8,12.91c-.11-.11-.19-.36-.39-.31-.15.04-.56.6-.73.71.19.13.63.77.84.71.06-.02.64-.6.65-.65.03-.16-.26-.36-.37-.46ZM35.33,12.6c-.08.02-.67.62-.67.71.07.17.6.72.72.72.15-.06.72-.6.72-.72-.09-.18-.6-.76-.78-.71ZM19.7,13.28l-.72.77.77.72.72-.77-.77-.72ZM21.62,13.28l-.72.77.77.72.72-.77-.77-.72ZM23.54,13.29c-.08.02-.67.62-.67.71.16.31.49.52.72.79.12-.17.72-.63.72-.79-.09-.18-.6-.76-.78-.71ZM30.53,13.56c-.12.13-.74.66-.72.77l.77.72c.12-.13.74-.66.72-.77l-.77-.72ZM32.44,13.56c-.12.13-.74.66-.72.77l.77.72c.12-.13.74-.66.72-.77l-.77-.72ZM34.37,13.56c-.08.02-.67.62-.67.71.16.31.49.52.72.79l.71-.78c-.21-.13-.54-.78-.77-.72ZM20.66,14.24l-.72.77.77.72.72-.77-.77-.72ZM22.58,14.24l-.72.77.77.72.72-.77-.77-.72ZM29.57,14.52c-.12.13-.74.66-.72.77l.77.72c.12-.13.74-.66.72-.77l-.77-.72ZM31.49,14.52c-.12.13-.74.66-.72.77l.77.72c.12-.13.74-.66.72-.77l-.77-.72ZM33.4,14.52c-.12.13-.74.66-.72.77l.77.72c.12-.13.74-.66.72-.77l-.77-.72ZM21.62,15.2l-.72.77.77.72.72-.77c-.13-.12-.66-.74-.77-.72ZM28.61,15.48c-.12.13-.74.66-.72.77l.77.72c.12-.13.74-.66.72-.77l-.77-.72ZM30.53,15.48c-.12.13-.74.66-.72.77l.77.72c.12-.13.74-.66.72-.77l-.77-.72ZM32.44,15.48c-.12.13-.74.66-.72.77l.77.72.72-.77-.77-.72ZM22.36,16.43c-.13.18-.53.37-.41.61.59.45,1.21,1.39,1.78,1.79.2.14.62-.36.55-.48l-1.92-1.92ZM27.64,16.43l-1.92,1.92c-.06.12.35.62.55.48.58-.4,1.19-1.34,1.78-1.79.11-.25-.29-.44-.41-.61ZM29.57,16.44c-.12.13-.74.66-.72.77l.77.72c.12-.13.74-.66.72-.77l-.77-.72ZM31.49,16.44c-.12.13-.74.66-.72.77l.77.72c.12-.13.74-.66.72-.77l-.77-.72ZM30.53,17.4c-.12.13-.74.66-.72.77l.77.72c.12-.13.74-.66.72-.77l-.77-.72ZM23.92,19.19c-.05.09-.03.63.02.74.03.06.71.72.77.74.14.04.5.04.64-.02.06-.03.72-.71.74-.77.04-.14.04-.57-.02-.7-.03-.06-.64-.66-.7-.67-.77-.23-.97.26-1.44.69ZM19.42,20.21l-.72.77.77.72.72-.77-.77-.72ZM23.81,20.28c-.25.07-1.52,1.61-1.87,1.84-.13.16.3.55.41.55.27-.19,1.96-1.81,1.96-1.96,0-.12-.36-.48-.5-.44ZM26.08,20.28c-.09.02-.49.4-.36.54.28.22,1.74,1.85,1.92,1.85.11,0,.55-.39.41-.55l-1.78-1.79c-.06-.06-.12-.08-.19-.06ZM18.46,21.16l-.72.77.77.72.72-.77-.77-.72ZM20.39,21.24c-.15.04-.56.6-.73.71.17.12.63.72.79.72.15-.06.72-.6.72-.72-.09-.18-.6-.76-.78-.71ZM17.94,37.88h14.12c-2.37-2.9-3.57-6.56-4.3-10.19-.6-.64-1.18-1.29-1.83-1.87-.01.22-.1.57-.04.78.02.09.19.01.21.04.04.04-.03.27-.1.27h-1.99c-.07,0-.14-.23-.1-.27.03-.02.19.05.21-.04.12-.43-.24-1.54.59-1.73.27-.06.59.06.73.04.19-.04,1.39-1.47,1.69-1.66.28-.41-.17-1.08-.58-1.14-.95-.13-2.17.1-3.15,0-.11.02-.51.39-.55.48-.09.21-.07,1.34-.1,1.68-.47,4.78-1.78,9.8-4.8,13.6ZM29.18,22.12h-.69s.65.69.65.69l.03-.69ZM17.44,22.2c-.08.02-.67.62-.67.71.07.17.6.72.72.72.31-.16.52-.49.79-.72-.19-.13-.63-.77-.84-.71ZM19.43,22.2c-.15.04-.56.6-.73.71.17.12.63.72.79.72.15-.06.72-.6.72-.72-.09-.18-.6-.76-.78-.71ZM21.35,22.2c-.15.04-.56.6-.73.71.17.12.63.72.79.72.15-.06.72-.6.72-.72-.09-.18-.6-.76-.78-.71ZM28.27,22.47c-.08.02-.67.63-.66.7.19.13.52.73.71.73.16,0,.62-.61.79-.72-.19-.13-.63-.77-.84-.71ZM15.95,37.88h1.54c.26,0,1.7-2.27,1.9-2.63,2.01-3.68,2.87-8.16,3.14-12.31l-1.84,1.83c-.54,4.62-1.77,9.45-4.74,13.11ZM16.48,23.15c-.08.02-.67.62-.67.71.07.17.6.72.72.72.31-.16.52-.49.79-.72-.19-.13-.63-.77-.84-.71ZM18.46,23.15l-.72.77.77.72.72-.77-.77-.72ZM20.39,23.15c-.15.04-.56.6-.73.71.17.12.63.72.79.72.15-.06.72-.6.72-.72-.09-.18-.6-.76-.78-.71ZM27.31,23.43c-.08.02-.67.62-.67.71.07.17.6.72.72.72.31-.16.52-.49.79-.72-.19-.13-.63-.77-.84-.71ZM29.23,23.43c-.08.02-.67.62-.67.71.07.17.6.72.72.72.31-.16.52-.49.79-.72-.19-.13-.63-.77-.84-.71ZM15.52,24.11s-.67.66-.67.71c.16.31.49.52.72.79.12-.17.72-.63.72-.79-.09-.18-.6-.76-.78-.71ZM17.51,24.11l-.72.77c.13.12.66.74.77.72l.72-.77-.77-.72ZM19.42,24.11l-.72.77c.13.12.66.74.77.72l.72-.77-.77-.72ZM26.35,24.39c-.08.02-.67.62-.67.71.07.16.6.72.72.72.15-.06.72-.6.72-.72-.09-.18-.6-.76-.78-.71ZM28.27,24.39c-.08.02-.67.62-.67.71.07.17.6.72.72.72.31-.16.52-.49.79-.72-.19-.13-.63-.77-.84-.71ZM30.25,24.39l-.72.77c.13.12.66.74.77.72.12-.13.74-.66.72-.77l-.77-.72ZM14.56,25.07c-.08.02-.67.62-.67.71.16.31.49.52.72.79.12-.17.72-.63.72-.79-.09-.18-.6-.76-.78-.71ZM16.55,25.07c-.12.13-.74.66-.72.77.13.12.66.74.77.72l.72-.77c-.13-.12-.66-.74-.77-.72ZM18.46,25.07l-.72.77c.13.12.66.74.77.72l.72-.77c-.13-.12-.66-.74-.77-.72ZM27.31,25.35c-.08.02-.67.62-.67.71.16.31.49.52.72.79.12-.17.72-.63.72-.79-.09-.18-.6-.76-.78-.71ZM29.29,25.35l-.72.77.77.72.72-.77-.77-.72ZM31.21,25.35l-.72.77.77.72.72-.77-.77-.72ZM15.59,26.03l-.72.77c.13.12.66.74.77.72l.72-.77c-.13-.12-.66-.74-.77-.72ZM17.51,26.03l-.72.77c.13.12.66.74.77.72l.72-.77c-.13-.12-.66-.74-.77-.72ZM28.33,26.3l-.72.77.77.72c.16-.17.67-.55.66-.78,0-.11-.62-.73-.71-.71ZM30.25,26.3l-.72.77.77.72.72-.77-.77-.72ZM32.17,26.3l-.72.77.77.72.72-.77-.77-.72ZM16.55,26.99l-.72.77c.13.12.66.74.77.72l.72-.77c-.13-.12-.66-.74-.77-.72ZM29.29,27.26l-.72.77.77.72.72-.77-.77-.72ZM31.21,27.26l-.72.77.77.72.72-.77-.77-.72ZM33.13,27.26l-.72.77.77.72.72-.77-.77-.72ZM34.05,37.88c-1.34-1.6-2.3-3.49-3.02-5.45-.22-.6-.49-1.85-.76-2.32-.15-.26-1.58-1.66-1.87-1.9-.07-.06-.09-.11-.21-.14-.18-.04-.06.06-.05.12.58,2.57,1.41,5.31,2.77,7.58.17.28,1.41,2.1,1.6,2.1h1.54ZM30.25,28.22l-.72.77.77.72.72-.77-.77-.72ZM32.17,28.22l-.72.77.77.72.72-.77-.77-.72ZM31.21,29.18l-.72.77.77.72.72-.77-.77-.72ZM30.79,30.69v.07s.04-.05,0-.07ZM30.48,38.15h-10.96v3.49h4.25v-1.82c0-.05.17-.33.22-.4.52-.74,1.57-.71,2.06.04.04.06.19.32.19.36v1.82h4.25v-3.49Z"/>
    <path class="cls-1" d="M30.79,30.69s.04.05,0,.07v-.07Z"/>
    <path class="cls-1" d="M23.9,35.21s0-.25.01-.27c.03-.03.18.03.2-.04.12-.59-.26-1.72.85-1.75,1.18-.04.8,1.15.92,1.75.01.07.32-.05.21.31-.28-.06-2.12.08-2.19,0Z"/>
    <path class="cls-1" d="M23.9,31.03c-.14-.14.2-.27.21-.32.05-.21-.03-.61,0-.87.16-1.15,1.61-1.15,1.77,0,.04.26-.05.66,0,.87.02.09.29.09.21.32-.28-.06-2.12.08-2.19,0Z"/>
    <path class="cls-1" d="M24.9,19.38c.38-.12.35.36.12.4-.17.03-.35-.33-.12-.4Z"/>
  </g>
</svg>