<?xml version="1.0" encoding="UTF-8"?>
<svg id="Layer_1" data-name="Layer 1" xmlns="http://www.w3.org/2000/svg" viewBox="0 0 50 50">
  <defs>
    <style>
      .cls-1 {
        fill: #fff;
      }

      .cls-2 {
        fill: #f6355a;
      }
    </style>
  </defs>
  <rect class="cls-2" x="0" y="0" width="50" height="50" rx="10.21" ry="10.21"/>
  <g>
    <path class="cls-1" d="M30.68,36.08v1.62h6.39c.35,0,.71,1-.2,1.09H12.78c-.79-.09-.5-1.09-.13-1.09h6.67v-1.62h-8.22c-1.05,0-2.34-1.41-2.33-2.47l.03-22.1c.06-.14.16-.25.3-.3h31.81c.14.06.25.16.3.3l.03,22.1c0,1.06-1.28,2.47-2.33,2.47h-8.22Z"/>
    <path class="cls-2" d="M40.18,12.26v21.42c0,.54-1,1.42-1.59,1.32H11.32c-.54.02-1.45-.81-1.45-1.32V12.26h30.32Z"/>
    <rect class="cls-2" x="20.42" y="36.08" width="9.2" height="1.62"/>
    <path class="cls-1" d="M11.31,13.36l27.19-.02c.23-.01.41.1.54.27v17.86l-.25.22c-9.08.12-18.2.01-27.29.05-.23.01-.41-.1-.54-.27l-.04-17.63c-.03-.25.17-.41.39-.49Z"/>
    <path class="cls-1" d="M24.32,32.85c.21-.05,1.25-.05,1.44.02.48.15.45.96-.11,1.05-.23.04-1.19.04-1.39-.03-.47-.15-.45-.93.05-1.04Z"/>
    <rect class="cls-2" x="12.03" y="14.43" width="25.99" height="16.24"/>
    <path class="cls-1" d="M21.1,23.22v2s-.14.34-.17.37c-.23.27-.84.19-.91-.24-.1-.62,0-1.63,0-2.3s-.02-1.21,0-1.89c.01-.4-.14-1.58.22-1.75.21-.1,2.05-.08,2.37-.03,2.06.3,1.82,3.84-.32,3.84h-1.18Z"/>
    <path class="cls-1" d="M31.52,23.09c.18.02.11,0,.14-.1.25-.85.56-2.66.93-3.33.33-.59,1.17-.25,1,.39-.63,1.6-.82,3.76-1.47,5.3-.24.57-.84.54-1.07-.05-.63-1.61-.86-3.65-1.47-5.3-.11-.59.69-.88.99-.38l.96,3.47Z"/>
    <path class="cls-1" d="M27.05,20.45v4.97c0,.18-.44.33-.64.3-.18-.03-.44-.28-.44-.44v-4.84c-.43,0-1.29.12-1.41-.46-.18-.85,1.14-.62,1.65-.62.54,0,1.29-.07,1.83,0,.76.09.5,1.08,0,1.08h-.98Z"/>
    <path class="cls-1" d="M17.22,19.38c.4-.12.73.08.77.49-.15,1.69.19,3.7,0,5.35-.09.72-1.02.69-1.09,0,.15-1.69-.19-3.7,0-5.35.02-.18.14-.44.32-.49Z"/>
    <path class="cls-2" d="M21.1,22.14v-1.69h1.39s.23.15.27.2c.38.42.17,1.49-.48,1.49h-1.18Z"/>
  </g>
</svg>