<?xml version="1.0" encoding="UTF-8"?>
<svg id="Layer_1" xmlns="http://www.w3.org/2000/svg" viewBox="0 0 65 65">
  <defs>
    <style>
      .cls-1 {
        fill: #f74164;
      }

      .cls-2 {
        fill: #fff5f5;
      }
    </style>
  </defs>
  <rect class="cls-2" y="0" width="65" height="65" rx="9.71" ry="9.71"/>
  <g>
    <path class="cls-1" d="M48.63,40.54c-.93-.73-1.96-.83-3.02-.29-1.36.7-2.7,1.41-4.05,2.12-.65.34-1.3.67-1.97,1.02-.02-1.54-.69-2.43-2.08-2.81-2.12-.58-4.23-1.18-6.36-1.68-1.58-.37-2.89-1.12-3.98-2.3-.32-.34-.65-.66-.98-.99-1.08-1.07-2.37-1.58-3.9-1.45-.57.05-1.12.15-1.67.3-.13.03-.22.08-.29-.11-.14-.41-.26-.46-.67-.35l-2.88.77c-1.08.29-1.57,1.14-1.27,2.23.41,1.52.81,3.03,1.22,4.55.58,2.18,1.16,4.35,1.75,6.53.25.94,1.08,1.54,1.93,1.34,1.1-.26,2.19-.57,3.28-.87.29-.08.38-.28.31-.56q-.1-.44.35-.53c.07-.01.14-.01.21-.02.84-.13,1.6.18,2.37.4,2.41.69,4.8,1.43,7.24,2.01.69.16,1.39.3,2.08.45h.9c.22-.1.44-.19.65-.3.79-.41,1.58-.82,2.36-1.23,2.7-1.41,5.4-2.82,8.1-4.24,1.6-.84,1.79-2.86.37-3.97ZM22.65,47.98c-.32.04-.68.32-.91.17-.2-.13-.2-.56-.29-.86-.24-.9-.48-1.81-.72-2.71-.02-.07-.04-.13-.06-.2-.08-.24-.25-.37-.5-.3-.26.07-.37.27-.29.54.25.95.51,1.9.76,2.85.06.24.1.48.19.7.1.25,0,.33-.22.36-.16.03-.31.07-.41.1-.48,0-.79-.25-.91-.72-.51-1.88-1.02-3.77-1.52-5.65-.48-1.78-.95-3.57-1.44-5.35-.21-.77,0-1.14.76-1.34.76-.2,1.52-.4,2.28-.61.17-.05.24-.05.3.17,1.1,4.12,2.2,8.24,3.32,12.35.1.37,0,.48-.33.53ZM47.89,43.77c-1.27.68-2.56,1.34-3.83,2.01-2.16,1.13-4.33,2.24-6.47,3.4-.58.31-1.12.29-1.7.18-2.04-.38-4.02-.95-6.01-1.52-1.21-.35-2.42-.7-3.62-1.06-.77-.23-1.55-.26-2.33-.05-.2.05-.28.02-.33-.19-.97-3.64-1.94-7.27-2.92-10.91-.06-.21-.05-.3.19-.35.61-.14,1.22-.28,1.9-.27,1.11-.04,2.05.45,2.86,1.24.57.56,1.13,1.14,1.71,1.68,1.06,1,2.36,1.48,3.76,1.82,2.08.52,4.15,1.1,6.23,1.66.75.2,1.29.64,1.43,1.43.17,1.01-.75,1.87-1.84,1.71-.91-.13-1.79-.45-2.68-.68-1.41-.37-2.81-.75-4.21-1.13-.04,0-.09-.01-.14-.03-.27-.08-.47.03-.54.29-.07.27.07.44.33.51.92.25,1.85.5,2.77.75,1.25.33,2.5.66,3.75,1.01.95.27,1.8.11,2.63-.46.65-.45,1.39-.77,2.1-1.14,1.69-.88,3.37-1.77,5.06-2.65.91-.48,1.99-.22,2.52.59.51.78.26,1.71-.6,2.17Z"/>
    <path class="cls-1" d="M47.33,28.97c-.42,0-.83,0-1.25,0-.58,0-.61.03-.78.57-1.15,3.76-4.57,6.3-8.5,6.3-3.56,0-6.77-2.12-8.16-5.4-.08-.19-.26-.41-.18-.57.08-.16.35-.05.54-.06.18-.01.32-.07.4-.24.07-.15.06-.32-.06-.46-.69-.75-1.37-1.51-2.06-2.25-.18-.19-.4-.2-.58,0-.69.75-1.38,1.5-2.06,2.26-.12.13-.14.29-.07.45.07.16.21.24.39.24.2,0,.39.02.59,0,.2-.02.28.06.33.25,1.73,5.78,7.15,9.13,13.07,8.08,4.28-.76,7.95-4.27,8.89-8.5.1-.46-.05-.65-.52-.65ZM45.57,32.79c-2.26,3.21-5.36,4.85-9.3,4.69-4.61-.19-8.55-3.49-9.67-7.97-.09-.35-.23-.58-.71-.53.37-.41.68-.75.99-1.09.07-.09.13-.11.22-.01.31.35.63.7.97,1.06-.63.1-.74.25-.54.85,1.34,3.92,4.05,6.28,8.16,6.81,4.57.59,8.81-2.13,10.3-6.48.08-.24.18-.35.44-.31.16.02.32,0,.52,0-.29,1.09-.74,2.08-1.37,2.98Z"/>
    <path class="cls-1" d="M49.05,23.47c-.08-.16-.22-.23-.39-.23-.19,0-.37-.02-.56,0-.24.03-.31-.08-.38-.29-1.89-6.45-8.66-9.87-14.96-7.48-3.7,1.4-5.99,4.13-7,7.94-.12.45.05.65.53.65.44,0,.88,0,1.32,0,.47,0,.54-.07.69-.51,1.14-3.5,3.52-5.66,7.13-6.24,3.48-.56,6.34.7,8.51,3.48.57.72.97,1.53,1.26,2.44-.22,0-.4,0-.58,0-.19,0-.34.06-.42.24-.09.18-.03.34.09.48.67.74,1.34,1.47,2.02,2.2.19.2.42.22.61.02.69-.74,1.38-1.5,2.06-2.26.12-.13.15-.28.06-.45ZM46.64,25.28c-.36-.39-.71-.77-1.07-1.17.62-.1.71-.24.55-.82-1.05-3.67-4.39-6.47-8.17-6.86-4.66-.49-8.8,2.14-10.33,6.56-.07.2-.75.39-.88.23-.07-.09,0-.2.04-.29.57-1.83,1.59-3.38,3.01-4.66,5.87-5.31,15.36-2.4,17.23,5.27.09.37.26.58.71.55-.38.42-.73.8-1.09,1.2Z"/>
    <path class="cls-1" d="M37.5,28.48c-.11-.04-.27-.01-.27-.2v-.87c.24.09.35.22.4.42.08.33.28.48.52.41.25-.07.36-.3.29-.62-.12-.54-.48-.85-.98-1.03-.14-.05-.24-.09-.23-.28,0-.25-.16-.38-.39-.39-.22,0-.4.13-.41.34,0,.25-.14.29-.32.36-.48.2-.84.53-.9,1.09-.06.55.18,1.02.66,1.19.56.21.59.57.54,1.03,0,.05,0,.11,0,.21-.25-.1-.35-.24-.39-.45-.04-.27-.21-.42-.49-.37-.28.05-.36.26-.33.53.07.56.42.88.9,1.09.18.07.32.12.32.36,0,.22.19.35.41.34.22,0,.39-.13.39-.36,0-.21.1-.26.27-.32.43-.16.76-.44.91-.89.21-.64-.17-1.29-.9-1.58ZM36.38,28.25c-.2-.08-.34-.18-.36-.39-.02-.23.13-.35.36-.46v.85ZM37.24,30.14v-.85c.23.09.38.22.38.43,0,.21-.16.34-.38.42Z"/>
    <path class="cls-1" d="M42.04,29.84c-.3-1.81-1.13-3.36-2.32-4.73-.15-.17-.14-.24,0-.41.53-.61.35-1.52-.37-1.88-.23-.11-.22-.23-.17-.42.18-.63.35-1.27.52-1.91.05-.2.1-.41-.09-.58-.2-.16-.41-.11-.62-.03-.25.1-.46.27-.66.44-.18.16-.33.13-.51,0-.94-.69-1.08-.69-2-.01,0,0-.02.01-.03.02-.16.16-.31.15-.48,0-.22-.18-.44-.38-.72-.47-.2-.06-.41-.1-.59.07-.17.16-.13.35-.08.55.17.63.33,1.27.52,1.9.06.22.06.33-.18.45-.72.36-.89,1.29-.34,1.88.16.18.11.25-.01.4-1.23,1.43-2.09,3.04-2.35,4.94-.26,1.89.79,3.12,2.68,3.14.86.01,1.71,0,2.57,0h0c.94,0,1.87.01,2.81,0,1.21-.03,2.07-.67,2.37-1.73.15-.53.15-1.08.06-1.62ZM36.47,20.85c.25-.22.44-.22.69,0,.42.38.89.64,1.51.26-.13.51-.25.94-.36,1.39-.03.12-.09.19-.24.19-.84,0-1.69,0-2.53,0-.1,0-.18,0-.21-.13-.11-.45-.24-.9-.38-1.44.64.39,1.1.11,1.52-.26ZM34.86,23.51c.65,0,1.3,0,1.95,0s1.3,0,1.94,0c.27,0,.43.12.43.39,0,.26-.14.4-.42.4-1.31,0-2.62,0-3.92,0-.25,0-.4-.14-.4-.38,0-.26.15-.4.42-.4ZM41.24,30.96c-.11.86-.7,1.37-1.66,1.39-.92.02-1.85,0-2.78,0h0c-.84,0-1.69.01-2.53,0-1.39-.02-2.07-.74-1.9-2.11.24-1.94,1.16-3.55,2.51-4.94.11-.11.24-.16.4-.16,1.02,0,2.04,0,3.05,0,.19,0,.33.06.46.2,1.24,1.28,2.08,2.78,2.43,4.55.07.35.07.72.03,1.07Z"/>
    <path class="cls-1" d="M37.5,28.48c-.11-.04-.27-.01-.27-.2v-.87c.24.09.35.22.4.42.08.33.28.48.52.41.25-.07.36-.3.29-.62-.12-.54-.48-.85-.98-1.03-.14-.05-.24-.09-.23-.28,0-.25-.16-.38-.39-.39-.22,0-.4.13-.41.34,0,.25-.14.29-.32.36-.48.2-.84.53-.9,1.09-.06.55.18,1.02.66,1.19.56.21.59.57.54,1.03,0,.05,0,.11,0,.21-.25-.1-.35-.24-.39-.45-.04-.27-.21-.42-.49-.37-.28.05-.36.26-.33.53.07.56.42.88.9,1.09.18.07.32.12.32.36,0,.22.19.35.41.34.22,0,.39-.13.39-.36,0-.21.1-.26.27-.32.43-.16.76-.44.91-.89.21-.64-.17-1.29-.9-1.58ZM36.38,28.25c-.2-.08-.34-.18-.36-.39-.02-.23.13-.35.36-.46v.85ZM37.24,30.14v-.85c.23.09.38.22.38.43,0,.21-.16.34-.38.42Z"/>
    <path class="cls-1" d="M37.5,28.48c-.11-.04-.27-.01-.27-.2v-.87c.24.09.35.22.4.42.08.33.28.48.52.41.25-.07.36-.3.29-.62-.12-.54-.48-.85-.98-1.03-.14-.05-.24-.09-.23-.28,0-.25-.16-.38-.39-.39-.22,0-.4.13-.41.34,0,.25-.14.29-.32.36-.48.2-.84.53-.9,1.09-.06.55.18,1.02.66,1.19.56.21.59.57.54,1.03,0,.05,0,.11,0,.21-.25-.1-.35-.24-.39-.45-.04-.27-.21-.42-.49-.37-.28.05-.36.26-.33.53.07.56.42.88.9,1.09.18.07.32.12.32.36,0,.22.19.35.41.34.22,0,.39-.13.39-.36,0-.21.1-.26.27-.32.43-.16.76-.44.91-.89.21-.64-.17-1.29-.9-1.58ZM36.38,28.25c-.2-.08-.34-.18-.36-.39-.02-.23.13-.35.36-.46v.85ZM37.24,30.14v-.85c.23.09.38.22.38.43,0,.21-.16.34-.38.42Z"/>
  </g>
</svg>