<?xml version="1.0" encoding="UTF-8"?>
<svg id="Layer_1" data-name="Layer 1" xmlns="http://www.w3.org/2000/svg" viewBox="0 0 50 50">
  <defs>
    <style>
      .cls-1 {
        letter-spacing: 0em;
      }

      .cls-2 {
        fill-rule: evenodd;
      }

      .cls-2, .cls-3 {
        fill: #fff;
      }

      .cls-3 {
        font-family: Raleway-Bold, Raleway;
        font-size: 3.47px;
        font-weight: 700;
        isolation: isolate;
      }

      .cls-4 {
        fill: #f6355a;
      }
    </style>
  </defs>
  <rect class="cls-4" y="0" width="50" height="50" rx="10.21" ry="10.21"/>
  <g>
    <path class="cls-2" d="M11.69,29.14h0c-.2-.18-.51-.17-.7.03-.14.15-.17.36-.08.55h.02c.07.1.18.17.3.19.12.02.24-.01.34-.09.25.04.48,0,.52-.26s-.14-.5-.39-.54l-.02.13h0ZM11.69,29.14h0c-.2-.18-.51-.17-.7.03-.14.15-.17.36-.08.55h.02c.07.1.18.17.3.19.12.02.24-.01.34-.09.25.04.48,0,.52-.26s-.14-.5-.39-.54l-.02.13h0ZM43.8,19.76c0-.07-.03-.15-.08-.2l-3.07-4.18-.4.27c-.11.1-.25.16-.39.19h-.47c-.18-.06-.34-.13-.49-.23-.15-.08-.29-.2-.39-.33-.11-.14-.18-.31-.23-.48-.04-.17-.05-.35-.03-.53.02-.16.06-.33.13-.48l.27-.32.4-.27-.12-.13-.61-.87c-.82-1.15-2.07-2.92-2.36-3.19l-.15-.13-.21-.09-.23.02-.18.08L8.34,28.6c-.06.04-.11.1-.13.17-.04.05-.07.12-.08.18-.01.07,0,.15.02.23.01.07.04.14.08.2l.3.41-2.18,1.6c-.18.14-.22.41-.09.6l1.33,1.81c.12.15.33.18.48.07l.34-.22c.09-.08.2-.11.32-.09.11.02.21.09.28.18.12.2.08.44-.09.6l-.34.22c-.15.12-.18.33-.07.48l4.4,5.96c.11.2.36.28.55.17.03-.02.06-.04.09-.07l2.15-1.55.27.37.17.13.18.08.23-.02.2-.08,26.86-19.7c.06-.04.11-.1.13-.17.04-.06.07-.14.09-.21.01-.07,0-.13-.03-.2h0ZM10.65,28.53c.24-.18.54-.25.83-.2.29.04.55.2.71.44.18.24.25.54.2.83-.04.29-.2.54-.44.71-.23.18-.52.26-.81.21-.29-.04-.56-.2-.73-.44-.17-.23-.25-.52-.21-.81s.2-.56.44-.73ZM13.31,40.43l-.58-.75,1.37-1.01-.39-.56-1.37,1.01-.51-.66,1.37-1.01-.41-.56-1.34,1.01-.51-.66,1.37-1.01-.41-.56-1.37,1.01-.53-.72,1.37-1.01-.39-.56-1.37,1.01-.37-.5v-.06c.25-.17.41-.42.45-.71.04-.29-.02-.6-.2-.83-.17-.24-.42-.4-.71-.44s-.6.02-.83.2l-.06.05-.23-.31,1.37-1.01-.39-.56-1.37,1.01-.34-.47,1.99-1.46,6.34,8.67-1.96,1.44v-.02ZM38.89,20.56l-20.52,15.04c-.08.08-.22.09-.31,0,0,0-.01-.01-.02-.02h0l-4.92-6.74c-.07-.11-.05-.24.05-.32l20.49-15.04c.11-.07.24-.05.32.05l4.95,6.71c.07.11.05.24-.05.32h0ZM10.94,29.72c.07.1.18.17.3.19.12.02.24-.01.34-.09.21-.16.25-.46.1-.68h0c-.2-.18-.51-.17-.7.03-.14.15-.17.36-.08.55h.02s0,0,0,0Z"/>
    <text class="cls-3" transform="translate(20.32 30.56) rotate(-36.22)"><tspan x="0" y="0">NV</tspan><tspan class="cls-1" x="5" y="0">M</tspan><tspan x="7.97" y="0">e SSD</tspan></text>
  </g>
</svg>