<?xml version="1.0" encoding="UTF-8"?>
<svg id="Layer_1" xmlns="http://www.w3.org/2000/svg" viewBox="0 0 65 65">
  <defs>
    <style>
      .cls-1 {
        fill: #f74164;
      }

      .cls-2 {
        fill: #fff5f5;
      }
    </style>
  </defs>
  <rect class="cls-2" y="0" width="65" height="65" rx="9.71" ry="9.71"/>
  <g>
    <path class="cls-1" d="M33.38,13.64c.81.17,1.65.26,2.44.52,4.15,1.4,6.71,4.26,7.67,8.55.02.11.05.22.08.37,2.48-.12,4.6.67,6.21,2.62,1.13,1.37,1.63,2.97,1.58,4.75-.1,3.5-3.2,7.11-7.66,6.8v.4c0,2.27-.06,4.54.02,6.81.06,1.69-1.05,2.88-2.82,2.8-1.67-.08-3.34-.02-5.01-.02h-.42v2.95c.76,0,1.5-.02,2.25.02.21.01.47.16.59.33.23.32-.02.76-.42.83-.11.02-.22.01-.33.01-3.38,0-6.75,0-10.13,0-.07,0-.15,0-.22,0-.35-.03-.59-.26-.6-.58,0-.34.24-.59.61-.6.7-.01,1.4,0,2.1,0,.06,0,.12,0,.21-.01v-2.94c-.13,0-.26,0-.39,0-1.77,0-3.53,0-5.3,0-1.54,0-2.53-.99-2.53-2.53,0-2.37,0-4.74,0-7.11v-.33c-.87-.3-1.74-.5-2.52-.88-2.92-1.44-4.61-3.79-5.07-7.02-.01-.08-.04-.16-.07-.24,0-.52,0-1.03,0-1.55.02-.09.06-.19.07-.28.49-4.27,4.22-7.67,8.51-7.74.31,0,.47-.11.62-.37,1.54-2.56,3.73-4.29,6.61-5.1.7-.2,1.43-.29,2.15-.43.59,0,1.18,0,1.77,0ZM43.69,24.25c0,.2,0,.35,0,.51,0,.4-.24.66-.59.66-.35,0-.57-.25-.59-.66-.04-.51-.05-1.03-.14-1.54-.72-3.87-2.93-6.58-6.64-7.85-3.76-1.29-7.21-.49-10.13,2.21-2.04,1.89-3.04,4.29-3.12,7.07-.01.49-.23.77-.61.76-.38,0-.6-.28-.57-.78.04-.62.08-1.25.2-1.86.13-.68.34-1.35.51-2.02-3.09.03-6.93,2.65-7.17,7.18-.24,4.56,3.36,7.62,6.46,7.99,0-.89,0-1.77,0-2.65,0-1.57.98-2.54,2.55-2.54,3.06,0,6.11,0,9.17,0,2.76,0,5.52,0,8.28,0,1.21,0,2.17.82,2.35,2.01.05.35.03.71.03,1.07,0,.73,0,1.46,0,2.22,2.37.09,4.27-.73,5.53-2.71,1.29-2.02,1.32-4.15.1-6.2-1.24-2.09-3.18-2.96-5.64-2.87ZM42.52,43.09c0-3.31,0-6.57,0-9.84,0-.88-.46-1.34-1.34-1.34-5.78,0-11.56,0-17.34,0-.9,0-1.35.46-1.35,1.36,0,3.14,0,6.29,0,9.43,0,.13,0,.26,0,.39h20.04ZM22.48,44.3c0,.18,0,.34,0,.5,0,.76.49,1.25,1.24,1.25,5.85,0,11.71,0,17.56,0,.39,0,.72-.14.97-.45.32-.39.28-.84.25-1.31h-20.02ZM34.25,47.26h-3.49v2.9h3.49v-2.9Z"/>
    <path class="cls-1" d="M31.91,25.46c0,.39,0,.79,0,1.18-.03.97-.77,1.71-1.74,1.74-.42.01-.83.01-1.25,0-.95-.03-1.7-.78-1.71-1.72-.02-.81-.01-1.62,0-2.43.02-.96.78-1.71,1.74-1.74.4,0,.81,0,1.21,0,.98.02,1.73.77,1.75,1.76,0,.4,0,.81,0,1.21ZM28.38,25.42c0,.38,0,.76,0,1.14.01.39.23.61.62.63.37.01.74.01,1.1,0,.39-.01.62-.23.63-.62.01-.76.01-1.52,0-2.28,0-.39-.23-.61-.62-.63-.37-.01-.74-.01-1.1,0-.39.01-.61.23-.63.62-.01.38,0,.76,0,1.14Z"/>
    <path class="cls-1" d="M35.95,22.48c.37,0,.74,0,1.1,0,.47,0,.74.21.74.58,0,.38-.27.6-.76.6-.67,0-1.35,0-2.02,0-.47,0-.74.21-.74.58,0,.38.27.6.76.6.34,0,.69,0,1.03,0,.98.02,1.75.81,1.74,1.77,0,.95-.76,1.73-1.72,1.76-.77.02-1.55,0-2.32,0-.41,0-.66-.23-.67-.58,0-.36.26-.59.69-.6.71,0,1.42,0,2.13,0,.44,0,.7-.22.71-.58,0-.37-.26-.6-.72-.6-.36,0-.71,0-1.07,0-.98-.03-1.75-.81-1.74-1.77,0-.97.77-1.74,1.76-1.76.37,0,.74,0,1.1,0Z"/>
    <path class="cls-1" d="M32.47,41.34c-.58,0-1.15,0-1.73,0-1.32-.02-2.34-1.05-2.36-2.37,0-.37,0-.74,0-1.1,0-.4.26-.65.6-.65.33,0,.56.26.57.64,0,.36,0,.71,0,1.07.01.73.51,1.23,1.23,1.24,1.14,0,2.28,0,3.42,0,.74,0,1.23-.51,1.24-1.26,0-.34,0-.69,0-1.03,0-.4.25-.66.6-.65.33,0,.58.25.58.63,0,.54.03,1.09-.07,1.61-.19,1.08-1.14,1.85-2.24,1.88-.61.01-1.23,0-1.84,0h0Z"/>
    <path class="cls-1" d="M31.91,36.93c0-.87,0-1.67,0-2.48,0-.14.01-.3.07-.43.11-.27.35-.39.63-.33.32.06.48.28.48.61,0,.72,0,1.45,0,2.17,0,.13,0,.26,0,.4.05,0,.08,0,.09,0,.4-.3.7-.31.94-.03.24.28.19.58-.16.93-.32.32-.64.65-.96.96-.35.34-.64.34-.99,0-.33-.32-.64-.64-.96-.96-.35-.35-.4-.65-.17-.93.24-.29.55-.28,1.03.09Z"/>
  </g>
</svg>