<?xml version="1.0" encoding="UTF-8"?>
<svg id="Layer_1" data-name="Layer 1" xmlns="http://www.w3.org/2000/svg" viewBox="0 0 50 50">
  <defs>
    <style>
      .cls-1 {
        fill: #fff;
      }

      .cls-2 {
        fill: #f6355a;
      }
    </style>
  </defs>
  <rect class="cls-2" x="0" y="0" width="50" height="50" rx="10.21" ry="10.21"/>
  <g>
    <path class="cls-1" d="M23.65,8.2c13.32-1,22.5,13.03,16.16,24.85s-23.27,11.7-29.64,0c-5.81-10.68,1.42-23.95,13.47-24.85ZM21.02,18.21c-1.83.08-4.07-.17-4.78,1.94-.56,1.66-.52,8.03.03,9.71.28.86.83,1.46,1.72,1.71.81.23,2.6.27,3.52.3,2.62.1,5.3,0,7.9-.14,1.79-.1,3.63.3,4.35-1.84.54-1.61.5-7.48.12-9.19-.6-2.67-2.12-2.27-4.32-2.39-2.81-.16-5.69-.22-8.52-.09Z"/>
    <polygon class="cls-1" points="22.02 28.69 22.02 21.31 27.98 24.93 22.02 28.69"/>
  </g>
</svg>