<?xml version="1.0" encoding="UTF-8"?>
<svg id="Layer_1" data-name="Layer 1" xmlns="http://www.w3.org/2000/svg" viewBox="0 0 65 65">
  <defs>
    <style>
      .cls-1 {
        fill: #f86b71;
      }

      .cls-2 {
        fill: #fff5f5;
      }
    </style>
  </defs>
  <rect class="cls-2" x="0" y="-.04" width="65" height="65" rx="5.31" ry="5.31"/>
  <path class="cls-1" d="M25.92,12.77v17.1h13.15V12.77h-13.15ZM27.24,14.08h10.52v14.47h-10.52v-14.47ZM28.57,15.4v1.32h7.88v-1.32h-7.88ZM28.57,18.03v1.32h7.88v-1.32h-7.88ZM28.57,20.66v1.32h7.88v-1.32h-7.88ZM32.5,23.29c-1.08,0-1.97.89-1.97,1.97s.89,1.97,1.97,1.97,1.97-.89,1.97-1.97-.89-1.97-1.97-1.97ZM32.5,24.61c.37,0,.66.29.66.66s-.29.66-.66.66c-.36,0-.65-.28-.66-.64,0,0,0-.01,0-.02,0-.37.29-.66.66-.66ZM31.84,31.18v2.63h-14.47v3.95h1.32v-2.63h13.15v2.63h1.32v-2.63h13.15v2.63h1.32v-3.95h-14.47v-2.63h-1.32ZM12.11,39.08v9.21h3.29v2.63h-1.32v1.32h7.89v-1.32h-1.32v-2.63h3.29v-9.21h-11.84ZM26.58,39.08v9.21h3.29v2.63h-1.32v1.32h7.89v-1.32h-1.32v-2.63h3.29v-9.21h-11.84ZM41.05,39.08v9.21h3.29v2.63h-1.32v1.32h7.89v-1.32h-1.32v-2.63h3.29v-9.21h-11.84ZM13.43,40.39h9.21v6.58h-9.21v-6.58ZM27.9,40.39h9.21v6.58h-9.21v-6.58ZM42.37,40.39h9.21v6.58h-9.21v-6.58ZM16.71,48.29h2.63v2.63h-2.63v-2.63ZM31.18,48.29h2.63v2.63h-2.63v-2.63ZM45.65,48.29h2.63v2.63h-2.63v-2.63Z"/>
</svg>