<?xml version="1.0" encoding="UTF-8"?>
<svg id="Layer_1" data-name="Layer 1" xmlns="http://www.w3.org/2000/svg" viewBox="0 0 65 65">
  <defs>
    <style>
      .cls-1 {
        fill: #f86b71;
      }

      .cls-2 {
        fill: #fff5f5;
      }
    </style>
  </defs>
  <rect class="cls-2" y="0" width="65" height="65" rx="5.31" ry="5.31"/>
  <g>
    <path class="cls-1" d="M24.31,25.06l-.33,1.33h-8.41l-.33.33v19.92s.34.39.45.44h33.64c.1-.05.45-.4.45-.44v-19.92l-.33-.33h-8.41l-.33-1.33h9.19c.42,0,1.35,1.11,1.22,1.66-.45,6.35.58,13.46,0,19.72-.06.7-.7,2.09-1.45,2.09h-14.5l.48,1.29c3.3-.31,5.2.5,4.18,4.15h-14.64c-1.01-3.62.87-4.46,4.18-4.15l.48-1.29h-14.5c-.75,0-1.39-1.39-1.45-2.09-.57-6.26.45-13.37,0-19.72-.13-.54.8-1.66,1.22-1.66h9.19ZM30.95,49.86h3.1l-.48-1.29-1.86-.05-.29.05-.48,1.29ZM38.7,52.73c.06-.71.04-1.39-.78-1.54-3.34.24-7.13-.33-10.41-.02-1.13.11-1.28.41-1.2,1.56h12.4Z"/>
    <path class="cls-1" d="M24.31,29.05h-6.09l-.33.33v14.94h29.22v-14.94l-.33-.33h-6.09c0-.61-.19-1.19.55-1.33.65-.12,6.37-.06,6.75.11.1.05.45.4.45.44v17.04l-.33.33h-31.21l-.33-.33v-17.04s.34-.39.45-.44c.38-.18,6.1-.23,6.75-.11.74.14.55.72.55,1.33Z"/>
    <path class="cls-1" d="M31.17,23.52v-1.33c2.88-.26,5.25.39,5.54,3.64.2,2.28.25,7.72-.07,9.91-.19,1.28-1,2.44-2.25,2.84-1.05.33-5.02.36-6.16.16-1.28-.23-2.4-1.45-2.58-2.73-.21-1.47-.21-10.42.15-11.54.07-.2.45-.91.61-.95l.96.81c-.19.56-.38.87-.42,1.51-.17,2.49-.22,6.86,0,9.32.12,1.26.53,2.09,1.9,2.3,1.01.16,4.62.15,5.4-.33.33-.2.81-.7.89-1.1l-.09-11.18c-.7-1.6-2.42-1.33-3.89-1.32Z"/>
    <path class="cls-1" d="M38.69,26.61l-1.03-.99c.2-.53.35-.96.38-1.55.11-2.22.33-7.98-.06-9.92-.06-.3-.39-.95-.62-1.15-.93-.81-7.44-1.32-7.51,1.11l.03,11.01c.88,1.59,2.39,1.28,3.94,1.26v1.33c-3,.25-5.26-.3-5.54-3.65-.19-2.25-.27-7.58.03-9.73.16-1.17.91-2.37,2-2.87s4.77-.51,6.04-.34c1.43.19,2.84,1.5,3.01,2.96.28,2.37.22,7.98,0,10.42-.08.88-.35,1.33-.68,2.09Z"/>
    <path class="cls-1" d="M41.91,34.58c.19.06.31.35.34.56.26,1.58-1.59.74-2.44,1.1l3.44,3.65-.7.65-3.51-3.3c-.5-.09-.31.22-.33.55-.04.55.03,1.12,0,1.67h-1.33v-4.32s.51-.55.55-.55c.85,0,3.42-.17,3.98,0Z"/>
    <path class="cls-1" d="M40.58,42.99c-.66-.19-.75-2.25-.46-2.67.62-.89,1.96.25,1.45,1.34h2.66s0-2.88,0-2.88h-1.33s0-1.33,0-1.33c.85.12,2.01-.32,2.66.33v4.87l-.33.33h-4.65Z"/>
  </g>
</svg>