<?xml version="1.0" encoding="UTF-8"?>
<svg id="Layer_1" data-name="Layer 1" xmlns="http://www.w3.org/2000/svg" viewBox="0 0 65 65">
  <defs>
    <style>
      .cls-1 {
        fill: #f86b71;
      }

      .cls-2 {
        fill: #fff5f5;
      }
    </style>
  </defs>
  <rect class="cls-2" x="0" y="0" width="65" height="65" rx="5.31" ry="5.31"/>
  <g>
    <path class="cls-1" d="M19.6,43.55h-1.84c-1.36,0-2.46-1.1-2.46-2.46v-4.91c0-1.36,1.1-2.46,2.46-2.46h1.84c.34,0,.61.28.61.61v8.6c0,.34-.28.61-.61.61ZM17.76,34.95c-.68,0-1.23.55-1.23,1.23v4.91c0,.68.55,1.23,1.23,1.23h1.23v-7.37h-1.23Z"/>
    <path class="cls-1" d="M21.44,45.39c-1.36,0-2.46-1.1-2.46-2.46v-8.6c0-1.36,1.1-2.46,2.46-2.46s2.46,1.1,2.46,2.46v8.6c0,1.36-1.1,2.46-2.46,2.46ZM21.44,33.1c-.68,0-1.23.55-1.23,1.23v8.6c0,.68.55,1.23,1.23,1.23s1.23-.55,1.23-1.23v-8.6c0-.68-.55-1.23-1.23-1.23ZM47.24,43.55h-1.84c-.34,0-.61-.28-.61-.61v-8.6c0-.34.28-.61.61-.61h1.84c1.36,0,2.46,1.1,2.46,2.46v4.91c0,1.36-1.1,2.46-2.46,2.46ZM46.01,42.32h1.23c.68,0,1.23-.55,1.23-1.23v-4.91c0-.68-.55-1.23-1.23-1.23h-1.23v7.37Z"/>
    <path class="cls-1" d="M43.56,45.39c-1.36,0-2.46-1.1-2.46-2.46v-8.6c0-1.36,1.1-2.46,2.46-2.46s2.46,1.1,2.46,2.46v8.6c0,1.36-1.1,2.46-2.46,2.46ZM43.56,33.1c-.68,0-1.23.55-1.23,1.23v8.6c0,.68.55,1.23,1.23,1.23s1.23-.55,1.23-1.23v-8.6c0-.68-.55-1.23-1.23-1.23ZM33.73,49.69h-2.46c-1.02,0-1.84-.83-1.84-1.84s.83-1.84,1.84-1.84h2.46c1.02,0,1.84.83,1.84,1.84s-.83,1.84-1.84,1.84ZM31.27,47.23c-.34,0-.61.28-.61.61s.28.61.61.61h2.46c.34,0,.61-.28.61-.61s-.28-.61-.61-.61h-2.46Z"/>
    <path class="cls-1" d="M43.56,48.46h-8.6c-.34,0-.61-.28-.61-.61s.28-.61.61-.61h8.6c1.7,0,3.07-1.38,3.07-3.07v-1.23c0-.34.28-.61.61-.61s.61.28.61.61v1.23c0,2.37-1.93,4.3-4.3,4.3ZM46.63,34.95c-.34,0-.61-.28-.61-.61v-4.3c0-.59-.04-1.18-.12-1.76-.04-.34.2-.65.53-.69.34-.04.65.2.69.53.08.64.12,1.28.12,1.92v4.3c0,.34-.28.61-.61.61ZM18.37,34.95c-.34,0-.61-.28-.61-.61v-4.3c0-.64.04-1.29.13-1.92.04-.34.35-.58.69-.53.34.04.58.35.53.69h0c-.08.58-.13,1.17-.13,1.76v4.3c0,.34-.28.61-.61.61Z"/>
    <path class="cls-1" d="M46.51,28.8c-1.94-.03-3.68-1.2-4.45-2.98-2.33-5.28-8.49-7.67-13.77-5.34-2.42,1.07-4.35,3.02-5.39,5.45-.71,1.72-2.37,2.85-4.23,2.87h-.18c-.34,0-.62-.27-.62-.61,0-.03,0-.06,0-.09,1.07-8.07,8.49-13.74,16.56-12.67,6.6.88,11.79,6.07,12.67,12.67.04.34-.19.64-.53.69-.03,0-.06,0-.09,0h.01ZM32.5,16.52c-6.5,0-12.08,4.62-13.28,11.01,1.15-.22,2.11-1,2.55-2.08,2.52-5.93,9.38-8.69,15.31-6.17,1.37.58,2.62,1.43,3.68,2.48,1.03,1.02,1.86,2.23,2.46,3.55.47,1.09,1.43,1.9,2.59,2.17-.51-2.66-1.81-5.1-3.72-7.02-2.54-2.55-5.99-3.97-9.58-3.95Z"/>
    <path class="cls-1" d="M31.27,32.49h-3.07c-.34,0-.61-.28-.61-.61v-.61c0-.16.06-.32.18-.44l2.69-2.69c.27-.27.27-.7,0-.97-.13-.13-.3-.2-.48-.2h-.47c-.38,0-.69.31-.69.69v.54c0,.34-.28.61-.61.61s-.61-.28-.61-.61v-.54c0-1.06.86-1.92,1.92-1.92h.47c1.06,0,1.92.86,1.92,1.92h0c0,.51-.2,1-.56,1.36l-2.26,2.25h2.21c.34,0,.61.28.61.61s-.28.61-.61.61ZM36.8,30.03h-1.23c-1.36,0-2.46-1.1-2.46-2.46v-1.23c0-.34.28-.61.61-.61s.61.28.61.61v1.23c0,.68.55,1.23,1.23,1.23h.61v-2.46c0-.34.28-.61.61-.61s.61.28.61.61v3.07c0,.34-.28.61-.61.61Z"/>
    <path class="cls-1" d="M36.8,32.49c-.34,0-.61-.28-.61-.61v-2.46c0-.34.28-.61.61-.61s.61.28.61.61v2.46c0,.34-.28.61-.61.61Z"/>
    <path class="cls-1" d="M32.5,37.4c-4.41,0-7.99-3.58-7.99-7.99s3.58-7.99,7.99-7.99,7.99,3.58,7.99,7.99c0,.34-.28.61-.61.61s-.61-.28-.61-.61c0-3.73-3.03-6.76-6.76-6.76s-6.76,3.03-6.76,6.76,3.03,6.76,6.76,6.76c.34,0,.61.28.61.61s-.28.61-.61.61Z"/>
    <path class="cls-1" d="M31.89,39.25c-.16,0-.32-.06-.44-.18-.24-.24-.24-.63,0-.87,0,0,0,0,0,0l1.41-1.41-1.41-1.41c-.24-.24-.24-.63,0-.87.24-.24.63-.24.87,0l1.84,1.84c.24.24.24.63,0,.87,0,0,0,0,0,0l-1.84,1.84c-.12.11-.27.18-.44.18Z"/>
  </g>
</svg>