<?xml version="1.0" encoding="UTF-8"?>
<svg id="Layer_1" data-name="Layer 1" xmlns="http://www.w3.org/2000/svg" viewBox="0 0 65 65">
  <defs>
    <style>
      .cls-1 {
        fill: #f86b71;
      }

      .cls-2 {
        fill: #fff5f5;
      }
    </style>
  </defs>
  <rect class="cls-2" x="0" y=".26" width="65" height="65" rx="5.31" ry="5.31"/>
  <g>
    <path class="cls-1" d="M51.01,17.31v22.05h2.29v5.1l-3.22,3.22h-15.08v-1.66h9.98v-4.99h-3.12c-.31.76-.63,2.25-1.55,2.3h-15.82c-.63-.13-1.14-1.69-1.35-2.3h-3.12v4.99h9.98v1.66h-15.08l-3.22-3.22v-5.1h2.29v-22.05h37.03ZM49.35,18.98H15.65v20.39h7.07c-.18-3.76,3.14-4.99,6.24-5.62-1.26-1.33-1.89-2.92-1.66-4.78h-1.46s0-1.66,0-1.66h1.46c.06-2.26,1.14-5.58,4.01-4.94.4.09.8.5,1.12.53.4.04.83-.44,1.26-.53,2.95-.65,3.8,2.7,4.02,4.93h1.45s0,1.68,0,1.68h-1.46c.26,1.91-.46,3.39-1.66,4.78,3.19.68,6.37,1.75,6.24,5.62h7.07v-20.39ZM36.04,27.3c-.26-2.37-1.24-4.79-3.46-2.1-.49.09-1.21-1.66-2.36-1.13-.75.34-1.13,2.44-1.25,3.23h7.07ZM36.04,28.96h-7.07c-.48,5.75,7.56,5.83,7.07,0ZM27.3,41.65v-3.54h1.66v3.54h7.07v-3.54h1.66v3.54l2.1-.13c1.78-3.31.54-4.83-2.72-5.8s-6.24-.94-9.47.1c-2.04.66-3.4,1.36-3.23,3.85.12,1.8,1.29,2.27,2.93,1.98ZM18.35,41.03h-4.99c.11.81-.18,2.02.04,2.77.1.33,2,2.15,2.35,2.22h2.6s0-4.99,0-4.99ZM51.64,41.03h-4.99v4.99c.81-.11,2.02.18,2.77-.04.33-.1,2.15-2,2.22-2.35v-2.6Z"/>
    <rect class="cls-1" x="31.67" y="46.02" width="1.67" height="1.67"/>
  </g>
</svg>