<?xml version="1.0" encoding="UTF-8"?>
<svg id="Layer_1" data-name="Layer 1" xmlns="http://www.w3.org/2000/svg" viewBox="0 0 65 65">
  <defs>
    <style>
      .cls-1 {
        fill: #f86b71;
      }

      .cls-2 {
        fill: #fff5f5;
      }
    </style>
  </defs>
  <rect class="cls-2" x="0" y="0" width="65" height="65" rx="5.31" ry="5.31"/>
  <g>
    <path class="cls-1" d="M29.86,42.3h-3.01c-.42,0-.75-.34-.75-.75s.34-.75.75-.75h3.01c.42,0,.75.34.75.75s-.34.75-.75.75ZM18.18,37.4c-.42,0-.75-.34-.75-.75v-10.84c0-1.25.53-2.45,1.46-3.29l2.39-2.17c.31-.28.79-.26,1.06.05.28.31.26.78-.05,1.06l-2.39,2.17c-.61.55-.96,1.35-.96,2.17v10.84c0,.42-.34.75-.75.75ZM47.57,28.55c-.42,0-.75-.34-.75-.75v-1.99c0-.83-.35-1.62-.96-2.17l-11.02-9.96c-1.12-1.01-2.8-1.01-3.91,0l-4.25,3.84c-.45.41-1.07.5-1.62.26-.55-.25-.9-.77-.9-1.38v-4.23c0-.42.34-.75.75-.75s.75.34.75.75v4.23l4.25-3.84c1.69-1.53,4.24-1.53,5.93,0l11.02,9.96c.93.84,1.46,2.04,1.46,3.29v1.99c0,.42-.34.75-.75.75Z"/>
    <path class="cls-1" d="M48.7,53.6h-16.95c-1.45,0-2.64-1.18-2.64-2.64v-21.1c0-1.45,1.18-2.64,2.64-2.64h16.95c1.45,0,2.64,1.18,2.64,2.64v21.1c0,1.45-1.18,2.64-2.64,2.64ZM31.75,28.73c-.62,0-1.13.51-1.13,1.13v21.1c0,.62.51,1.13,1.13,1.13h16.95c.62,0,1.13-.51,1.13-1.13v-21.1c0-.62-.51-1.13-1.13-1.13h-16.95Z"/>
    <path class="cls-1" d="M37.4,50.58h-4.52c-.42,0-.75-.34-.75-.75s.34-.75.75-.75h4.52c.42,0,.75.34.75.75s-.34.75-.75.75ZM50.58,47.19h-20.34c-.42,0-.75-.34-.75-.75s.34-.75.75-.75h20.34c.42,0,.75.34.75.75s-.34.75-.75.75ZM37.4,44.18h-4.52c-.42,0-.75-.34-.75-.75s.34-.75.75-.75h4.52c.42,0,.75.34.75.75s-.34.75-.75.75ZM50.58,41.17h-20.34c-.42,0-.75-.34-.75-.75s.34-.75.75-.75h20.34c.42,0,.75.34.75.75s-.34.75-.75.75ZM37.4,38.15h-4.52c-.42,0-.75-.34-.75-.75s.34-.75.75-.75h4.52c.42,0,.75.34.75.75s-.34.75-.75.75ZM50.58,35.14h-20.34c-.42,0-.75-.34-.75-.75s.34-.75.75-.75h20.34c.42,0,.75.34.75.75s-.34.75-.75.75ZM37.4,32.13h-4.52c-.42,0-.75-.34-.75-.75s.34-.75.75-.75h4.52c.42,0,.75.34.75.75s-.34.75-.75.75Z"/>
    <circle class="cls-1" cx="47.19" cy="31.37" r=".75"/>
    <circle class="cls-1" cx="47.19" cy="37.4" r=".75"/>
    <circle class="cls-1" cx="47.19" cy="43.43" r=".75"/>
    <circle class="cls-1" cx="47.19" cy="49.83" r=".75"/>
    <circle class="cls-1" cx="44.93" cy="31.37" r=".75"/>
    <circle class="cls-1" cx="44.93" cy="37.4" r=".75"/>
    <circle class="cls-1" cx="44.93" cy="43.43" r=".75"/>
    <circle class="cls-1" cx="44.93" cy="49.83" r=".75"/>
    <circle class="cls-1" cx="42.67" cy="31.37" r=".75"/>
    <circle class="cls-1" cx="42.67" cy="37.4" r=".75"/>
    <circle class="cls-1" cx="42.67" cy="43.43" r=".75"/>
    <circle class="cls-1" cx="42.67" cy="49.83" r=".75"/>
    <path class="cls-1" d="M25.34,53.6h-9.42c-1.25,0-2.26-1.01-2.26-2.26v-10.19c0-.86.33-1.69.92-2.32l.35-.37,1.64-1.6c.64-.62,1.48-.96,2.37-.96h6.41c1.25,0,2.26,1.01,2.26,2.26v13.18c0,1.25-1.01,2.26-2.26,2.26ZM18.93,37.4c-.49,0-.96.19-1.32.53l-1.61,1.57-.32.35c-.33.35-.51.81-.51,1.29v10.19c0,.42.34.75.75.75h9.42c.42,0,.75-.34.75-.75v-13.18c0-.42-.34-.75-.75-.75h-6.41Z"/>
    <path class="cls-1" d="M16.68,41.17h-2.26v-1.51h2.26c.21,0,.38-.17.38-.38v-1.88h1.51v1.88c0,1.04-.85,1.88-1.88,1.88Z"/>
    <path class="cls-1" d="M23.84,50.96h-6.78c-.42,0-.75-.34-.75-.75s.34-.75.75-.75h6.78c.42,0,.75.34.75.75s-.34.75-.75.75ZM23.84,48.7h-6.78c-.42,0-.75-.34-.75-.75s.34-.75.75-.75h6.78c.42,0,.75.34.75.75s-.34.75-.75.75ZM23.84,46.44h-6.78c-.42,0-.75-.34-.75-.75s.34-.75.75-.75h6.78c.42,0,.75.34.75.75s-.34.75-.75.75ZM23.84,44.18h-6.78c-.42,0-.75-.34-.75-.75s.34-.75.75-.75h6.78c.42,0,.75.34.75.75s-.34.75-.75.75ZM23.84,41.92h-4.14c-.42,0-.75-.34-.75-.75s.34-.75.75-.75h4.14c.42,0,.75.34.75.75s-.34.75-.75.75Z"/>
  </g>
</svg>