<?xml version="1.0" encoding="UTF-8"?>
<svg id="Layer_1" data-name="Layer 1" xmlns="http://www.w3.org/2000/svg" viewBox="0 0 65 65">
  <defs>
    <style>
      .cls-1 {
        fill: #f86b71;
      }

      .cls-2 {
        fill: #fff5f5;
      }
    </style>
  </defs>
  <rect class="cls-2" y="0" width="65" height="65" rx="5.31" ry="5.31"/>
  <g>
    <path class="cls-1" d="M32.15,54.03l-11.68-7.37c-.23-.18-.46-.46-.51-.75-.16-1.02.42-1.24,1.13-1.72.75-.51,2.34-1.62,3.1-1.95,1.46-.62,2.52,1.15,1.31,2.15-.15.13-2.01,1.2-1.93,1.31l8.94,5.53,8.89-5.54c.08-.12-1.81-1.2-1.97-1.35-1.14-.99-.1-2.76,1.41-2.08.55.25,3.46,2.08,3.85,2.46.52.53.45,1.44-.13,1.89l-11.73,7.4h-.67Z"/>
    <path class="cls-1" d="M33.38,46.85c-.58.47-1.21.47-1.79,0-1.68-2.33-3.27-4.72-4.92-7.06-2.68-3.79-6.2-7.79-7.26-12.42-3.23-14.14,14.92-22.33,23.76-11.23,4.68,5.88,2.89,12.48-.9,18.18-2.81,4.22-6.1,8.25-8.88,12.52ZM32.57,43.68c1.22-1.81,2.45-3.63,3.72-5.41,3.98-5.59,9.9-11.98,5.77-19.26-4.16-7.33-14.98-7.33-19.14,0s1.79,13.67,5.77,19.26c1.26,1.77,2.46,3.58,3.71,5.36l.17.05Z"/>
    <path class="cls-1" d="M32.22,17.47c5.48-.22,9.13,5.75,6.42,10.54-2.7,4.78-9.68,4.74-12.34-.05-2.54-4.6.7-10.28,5.91-10.49ZM32.39,19.99c-6.09.13-5.77,9.66.64,9.06,5.51-.51,5.15-9.18-.64-9.06Z"/>
  </g>
</svg>