<?xml version="1.0" encoding="UTF-8"?>
<svg id="Layer_1" data-name="Layer 1" xmlns="http://www.w3.org/2000/svg" viewBox="0 0 65 65">
  <defs>
    <style>
      .cls-1 {
        font-family: Poppins-Bold, Poppins;
        font-size: 9.37px;
        font-weight: 700;
      }

      .cls-1, .cls-2 {
        fill: #f86b71;
      }

      .cls-3 {
        fill: #fff5f5;
      }
    </style>
  </defs>
  <rect class="cls-3" x="0" y="0" width="65" height="65" rx="5.31" ry="5.31"/>
  <g>
    <path class="cls-2" d="M33.15,53.27h-1.31c-.22,0-.43-.04-.63-.13-.2-.08-19.54-8.41-17.45-32.36.05-.6.42-1.12.97-1.36l17.1-7.56c.42-.19.91-.19,1.33,0l17.1,7.56c.55.24.92.76.97,1.36,2.09,23.94-17.25,32.27-17.45,32.36-.2.08-.41.13-.63.13ZM32.19,49.98h.61c2.29-1.06,16.46-8.44,15.23-27.94l-15.53-6.87-15.53,6.87c-1.23,19.5,12.94,26.88,15.23,27.94Z"/>
    <circle class="cls-2" cx="41.99" cy="42.03" r="6.98" transform="translate(-8.45 10.64) rotate(-13.14)"/>
    <polygon class="cls-3" points="40.14 47.57 36.75 41.72 38.26 40.84 40.35 44.46 45.79 37.5 47.16 38.57 40.14 47.57"/>
    <text class="cls-1" transform="translate(20 32.09)"><tspan x="0" y="0">DDoS</tspan></text>
  </g>
</svg>