<?xml version="1.0" encoding="UTF-8"?>
<svg id="Layer_1" data-name="Layer 1" xmlns="http://www.w3.org/2000/svg" viewBox="0 0 65 65">
  <defs>
    <style>
      .cls-1 {
        fill: #f86b71;
      }

      .cls-2 {
        fill: #fff5f5;
      }
    </style>
  </defs>
  <rect class="cls-2" y="0" width="65" height="65" rx="5.31" ry="5.31"/>
  <g>
    <path class="cls-1" d="M31.11,52.22c-.52,0-1.07-.04-1.66-.13-.84-.12-1.74-.41-2.68-.88-.83-.41-1.68-.96-2.52-1.61-.76-.59-1.51-1.28-2.16-1.98-.64-.69-1.18-1.39-1.59-2.04-.81-1.32-1.29-2.61-1.51-4.06-.2-1.31-.17-2.62-.15-4.14.02-1.19.05-2.55-.04-4.1,0,0,0-.02,0-.03,0,0-.02-.91-.22-2.18-.18-1.17-.56-2.89-1.33-4.51-.2-.42-.24-.89-.12-1.34.13-.46.42-.84.82-1.08.94-.56,2.36-1.14,3.77-.72,1.05.31,1.91,1.12,2.54,2.4.97,1.98,1.59,3.95,1.93,5.25.11.43.21.82.28,1.15l2.66-2.81s0,0,.01-.01l12.2-12.2c.56-.56,1.31-.9,2.11-.96.82-.05,1.61.21,2.2.75.32.29.57.63.74,1.02.17.37.26.77.27,1.18.01.41-.06.81-.21,1.19-.15.4-.39.75-.69,1.05l-5.07,5.07c.22.04.45.1.66.18.38.15.72.38,1.01.67s.52.63.67,1.01c.15.37.22.75.22,1.15,0,.35-.06.69-.17,1.01.36.01.71.09,1.05.22.38.15.72.38,1.01.67.29.29.52.63.67,1.01.15.37.22.75.22,1.15s-.08.78-.22,1.15c-.12.29-.28.56-.47.8.23.04.46.1.68.19.38.15.72.38,1.01.67.29.29.52.63.67,1.01.15.37.22.75.22,1.15s-.08.78-.22,1.15c-.15.38-.38.72-.67,1.01l-1.8,1.8c-2.05,2.21-3.78,3.94-5.28,5.28-1.5,1.34-2.82,2.34-4.01,3.03-1.16.67-2.26,1.09-3.35,1.28-.48.08-.96.12-1.48.12ZM20.08,33.22c.09,1.59.06,2.97.04,4.18-.06,2.99-.09,4.97,1.47,7.51,1.35,2.2,4.9,5.48,8.04,5.92,1.81.25,3.47.16,5.68-1.12,2.25-1.3,5.03-3.8,9.01-8.08,0,0,.01-.01.02-.02l1.81-1.81c.7-.7.7-1.83,0-2.52s-1.83-.7-2.52,0l-1.81,1.81c-.25.25-.65.25-.9,0-.25-.25-.25-.65,0-.9l1.81-1.81s0,0,0,0l1.54-1.54c.34-.34.52-.78.52-1.26s-.18-.93-.52-1.26c-.34-.34-.78-.52-1.26-.52s-.93.18-1.26.52l-3.35,3.35c-.25.25-.65.25-.9,0-.12-.12-.19-.29-.19-.45s.06-.33.19-.45l3.99-3.99c.34-.34.52-.78.52-1.26s-.18-.93-.52-1.26c-.34-.34-.78-.52-1.26-.52s-.93.18-1.26.52l-3.99,3.99c-.25.25-.65.25-.9,0-.25-.25-.25-.65,0-.9l3.99-3.99s.08-.08.12-.12c.02-.02.03-.04.05-.06l6.65-6.65c.35-.35.54-.81.52-1.31-.01-.49-.22-.95-.59-1.28-.69-.62-1.84-.55-2.55.16l-12.19,12.19-3.5,3.71c-.17.18-.42.24-.65.17-.23-.07-.4-.27-.44-.51,0,0-.14-.92-.5-2.28-.33-1.24-.91-3.11-1.84-4.99-.47-.95-1.06-1.53-1.76-1.74-.97-.29-2.03.17-2.76.6-.25.15-.35.49-.21.78.37.78.69,1.64.95,2.57.21.74.37,1.51.5,2.31.2,1.29.23,2.2.23,2.33Z"/>
    <path class="cls-1" d="M31.52,21.6c-.16,0-.33-.06-.45-.19-.25-.25-.25-.65,0-.9l4.12-4.12c.25-.25.65-.25.9,0,.25.25.25.65,0,.9l-4.12,4.12c-.12.12-.29.19-.45.19Z"/>
    <path class="cls-1" d="M25.78,21.6c-.16,0-.33-.06-.45-.19l-4.12-4.12c-.25-.25-.25-.65,0-.9.25-.25.65-.25.9,0l4.12,4.12c.25.25.25.65,0,.9-.12.12-.29.19-.45.19Z"/>
    <path class="cls-1" d="M28.65,18.5c-.35,0-.64-.29-.64-.64v-4.45c0-.35.29-.64.64-.64s.64.29.64.64v4.45c0,.35-.29.64-.64.64Z"/>
  </g>
</svg>