<?xml version="1.0" encoding="UTF-8"?>
<svg id="Layer_1" data-name="Layer 1" xmlns="http://www.w3.org/2000/svg" viewBox="0 0 65 65">
  <defs>
    <style>
      .cls-1 {
        fill: #f86b71;
      }

      .cls-2 {
        fill: #fff5f5;
      }
    </style>
  </defs>
  <rect class="cls-2" x="0" y="0" width="65" height="65" rx="5.31" ry="5.31"/>
  <g>
    <path class="cls-1" d="M13.76,47.95c-.49-.5-.66-1.48-.72-2.16-.71-8.4.56-17.78,0-26.29.07-1.31.65-2.39,1.97-2.73,11.73-.21,23.6-.32,35.32.06.99.38,1.59,1.17,1.6,2.24-.65,8.71.82,18.58,0,27.15-.17,1.8-1.2,2.32-2.89,2.45-10.71.85-22.51-.66-33.33,0-.61,0-1.52-.29-1.95-.72ZM50.21,23.25v-4.38l-.32-.32H15.29l-.32.32v4.38h35.24ZM50.21,24.95H14.97v21.46s.33.38.43.42h34.38c.1-.05.43-.39.43-.42v-21.46Z"/>
    <path class="cls-1" d="M38.3,41.13c-.14-.13-.24-.47-.21-.66.13-.97,3.73-3.32,4.43-4.31-.91-.94-3.7-2.64-4.24-3.66-.34-.63-.35-.98.34-1.32.19-.06.39-.07.58-.04.4.06,4.06,3.21,4.61,3.74.36.35,1.07.95,1.02,1.46-.07.75-4.61,4.01-5.3,4.95-.33.19-.96.09-1.22-.16Z"/>
    <path class="cls-1" d="M26.69,31.18c.09.06.26.75.25.93-.09.89-3.65,3.11-4.27,4.08-.09.39,3.59,2.96,3.99,3.68.71,1.3-.26,1.95-1.42,1.21-.86-.55-3.21-2.79-4.07-3.62-.66-.64-1.28-1.09-.52-2.02.39-.47,4.04-3.61,4.59-3.95.35-.22,1.1-.53,1.46-.3Z"/>
    <path class="cls-1" d="M33.69,31.18c.52-.18,1.12.03,1.33.55l-3.73,9.23c-.67,1.14-1.97.74-1.66-.57.7-1.13,3.4-8.98,4.06-9.21Z"/>
    <path class="cls-1" d="M32.32,21.49c-.13-.12-.17-.34-.21-.51.05-.8.6-1.06,1.33-1.15,4.01-.48,8.93.37,13.04,0,.59-.02.94.44,1.09.97-.16.7-.66.89-1.31.97-2.91.35-9.83.26-12.83,0-.34-.03-.86-.03-1.11-.27Z"/>
    <path class="cls-1" d="M18.54,19.87c2.13-.43,2.33,2.22-.03,1.87-1.48-.22-1.17-1.63.03-1.87Z"/>
    <path class="cls-1" d="M21.86,21.49c-.17-.17-.3-.63-.24-.87.61-1.04,2.13-1.12,2.65.05.09,1.18-1.81,1.42-2.41.82Z"/>
  </g>
</svg>