<?xml version="1.0" encoding="UTF-8"?>
<svg id="Layer_1" data-name="Layer 1" xmlns="http://www.w3.org/2000/svg" viewBox="0 0 65 65">
  <defs>
    <style>
      .cls-1 {
        fill: #f86b71;
      }

      .cls-2 {
        fill: #fff5f5;
      }
    </style>
  </defs>
  <rect class="cls-2" y="0" width="65" height="65" rx="5.31" ry="5.31"/>
  <g>
    <path class="cls-1" d="M29.85,26.87c6.91-.58,14.41,1.49,19.45,6.38.79.77,1.73,1.7.75,2.81-1.34,1.5-3.05-.86-4.13-1.66-8-5.98-18.46-6.33-26.55-.27-1.15.86-3.06,3.47-4.42,1.93-.98-1.1-.05-2.03.75-2.81,3.44-3.34,9.38-5.98,14.15-6.38Z"/>
    <path class="cls-1" d="M31.52,32.09c9.08-1.26,9.02,12.82.34,11.88-7.02-.77-6.9-10.97-.34-11.88ZM32.08,35.07c-4.5.73-2.42,7.61,1.8,5.53,3.06-1.5,1.41-6.05-1.8-5.53Z"/>
    <path class="cls-1" d="M44.96,42.53c1.37-.27,2.36,1.26,1.46,2.4-.95,1.2-5.45,3-7.01,3.44-3.07.87-9.04,1.55-12.03.46-.98-.36-1.3-1.24-.89-2.19.61-1.43,2.87-.47,4.05-.41,3.63.17,7.01-.21,10.36-1.6,1.06-.44,3.25-1.95,4.06-2.11Z"/>
    <path class="cls-1" d="M21.81,16.96c.49-.05.93.19,1.27.51.32.3,3.14,4.51,3.3,4.91.65,1.69-1.12,2.89-2.38,1.82-.24-.21-3.17-4.56-3.3-4.91-.39-1-.08-2.22,1.11-2.34Z"/>
    <path class="cls-1" d="M42.9,16.96c1.34-.13,1.83,1.21,1.4,2.34-.13.35-3.06,4.7-3.3,4.91-1.25,1.07-3.03-.13-2.38-1.82.18-.45,2.84-4.42,3.21-4.81.3-.31.62-.57,1.07-.61Z"/>
    <path class="cls-1" d="M32.08,15.65c.68-.15,1.49.08,1.78.76.22.51.25,4.77.13,5.45-.3,1.66-2.73,1.69-2.99-.17-.11-.8-.12-4.1.02-4.85.09-.47.58-1.08,1.06-1.19Z"/>
    <path class="cls-1" d="M23.49,44.41c.93.94.3,2.64-1.16,2.58-.53-.02-2.92-1.3-3.37-1.69-1.22-1.08-.47-2.87,1.06-2.7.32.04,3.25,1.6,3.47,1.82Z"/>
  </g>
</svg>