<?xml version="1.0" encoding="UTF-8"?>
<svg id="Layer_1" data-name="Layer 1" xmlns="http://www.w3.org/2000/svg" viewBox="0 0 65 65">
  <defs>
    <style>
      .cls-1 {
        fill: #f86b71;
      }

      .cls-2 {
        fill: #fff5f5;
      }
    </style>
  </defs>
  <rect class="cls-2" x="0" y=".26" width="65" height="65" rx="5.31" ry="5.31"/>
  <g>
    <path class="cls-1" d="M49.92,13.51c.83.25,1.46.86,1.56,1.74l-.03,12.57c-.18.78-.82,1.41-1.63,1.48-.65.06-2.65.09-3.23-.04-.65-.14-1.08-.67-1.37-1.23h-1.52c1.55,4.01.89,8.69-1.85,12.01,1.3-.27,2.48-1.21,3.74-.22,1.08.85,1.12,2.38.11,3.29l-11.17,6.77-1.46.32h-13.2c-.18.03-.42.58-.63.77-.19.17-.63.4-.88.45-.58.11-3.03.1-3.56-.08-.65-.22-1.06-.81-1.26-1.44v-12.75c.26-.77.8-1.41,1.66-1.49.65-.06,2.65-.09,3.23.04.65.14,1.08.67,1.37,1.23h1.52c-1.32-3.47-1.06-7.29.8-10.5l.98-1.51c-1.44.5-3.31,1.33-4.25-.45-.74-1.38.04-2.33,1.15-3.06,3.22-2.12,6.68-3.91,9.9-6.03.61-.34,1.29-.54,1.98-.61h13.27c.19-.03.4-.56.59-.74.26-.24.62-.36.93-.52h3.26ZM46.93,14.78c-.26.05-.51.25-.5.54l.02,12.29c.06.23.24.38.47.42.39.06,2.52.07,2.87-.01.27-.06.39-.36.43-.61l-.02-12.14c-.08-.24-.29-.45-.54-.49-.41-.06-2.34-.06-2.72.01ZM45.18,16.03h-13.38c-.25,0-.88.24-1.13.36l-10.46,6.37c-.77.61-.21,1.73.73,1.54l11.47-3.8c2.11-.25,4.98.45,6.91-.5.47-.23.95-.86,1.48-.52,1,.65-.59,1.51-1.13,1.75-2.08.9-4.67.35-6.89.5-.78,1.06.52,2.34,1.56,2.51,1.64.26,3.34-.3,5.02.31,1.25.45,3.07,2.23,4.3,2.23h1.52v-10.75ZM33.76,42.78l5.24-1.76c3.87-2.8,5.39-8.44,3.37-12.81-.36-.79-.47-.61-1.12-1.03-1.1-.71-1.99-1.56-3.38-1.66-1.5-.11-3.39.31-4.76-.35-1.13-.54-1.89-1.72-1.91-2.98l-5.2,1.76c-4.1,2.95-5.49,8.93-3.06,13.39,1.21.55,2.25,1.7,3.55,2.01,1.69.4,3.82-.3,5.39.47,1.12.55,1.92,1.71,1.88,2.98ZM15.21,36.94c-.27.06-.39.36-.43.61l.02,12.14c.08.24.29.45.54.49.41.06,2.34.06,2.72-.01.26-.05.51-.25.5-.54l-.02-12.29c-.06-.23-.24-.38-.47-.42-.39-.06-2.52-.07-2.87.01ZM21.34,38.19c-.47-.06-1.04.04-1.52,0v10.75h13.38c.25,0,.88-.24,1.13-.36l10.46-6.37c.76-.59.21-1.74-.73-1.54-3.59,1.02-7.19,2.64-10.76,3.62-2.34.64-5.46-.39-7.62.68-.46.23-1.22,1.05-1.66.33s.76-1.32,1.31-1.56c2.09-.91,4.67-.35,6.89-.5.78-1.06-.52-2.34-1.56-2.51-1.64-.26-3.34.3-5.02-.31-1.47-.53-2.7-2.04-4.3-2.23Z"/>
    <path class="cls-1" d="M33.17,28.78v3.11c4.11.53,4.13,5.02.03,5.63-.04.4,0,1.16-.52,1.26-1.07.21-.74-1.17-.92-1.3-1.3-.14-3-1.15-3.05-2.59-.02-.46.22-.93.75-.82.57.11.44.64.6,1.04.23.57,1.17,1.06,1.77,1.08v-3.11c-4.12-.54-4.13-5.02-.03-5.63.04-.4,0-1.16.52-1.26,1.07-.21.74,1.18.92,1.3,1.3.12,3,1.16,3.05,2.59.02.46-.22.93-.75.82-.57-.11-.44-.64-.6-1.04-.23-.57-1.17-1.06-1.77-1.08ZM31.83,28.78c-2.43.34-2.44,2.65,0,2.97v-2.97ZM33.17,36.19c2.42-.33,2.45-2.67,0-2.97v2.97Z"/>
    <path class="cls-1" d="M40.49,28.42c.83-.18,1.12,1.28,1.26,1.9,1.01,4.46-1.44,9.57-5.89,11.04-.35.12-.71.3-1.02-.06-.76-.89,1.11-1.32,1.64-1.62,3.14-1.73,4.77-5.33,4.08-8.85-.12-.6-.96-2.22-.07-2.42Z"/>
    <path class="cls-1" d="M29.59,23.45c.53-.06.93.53.61.99-.19.27-1.28.62-1.68.84-3.44,1.89-4.89,5.74-3.92,9.5.12.47.69,1.43.02,1.72-.79.34-1.02-.67-1.19-1.22-1.12-3.66.03-7.55,2.91-10.03.63-.54,2.46-1.72,3.25-1.8Z"/>
  </g>
</svg>