<?xml version="1.0" encoding="UTF-8"?>
<svg id="Layer_1" data-name="Layer 1" xmlns="http://www.w3.org/2000/svg" viewBox="0 0 65 65">
  <defs>
    <style>
      .cls-1 {
        fill: #f86b71;
      }

      .cls-2 {
        fill: #fff5f5;
      }
    </style>
  </defs>
  <rect class="cls-2" x="0" width="65" height="65" rx="5.31" ry="5.31"/>
  <g>
    <path class="cls-1" d="M41.06,12.16c1.28.28,2.21,1.18,2.51,2.46h6.34c1.49.07,2.7,1.19,2.88,2.66v24.17c-.31,3.52-3.91,2.91-6.5,2.85-.63-.15-.66-1.08.2-1.15,1.73-.16,4.63.75,5.11-1.55v-24.17c.01-.68-.88-1.62-1.54-1.62h-6.46v1.19h6.07c.22,0,.67.39.7.65v23.67c-.1.31-.28.49-.59.59H15.22c-.31-.1-.48-.29-.61-.58v-23.71c.06-.24.49-.63.72-.63h6.07v-1.19h-6.46c-.68,0-1.59.99-1.55,1.7v23.95c.09,1,.81,1.62,1.78,1.7l28.75.04c.56.23.3,1.15-.12,1.15h-7.18v2.85c1.47.07,2.78.91,3.29,2.3.21.57.31,1.98.18,2.56-.1.46-.62.66-1.05.69-4.26.3-8.87-.23-13.17,0-1.21-.05-1.06-1.46-.99-2.34.13-1.81,1.71-3.15,3.49-3.21v-2.85h-13.52c-.13,0-.8-.23-.97-.3-.88-.39-1.48-1.32-1.69-2.23v-24.65c.33-1.45,1.39-2.42,2.89-2.54h6.34c.23-1.15,1.31-2.3,2.51-2.45h17.13ZM42.41,40.77V14.89c0-.66-.94-1.55-1.63-1.55l-16.71.02c-.79.17-1.33.75-1.47,1.55l-.04,5.67c-.18.62-1.17.34-1.17-.06v-2.34h-5.63v22.59h5.63v-17.72c0-.66,1.19-.6,1.19-.08v17.8h19.83ZM49.23,18.18h-5.63v22.59h5.63v-22.59ZM35.43,44.34h-5.87v2.85h5.87v-2.85ZM38.92,51.56v-1.31c0-.13-.32-.77-.43-.91-.49-.64-1.2-.89-1.98-.95-2.21-.17-5.71-.14-7.94,0-.84.05-1.63.32-2.13,1.04-.09.13-.36.7-.36.83v1.31h12.85Z"/>
    <path class="cls-1" d="M31.77,15.75c6.24-.56,10.5,6.19,7.22,11.57-2.81,4.61-9.41,4.85-12.63.52-3.51-4.72-.41-11.58,5.41-12.1ZM31.85,16.94c-4.91.47-7.45,6.2-4.54,10.2,2.7,3.7,8.4,3.42,10.72-.52,2.67-4.55-.96-10.17-6.19-9.67Z"/>
    <path class="cls-1" d="M25.5,33.66l13.86-.02c.81.09.78,1.11,0,1.19h-13.72c-.71-.07-.82-.94-.14-1.17Z"/>
    <path class="cls-1" d="M25.5,37.22l13.86-.02c.81.09.78,1.11,0,1.19h-13.72c-.71-.07-.82-.94-.14-1.17Z"/>
    <path class="cls-1" d="M35.26,19.63c1.58-.03,2.34,1.74,1.37,2.95-.73.91-3.1,3.3-4.01,4-1.59,1.22-3.27-.28-4.24-1.55-1.09-1.42-.07-3.21,1.7-2.96.56.08.83.5,1.26.78l2.87-2.85c.28-.21.7-.37,1.05-.37ZM35.31,20.83c-.15,0-.35.11-.48.2l-3.15,3.11c-1.01.41-1.21-.85-1.92-.9-.45-.03-.8.35-.61.78.06.14,1.49,1.57,1.66,1.67.34.2.6.18.96.03l4.02-3.98c.32-.34-.07-.91-.47-.91Z"/>
  </g>
</svg>