<?xml version="1.0" encoding="UTF-8"?>
<svg id="Layer_1" data-name="Layer 1" xmlns="http://www.w3.org/2000/svg" viewBox="0 0 65 65">
  <defs>
    <style>
      .cls-1 {
        fill: #f86b71;
      }

      .cls-2 {
        fill: #fff5f5;
      }
    </style>
  </defs>
  <rect class="cls-2" x="0" y="0" width="65" height="65" rx="5.31" ry="5.31"/>
  <g>
    <path class="cls-1" d="M16.84,45.69h14.84v3.3h-6.6v1.65h14.84v-1.65h-6.6v-3.3h14.84c1.36,0,2.47-1.11,2.47-2.47v-6.6c0-.64-.25-1.21-.64-1.65.4-.44.64-1.01.64-1.65v-6.6c0-.64-.25-1.21-.64-1.65.4-.44.64-1.01.64-1.65v-6.6c0-1.36-1.11-2.47-2.47-2.47h-31.33c-1.36,0-2.47,1.11-2.47,2.47v6.6c0,.64.25,1.21.64,1.65-.41.45-.64,1.04-.64,1.65v6.6c0,.64.25,1.21.64,1.65-.41.45-.64,1.04-.64,1.65v6.6c0,1.36,1.11,2.47,2.47,2.47ZM48.99,43.22c0,.45-.37.82-.82.82h-31.33c-.46,0-.82-.37-.82-.82v-6.6c0-.45.37-.82.82-.82h31.33c.46,0,.82.37.82.82v6.6ZM16.01,33.32v-6.6c0-.45.37-.82.82-.82h31.33c.46,0,.82.37.82.82v6.6c0,.45-.37.82-.82.82h-31.33c-.46,0-.82-.37-.82-.82ZM16.01,16.84c0-.45.37-.82.82-.82h31.33c.46,0,.82.37.82.82v6.6c0,.45-.37.82-.82.82h-31.33c-.46,0-.82-.37-.82-.82v-6.6Z"/>
    <path class="cls-1" d="M17.66,19.31h2.47v1.65h-2.47v-1.65ZM21.78,19.31h2.47v1.65h-2.47v-1.65ZM29.2,19.31h18.14v1.65h-18.14v-1.65ZM17.66,29.2h2.47v1.65h-2.47v-1.65ZM21.78,29.2h2.47v1.65h-2.47v-1.65ZM29.2,29.2h18.14v1.65h-18.14v-1.65ZM17.66,39.1h2.47v1.65h-2.47v-1.65ZM21.78,39.1h2.47v1.65h-2.47v-1.65ZM29.2,39.1h18.14v1.65h-18.14v-1.65Z"/>
  </g>
</svg>