<?xml version="1.0" encoding="UTF-8"?>
<svg id="Layer_1" data-name="Layer 1" xmlns="http://www.w3.org/2000/svg" viewBox="0 0 65 65">
  <defs>
    <style>
      .cls-1 {
        fill: #f86b71;
      }

      .cls-2 {
        fill: #fff5f5;
      }
    </style>
  </defs>
  <rect class="cls-2" x="0" width="65" height="65" rx="5.31" ry="5.31"/>
  <g>
    <path class="cls-1" d="M45.92,39.24l1.32,2.44c1.93,4.26,1.89,9.39-.16,13.61-.31.64-.74,1.79-1.61,1.38l-4.82-2.79c-.74-.63.12-1.53.39-2.24,1.77-4.58-.38-9.8-4.86-11.74-7.47-3.25-15.15,4.14-12.22,11.74.3.79,1.16,1.6.33,2.28-1.21,1.01-3.46,1.74-4.76,2.76-.87.39-1.27-.68-1.58-1.32-2.07-4.22-2.14-9.39-.19-13.67l1.32-2.44c-3.08-.29-6.01-2.33-7.53-4.98-3.45-6.02-.12-13.57,6.57-15.11.56-10.4,13.43-14.74,20.24-6.85.46-.16.9-.38,1.38-.49,4.75-1.11,8.83,2.8,8.01,7.55,3.46,1.2,6.18,4.14,6.88,7.78,1.1,5.79-2.86,11.41-8.72,12.1ZM28.68,9.78c-5.08.42-8.42,4.38-9.02,9.25-.07.56.21,1.13-.48,1.43-.72.31-1.66.39-2.47.76-6.04,2.8-6.76,11.26-1.27,15.06,1,.69,3.44,1.77,4.64,1.54.29-.06,1.41-1.36,1.76-1.66,6.07-5.32,15.24-5.32,21.31,0,.35.3,1.47,1.61,1.76,1.66,1.18.23,3.6-.82,4.59-1.5,5.35-3.65,4.97-11.84-.77-14.88-.72-.38-1.68-.54-2.28-.86-.72-.39-.12-1.68-.11-2.42.05-3.57-3.61-6.01-6.91-4.64-.45.19-.99.7-1.45.6-.33-.07-1.68-1.7-2.12-2.07-1.95-1.64-4.65-2.47-7.2-2.26ZM31.74,33.72c-2.06,0-4.05.67-5.9,1.52l2,3.38c1.26-.5,2.54-.91,3.9-1v-3.9ZM33.26,33.72v3.9c1.37.09,2.64.51,3.9,1l2-3.38c-1.85-.86-3.84-1.5-5.9-1.52ZM26.5,39.52l-1.82-3.26c-.05-.09-.09-.16-.21-.15-.26.03-2.06,1.55-2.35,1.84-.21.21-1.99,2.31-1.9,2.43l3.38,1.88c.89-.98,1.69-2.12,2.9-2.74ZM44.77,40.38c-1.08-1.72-2.54-3.17-4.23-4.28-.14,0-.16.07-.22.16-.67.89-1.18,2.26-1.83,3.22,1.18.69,2.02,1.78,2.91,2.78l3.38-1.88ZM21.85,47.52c.09-1.33.44-2.67,1.04-3.86l-3.36-1.94c-1.02,1.7-1.55,3.82-1.58,5.8h3.9ZM47.06,47.52c-.03-1.98-.56-4.1-1.58-5.8l-3.36,1.94c.59,1.2.94,2.52,1.03,3.85h3.9ZM21.85,49.04h-3.9c.03,2.02.58,4.13,1.57,5.9l3.34-1.99c-.53-1.24-.93-2.55-1-3.9ZM47.06,49.04h-3.9c-.07,1.36-.48,2.67-1,3.9l3.34,1.99c.98-1.77,1.55-3.87,1.57-5.9Z"/>
    <path class="cls-1" d="M35.08,47.62c.78,3.3-4.09,4.66-5.08,1.49-.83-2.65,2.3-4.54,4.34-2.75l3.42-2.01c.87-.41,1.65.53.93,1.21l-3.61,2.05ZM32.47,47.17c-1.74.05-1.17,2.8.45,2.15,1.14-.46.79-2.18-.45-2.15Z"/>
    <path class="cls-1" d="M32.47,47.17c1.24-.04,1.59,1.68.45,2.15-1.62.65-2.19-2.1-.45-2.15Z"/>
    <path class="cls-1" d="M31.06,18.62c4.52-.33,9.38,1.12,12.67,4.3.43.42.98.8.59,1.45-.6,1-1.53-.27-1.97-.64-5.94-4.87-13.74-4.88-19.69,0-.43.36-1.33,1.58-1.94.7-.56-.81.69-1.65,1.28-2.13,2.53-2.06,5.78-3.45,9.06-3.68Z"/>
    <path class="cls-1" d="M31.72,22.81c2.45-.15,4.98.46,7.09,1.7.55.32,2.35,1.57,2.56,2.1.26.63-.22,1.28-.88,1.08-.3-.09-1.73-1.43-2.25-1.75-3.58-2.22-8.26-2.17-11.76.19-.46.31-1.81,1.61-2.2,1.6-.49-.02-.78-.42-.72-.89.07-.54,1.66-1.72,2.16-2.04,1.77-1.14,3.9-1.86,6-1.99Z"/>
    <path class="cls-1" d="M32.47,27c1.75,0,3.76.65,5.12,1.77.46.38,1.18.97.76,1.61-.58.88-1.52-.3-2.01-.64-2.27-1.58-5.25-1.6-7.56-.08-.58.38-1.2,1.33-1.93.91-1.18-.68.92-2.08,1.47-2.41,1.25-.74,2.68-1.15,4.15-1.16Z"/>
  </g>
</svg>