<?xml version="1.0" encoding="UTF-8"?>
<svg id="Layer_1" data-name="Layer 1" xmlns="http://www.w3.org/2000/svg" viewBox="0 0 65 65">
  <defs>
    <style>
      .cls-1 {
        fill: #f86b71;
      }

      .cls-2 {
        fill: #fff5f5;
      }
    </style>
  </defs>
  <rect class="cls-2" y="0" width="65" height="65" rx="5.31" ry="5.31"/>
  <g>
    <path class="cls-1" d="M31.01,15.07c.13.01.27.03.4.05v5.48c-.09.2-2.14.21-4.19,1.03-1.16.47-2.74,1.5-3.69,2.34-1.3-1.3-2.61-2.61-3.92-3.91,1.16-1.2,3.3-2.59,4.82-3.28,1.47-.67,5.05-1.73,6.57-1.71"/>
    <path class="cls-1" d="M33.53,15.07c5.66.36,10.77,3.08,14.27,7.5-4.44,5.42-8.88,10.84-13.32,16.26-2.59,2.83-6.04-.57-4.23-3.05.63-.87,11.17-8.32,13.05-9.88-1.14-1.37-2.52-2.68-4.1-3.55-3.09-1.7-5.59-1.48-5.72-1.75.02-1.84.03-3.68.05-5.53"/>
    <path class="cls-1" d="M18.04,21.54c1.34,1.3,2.67,2.61,4.01,3.91-1.89,2.19-3.08,4.96-3.29,7.86h-5.58c.16-4.36,1.97-8.55,4.86-11.77"/>
    <path class="cls-1" d="M49.01,24.41c3.77,5.88,3.68,13.86.13,19.81-.44.74-1.46,2.5-2.39,2.38-.27-.04-3.36-2.58-3.47-2.83-.42-.95.93-1.95,1.71-3.68,1.59-3.53,1.54-7.45.18-11.05l3.83-4.63Z"/>
    <path class="cls-1" d="M13.18,35.38h5.49c.27.12.02,2.36,1.67,5.53.68,1.31,2.06,2.07.86,3.37-.9.75-1.8,1.5-2.7,2.25-.7.27-1.05-.03-1.49-.49-1.9-2.01-3.94-7.76-3.83-10.65"/>
    <path class="cls-1" d="M28.31,43.73h8.28c.87.21.97,1.85-.18,2.07h-7.92c-1.03-.21-1.04-1.85-.18-2.07"/>
    <path class="cls-1" d="M22.9,47.87h19.09c.94.2,1.02,1.73-.09,2.07h-18.91c-.99-.21-1.02-1.74-.09-2.07"/>
  </g>
</svg>