<?xml version="1.0" encoding="UTF-8"?>
<svg id="Layer_1" data-name="Layer 1" xmlns="http://www.w3.org/2000/svg" viewBox="0 0 65 65">
  <defs>
    <style>
      .cls-1 {
        fill: #f86b71;
      }

      .cls-2 {
        fill: #fff5f5;
      }
    </style>
  </defs>
  <rect class="cls-2" x="0" y=".26" width="65" height="65" rx="5.31" ry="5.31"/>
  <g>
    <path class="cls-1" d="M35.66,21.6l2.46.89c.79-.36,2.23-1.71,3.09-1.47.31.09,2.79,2.64,2.83,2.97.09.86-1.29,2.18-1.52,3.06l.89,2.32c.72.31,3.06.48,3.39,1.15.23.47.2,3.74-.09,4.12l-3.3,1.02-.89,2.46c.36.79,1.71,2.23,1.47,3.09-.09.31-2.64,2.79-2.97,2.83-.86.09-2.18-1.29-3.06-1.52l-2.32.89c-.31.72-.48,3.06-1.15,3.39-.47.23-3.74.2-4.12-.09l-1.03-3.29-2.46-.89c-.79.36-2.23,1.71-3.09,1.47-.31-.09-2.79-2.64-2.83-2.97-.09-.86,1.29-2.18,1.52-3.05l-.89-2.32c-.72-.32-3.06-.48-3.39-1.16-.23-.47-.2-3.74.09-4.12l3.29-1.03.89-2.46c-.36-.79-1.71-2.23-1.47-3.09.05-.18,2.44-2.62,2.63-2.71,1.01-.47,2.42,1.14,3.39,1.4l2.32-.89c.32-.72.48-3.06,1.16-3.39.37-.18,2.92-.19,3.45-.12,1.47.2,1.2,2.38,1.7,3.51ZM31.31,19.47c-.66.23-.45,2.72-1.25,3.18l-3.2,1.24-2.64-1.54-1.82,1.76,1.42,2.59-1.39,3.63-2.91.85c-.15.22-.17,1.99-.1,2.34.2,1.01,2.7.55,3.21,1.45l1.24,3.19-1.54,2.64,1.76,1.82,2.59-1.42,3.63,1.39.85,2.91c.22.15,1.99.17,2.34.1,1.01-.2.55-2.7,1.45-3.21l3.2-1.24,2.64,1.54,1.82-1.76-1.42-2.59,1.39-3.63,2.91-.85c.15-.22.17-1.99.1-2.34-.2-1.01-2.7-.55-3.21-1.45l-1.24-3.2,1.54-2.64-1.76-1.82-2.59,1.42-3.62-1.39-.86-2.91-2.53-.07Z"/>
    <path class="cls-1" d="M22.51,45.61l.02,1.09-3.32-.56c6.66,6.93,18.23,7.31,25.59,1.21.71-.59,2.22-2.5,2.78-2.78.43-.22.67.2.86.49-6.95,9.8-22.32,10.34-30.45,1.63-.54.98.56,2.89-.21,3.56-1.34,1.18-.99-3.13-1-3.68-.02-.79-.48-1.49.02-2.29l5.71,1.32Z"/>
    <path class="cls-1" d="M47.13,18.11c.03-.75-.85-4.16.55-3.77.66.19.54,3.65.56,4.32,0,.54.62,1.84-.51,1.84-.31,0-4.99-1.17-5.21-1.33-.24-.19-.22-1,.1-1.07l3.18.57c-6.69-6.69-18.14-7.04-25.37-.99-.7.58-2.23,2.5-2.78,2.78-.43.22-.67-.18-.85-.49-.21-1.1,4.74-4.62,5.8-5.21,8.09-4.52,17.92-2.97,24.52,3.36Z"/>
    <path class="cls-1" d="M31.12,24.37c11.47-1.57,12.86,15.12,2.58,16.32-11.24,1.31-12.61-14.94-2.58-16.32ZM31.79,25.48c-8.84.85-8.02,14.27.82,14.14,9.52-.14,8.89-15.07-.82-14.14Z"/>
    <path class="cls-1" d="M32.06,32.96c-.05-.08-1.27-.64-1.65-1.12-.71-.89-.79-2.22-.02-3.11.47-.54,1.41-.62,1.57-.87.34-.51-.36-1.12.97-.88-.21,1.27.85,1.01,1.49,1.61.27.26.79,1.2.74,1.58l-1.1.34c-.11-.56-.44-1.35-1.12-1.33l.04,2.73c1.06,1.17,2.42,1.53,2.41,3.37,0,1.61-.84,2.49-2.45,2.56v1.1s-.89,0-.89,0l-.03-1.09c-1.34-.15-2.36-1.08-2.41-2.45l1.31-.22c.03.64.35,1.53,1.12,1.54v-3.77ZM32.06,31.41l-.11-2.44c-1.16.51-1,1.93.11,2.44ZM32.95,36.72c1.77-.06,1.29-2.17.11-2.88l-.11,2.88Z"/>
  </g>
</svg>