<?xml version="1.0" encoding="UTF-8"?>
<svg id="Layer_1" data-name="Layer 1" xmlns="http://www.w3.org/2000/svg" viewBox="0 0 65 65">
  <defs>
    <style>
      .cls-1 {
        fill: #f86b71;
      }

      .cls-2 {
        fill: #fff5f5;
      }
    </style>
  </defs>
  <rect class="cls-2" x="0" y="-.04" width="65" height="65" rx="5.31" ry="5.31"/>
  <g>
    <path class="cls-1" d="M14.8,17.56l35.16-.03c1.89.16,3.36,1.61,3.51,3.51v22.93c-.16,1.89-1.61,3.36-3.51,3.51H15.05c-1.89-.16-3.36-1.61-3.51-3.51v-23.02c.2-1.76,1.51-3.14,3.26-3.39ZM14.89,19.05c-.99.22-1.77,1.05-1.85,2.08v22.83c.15,1.07,1.03,1.93,2.11,2.02h34.72c1.11-.09,2.02-1,2.11-2.11v-22.74c-.09-1.11-1-2.02-2.11-2.11l-34.98.03Z"/>
    <path class="cls-1" d="M15.73,20.55l19.91-.02c1.81.26,1.81,2.74,0,2.99H15.89c-1.72-.23-1.84-2.55-.16-2.97Z"/>
    <path class="cls-1" d="M34.75,34h3.98c.38,0,.73.91.37,1.21l-7.05,7.73c-.3.21-1.03-.16-1.03-.47v-5.47h-3.98c-.38,0-.73-.91-.37-1.21l7.05-7.73c.3-.21,1.03.16,1.03.47v5.47ZM36.8,35.49h-3.04c-.11,0-.51-.4-.51-.51v-4.26l-4.3,4.77h3.04c.11,0,.51.4.51.51v4.26l4.3-4.77Z"/>
    <path class="cls-1" d="M41.18,20.55c2.11-.34,2.41,2.66.61,2.95-2.11.34-2.41-2.66-.61-2.95Z"/>
    <path class="cls-1" d="M44.92,20.55c2.11-.34,2.41,2.66.61,2.95-2.11.34-2.41-2.66-.61-2.95Z"/>
    <path class="cls-1" d="M48.66,20.55c2.11-.34,2.41,2.66.61,2.95-2.11.34-2.41-2.66-.61-2.95Z"/>
    <path class="cls-1" d="M36.8,35.49l-4.3,4.77v-4.26c0-.11-.4-.51-.51-.51h-3.04l4.3-4.77v4.26c0,.11.4.51.51.51h3.04Z"/>
  </g>
</svg>