<?xml version="1.0" encoding="UTF-8"?>
<svg id="Layer_1" data-name="Layer 1" xmlns="http://www.w3.org/2000/svg" viewBox="0 0 65 65">
  <defs>
    <style>
      .cls-1 {
        fill: #f86b71;
      }

      .cls-2 {
        fill: #fff5f5;
      }
    </style>
  </defs>
  <rect class="cls-2" x="0" y="0" width="65" height="65" rx="5.31" ry="5.31"/>
  <g>
    <path class="cls-1" d="M45.24,18.17c1.38-.09,1.93,1.27,1.2,2.39-.24.37-3.93,4.04-4.22,4.19-1.39.72-2.7-.57-1.97-1.97.16-.31,3.76-3.94,4.18-4.24.25-.18.49-.35.82-.38Z"/>
    <path class="cls-1" d="M23.15,40.07c1.34-.3,2.24.92,1.6,2.14-.15.28-3.91,4.08-4.27,4.32-1.39.93-2.95-.52-1.92-2.1.36-.55,3.35-3.52,3.93-3.96.22-.16.37-.34.66-.4Z"/>
    <path class="cls-1" d="M19.61,18.2c.37,0,.76.23,1.05.44.5.36,3.73,3.58,4.02,4.04.87,1.38-.44,2.83-1.9,2.07-.31-.16-3.96-3.81-4.22-4.19-.69-1.03-.31-2.4,1.05-2.36Z"/>
    <path class="cls-1" d="M41.04,40.07c.51-.11.83-.04,1.27.24.47.29,3.68,3.52,4.04,4.02,1.16,1.63-.32,3.16-1.92,2.1-.52-.34-3.68-3.5-4.04-4.03-.59-.85-.44-2.09.65-2.33Z"/>
    <path class="cls-1" d="M32.1,12.89c.98-.21,1.69.3,1.81,1.28s.15,5.23-.04,6.11c-.31,1.38-2.57,1.43-2.77-.31-.13-1.16-.16-4.85.01-5.96.08-.52.47-1,.99-1.12Z"/>
    <path class="cls-1" d="M13.86,31.13c.7-.16,5.72-.16,6.41,0,1.38.31,1.37,2.52-.15,2.76-.88.14-5.47.15-6.27-.03-1.34-.3-1.35-2.43,0-2.73Z"/>
    <path class="cls-1" d="M44.73,31.13c.7-.16,5.72-.16,6.41,0,1.38.31,1.37,2.52-.15,2.76-.88.14-5.47.15-6.27-.03-1.34-.3-1.35-2.43,0-2.73Z"/>
    <path class="cls-1" d="M32.1,43.76c.98-.21,1.69.3,1.81,1.28s.15,5.23-.04,6.11c-.31,1.38-2.57,1.43-2.77-.31-.13-1.16-.16-4.85.01-5.96.08-.52.47-1,.99-1.12Z"/>
    <path class="cls-1" d="M39.12,14.29c1.12-.24,1.86.48,1.77,1.59l-2.51,5.92c-.81.96-2.56.25-2.45-1.07.05-.55,1.9-5,2.27-5.6.25-.4.41-.72.92-.84Z"/>
    <path class="cls-1" d="M49.12,24.11c1.46-.11,2.26,1.53,1.09,2.51s-4.48,1.69-5.93,2.46c-1.3.11-2-1.5-1.17-2.38s4.79-1.85,6.02-2.59Z"/>
    <path class="cls-1" d="M20.83,35.91c1.24,0,1.9,1.67.96,2.46-1.68.57-4.12,2.16-5.78,2.48s-2.41-1.48-1.23-2.47c.39-.32,5.62-2.47,6.04-2.47Z"/>
    <path class="cls-1" d="M27.67,42.76c.92,0,1.51.75,1.37,1.62-.1.61-2.08,5.4-2.43,5.82-1.01,1.21-2.76.31-2.47-1.23.12-.6,2.06-5.2,2.41-5.67.31-.41.58-.55,1.11-.55Z"/>
    <path class="cls-1" d="M43.67,36.04c.47-.11.8-.03,1.25.08.72.18,4.64,1.79,5.18,2.19,1.31.95.55,2.67-.98,2.57-1.49-.86-4.7-1.49-5.92-2.52-.74-.62-.49-2.11.47-2.33Z"/>
    <path class="cls-1" d="M37.32,42.76c.51-.01.83.16,1.12.56.38.51,2.29,5.03,2.41,5.67.3,1.53-1.46,2.44-2.47,1.23-.34-.4-2.1-4.64-2.25-5.29-.26-1.06-.12-2.13,1.19-2.16Z"/>
    <path class="cls-1" d="M15.44,24.11c.4-.07.62.07.97.19.88.29,4.72,1.81,5.28,2.26,1.27,1.02.17,3.02-1.52,2.39-1.34-.88-4.25-1.39-5.38-2.34-.97-.81-.6-2.3.65-2.51Z"/>
  </g>
</svg>