<?xml version="1.0" encoding="UTF-8"?>
<svg id="Layer_1" data-name="Layer 1" xmlns="http://www.w3.org/2000/svg" viewBox="0 0 65 65">
  <defs>
    <style>
      .cls-1 {
        fill: #f86b71;
      }

      .cls-2 {
        fill: #fff5f5;
      }
    </style>
  </defs>
  <rect class="cls-2" x="0" y="0" width="65" height="65" rx="5.31" ry="5.31"/>
  <path class="cls-1" d="M32.53,14.57c-10.99-.04-19.92,8.84-19.96,19.83-.02,6.08,2.74,11.83,7.49,15.62.68.5,1.64.35,2.14-.34.46-.64.37-1.53-.23-2.05-5.6-4.46-7.77-11.98-5.39-18.74,2.38-6.76,8.77-11.27,15.94-11.26,7.17,0,13.55,4.55,15.89,11.32,2.35,6.76.16,14.27-5.45,18.71-.68.5-.83,1.46-.33,2.14.5.68,1.46.83,2.14.33.03-.02.06-.05.09-.07,8.62-6.82,10.08-19.33,3.26-27.94-3.77-4.77-9.52-7.55-15.6-7.55h0ZM32.47,22.59c-.84.01-1.52.71-1.51,1.55v14.91l-3.89-3.89c-.29-.3-.69-.46-1.1-.46-.85,0-1.53.69-1.53,1.54,0,.41.17.8.46,1.09l6.37,6.37c.51.67,1.47.8,2.15.29.11-.08.21-.18.29-.29l6.36-6.36c.61-.59.62-1.56.03-2.17s-1.56-.62-2.17-.03c-.01.01-.02.02-.03.03l-3.89,3.89v-14.91c.01-.85-.67-1.54-1.51-1.55-.01,0-.03,0-.04,0h0ZM26.67,47.37c-.85,0-1.53.69-1.53,1.53s.69,1.53,1.53,1.53h11.65c.85,0,1.53-.69,1.53-1.53s-.69-1.53-1.53-1.53c0,0-11.65,0-11.65,0Z"/>
</svg>