<?xml version="1.0" encoding="UTF-8"?>
<svg id="Layer_1" data-name="Layer 1" xmlns="http://www.w3.org/2000/svg" viewBox="0 0 65 65">
  <defs>
    <style>
      .cls-1 {
        fill: #f86b71;
      }

      .cls-2 {
        fill: #fff5f5;
      }
    </style>
  </defs>
  <rect class="cls-2" x="0" y="0" width="65" height="65" rx="5.31" ry="5.31"/>
  <g>
    <path class="cls-1" d="M17.59,25.41c.92-.12,1.27.64,1.34.67,1.09.4,3.71-1.07,3.23,1.63.18.27,2.14-.61,2.18,1.17-2.97-.03-3.49.69-3.39-1.63-2.55-.24-2.18.55-2.77.67-1.94.39-2.09-2.32-.59-2.51Z"/>
    <path class="cls-1" d="M32.34,11.92c8.5-.02,16.41,5.38,19.36,13.33.35-.84.12-2.45,1.17-2.18l.38.38c-.28,1.48-.56,2.96-.84,4.44-.15.32-.58.42-.88.29-1.1-.99-2.21-1.98-3.31-2.98-.13-.43.16-.91.63-.88.57.43,1.15.87,1.72,1.3-6.68-16.82-29.59-16.16-36.04-.59-.54,1.31-.97,4.08-1.89,3.06-.64-.7,1.62-5.3,2.14-6.16,3.6-6.03,10.5-10,17.56-10.02Z"/>
    <path class="cls-1" d="M47.52,25.41c1.43-.19,1.99,1.74.92,2.35-1.2.68-1.74-.47-1.84-.5h-2.6c.12,2.31-.49,1.61-3.39,1.63.11-1.54,1-1.02,2.18-1.17-.56-2.74,2.37-1.22,3.81-1.63.31-.22.61-.45.92-.67Z"/>
    <path class="cls-1" d="M31.34,22.81c.81.03,1.62.06,2.43.08.43.22.17,1.8,1.34,2.43,1.74.94,2.61-.72,3.35-.5.57.57,1.15,1.15,1.72,1.72.21.74-1.48,1.61-.5,3.35,1.08,1.93,3.14-.48,2.43,3.94-.23.43-1.77.16-2.43,1.34-.98,1.75.72,2.61.5,3.35l-1.72,1.72c-.74.21-1.59-1.44-3.35-.5-1.93,1.03.48,3.16-3.94,2.43-.49-.25-.11-1.62-1.26-2.35-1.84-1.17-2.62.77-3.6.34-.49-.49-.98-.98-1.47-1.47-.5-.95,1.52-1.74.34-3.6-.76-1.2-2.26-.75-2.43-1.34v-2.43c.17-.59,1.67-.14,2.43-1.34,1.05-1.65-.5-2.84-.5-3.19.04-.39,1.6-1.93,1.8-1.97.79-.18,1.69,1.53,3.44.42,1.22-.78.65-2.24,1.42-2.43ZM31.84,26.67c-4.21.37-6.58,5.33-4.4,8.93,2.09,3.45,7.15,3.76,9.64.59,3.21-4.08-.11-9.96-5.24-9.51Z"/>
    <path class="cls-1" d="M32.01,27.84c4.06-.35,6.66,4.35,4.15,7.59-3.02,3.89-9.29.98-8.3-3.94.37-1.82,2.31-3.49,4.15-3.65ZM34.44,30.69c-.38.02-2.03,1.88-2.51,2.18-1.55-1.72-2.26-1.02-2.05-.29.57.57,1.15,1.15,1.72,1.72h.59c.94-.88,1.87-1.76,2.81-2.64.2-.43-.04-.99-.54-.96Z"/>
    <path class="cls-1" d="M46.68,31.11c1.81-.41,2.19,1.96.92,2.43-1.09.41-1.51-.56-1.59-.59-.88-.01-1.76-.03-2.64-.04.01-.38.03-.75.04-1.13h2.51c.25-.22.5-.45.75-.67Z"/>
    <path class="cls-1" d="M18.18,31.28c1.03-.21,1.35.64,1.42.67h1.93c.47,2-1.06.85-1.93,1.17-.1.04-.58,1.15-1.76.5-1.06-.58-.58-2.16.34-2.35Z"/>
    <path class="cls-1" d="M40.64,36.14c2.85.15,3.46-.71,3.35,1.68h3.19s.32-.58.75-.67c1.46-.31,2.14,1.38,1.26,2.18-1.05.95-1.9-.3-2.01-.34-1.57-.45-5.06,1.17-4.4-1.63-.17-.27-2.31.61-2.14-1.22Z"/>
    <g>
      <path class="cls-1" d="M21.28,36.14c1.02.01,2.04.03,3.06.04-.03,1.78-2,.9-2.18,1.17.58,2.78-2.61,1.19-3.81,1.63-.11.14-.22.28-.34.42-1.92.95-2.6-1.43-1.51-2.1,1.12-.68,1.82.47,1.93.5h2.51c.15-.1-.17-1.51.34-1.68Z"/>
      <path class="cls-1" d="M12.98,36.81c.32-.03,3.66,2.83,3.73,3.06.16.57-.32,1.05-.96.71-.45-.39-.89-.78-1.34-1.17.79,2.85,3.35,6.18,5.62,8.05,9.89,8.18,25.09,4.67,30.22-7.08.87-2,.9-3.96,1.89-3.48l.29.29c.28.91-1.96,5.45-2.6,6.45-9.06,14.23-30.6,11.89-36.59-3.73-.38.77-.1,2.35-1.17,2.1-.1-.07-.2-.14-.29-.21-.18-.29.68-4.59.84-4.78.13-.07.25-.14.38-.21Z"/>
    </g>
  </g>
</svg>