<?xml version="1.0" encoding="UTF-8"?>
<svg id="Layer_1" data-name="Layer 1" xmlns="http://www.w3.org/2000/svg" viewBox="0 0 65 65">
  <defs>
    <style>
      .cls-1 {
        fill: #f86b71;
      }

      .cls-2 {
        fill: #fff5f5;
      }
    </style>
  </defs>
  <rect class="cls-2" x="0" y="0" width="65" height="65" rx="5.31" ry="5.31"/>
  <path class="cls-1" d="M46.43,31.79l-17.08,17.08h0s-4.86-4.89-4.86-4.89l12.19-12.19-11.19-11.16-1.03-1.03,4.89-4.89,1.03,1.03,16.05,16.05ZM30.87,30.86l-9.68,9.85,1.24,1.24,9.75-9.78-1.31-1.31ZM22.05,22.04l-4.89,4.86,4.89,4.89-4.89,4.89,3.65,3.65,9.68-9.82-8.44-8.47ZM47.84,33.21l-1.03-1.03-12.03,12.03-5.05,5.05,1.03,1.04,17.08-17.08h0Z"/>
</svg>