<?xml version="1.0" encoding="UTF-8"?>
<svg id="Layer_1" data-name="Layer 1" xmlns="http://www.w3.org/2000/svg" viewBox="0 0 65 65">
  <defs>
    <style>
      .cls-1 {
        fill: #f86b71;
      }

      .cls-2 {
        fill: #fff5f5;
      }
    </style>
  </defs>
  <rect class="cls-2" x="0" y="0" width="65" height="65" rx="5.31" ry="5.31"/>
  <g>
    <g>
      <g>
        <path class="cls-1" d="M39.04,28.97h-13.08c-.32,0-.58-.26-.58-.58v-3.47c0-.32.26-.58.58-.58h13.08c.32,0,.58.26.58.58v3.47c0,.32-.26.58-.58.58ZM26.03,28.33h12.95v-3.34h-12.95v3.34Z"/>
        <path class="cls-1" d="M37.87,26.99h-5.3c-.18,0-.32-.14-.32-.32s.14-.32.32-.32h5.3c.18,0,.32.14.32.32s-.14.32-.32.32Z"/>
        <path class="cls-1" d="M27.45,26.99h-.18c-.18,0-.32-.14-.32-.32s.14-.32.32-.32h.18c.18,0,.32.14.32.32,0,.18-.14.32-.32.32Z"/>
        <path class="cls-1" d="M28.96,26.99h-.18c-.18,0-.32-.14-.32-.32s.14-.32.32-.32h.18c.18,0,.32.14.32.32s-.14.32-.32.32Z"/>
        <path class="cls-1" d="M30.47,26.99h-.18c-.18,0-.32-.14-.32-.32s.14-.32.32-.32h.18c.18,0,.32.14.32.32,0,.18-.14.32-.32.32Z"/>
      </g>
      <g>
        <path class="cls-1" d="M39.04,34.81h-13.08c-.32,0-.58-.26-.58-.58v-3.47c0-.32.26-.58.58-.58h13.08c.32,0,.58.26.58.58v3.47c0,.31-.26.58-.58.58ZM26.03,34.16h12.95v-3.34h-12.95v3.34Z"/>
        <path class="cls-1" d="M37.87,32.82h-5.3c-.18,0-.32-.14-.32-.32s.14-.32.32-.32h5.3c.18,0,.32.14.32.32s-.14.32-.32.32Z"/>
        <path class="cls-1" d="M27.45,32.82h-.18c-.18,0-.32-.14-.32-.32s.14-.32.32-.32h.18c.18,0,.32.14.32.32,0,.18-.14.32-.32.32Z"/>
        <path class="cls-1" d="M28.96,32.82h-.18c-.18,0-.32-.14-.32-.32s.14-.32.32-.32h.18c.18,0,.32.14.32.32s-.14.32-.32.32Z"/>
        <path class="cls-1" d="M30.47,32.82h-.18c-.18,0-.32-.14-.32-.32s.14-.32.32-.32h.18c.18,0,.32.14.32.32,0,.18-.14.32-.32.32Z"/>
      </g>
      <g>
        <path class="cls-1" d="M39.04,40.65h-13.08c-.32,0-.58-.26-.58-.58v-3.47c0-.32.26-.58.58-.58h13.08c.32,0,.58.26.58.58v3.47c0,.31-.26.58-.58.58ZM26.03,40h12.95v-3.34h-12.95v3.34Z"/>
        <path class="cls-1" d="M37.87,38.66h-5.3c-.18,0-.32-.14-.32-.32s.14-.32.32-.32h5.3c.18,0,.32.14.32.32s-.14.32-.32.32Z"/>
        <path class="cls-1" d="M27.45,38.66h-.18c-.18,0-.32-.14-.32-.32s.14-.32.32-.32h.18c.18,0,.32.14.32.32,0,.17-.14.32-.32.32Z"/>
        <path class="cls-1" d="M28.96,38.66h-.18c-.18,0-.32-.14-.32-.32s.14-.32.32-.32h.18c.18,0,.32.14.32.32s-.14.32-.32.32Z"/>
        <path class="cls-1" d="M30.47,38.66h-.18c-.18,0-.32-.14-.32-.32s.14-.32.32-.32h.18c.18,0,.32.14.32.32,0,.17-.14.32-.32.32Z"/>
      </g>
      <g>
        <g>
          <path class="cls-1" d="M28.17,30.84c-.18,0-.32-.14-.32-.32v-1.85c0-.18.14-.32.32-.32s.32.14.32.32v1.85c0,.18-.14.32-.32.32Z"/>
          <path class="cls-1" d="M36.83,30.84c-.18,0-.32-.14-.32-.32v-1.85c0-.18.14-.32.32-.32s.32.14.32.32v1.85c0,.18-.14.32-.32.32Z"/>
        </g>
        <g>
          <path class="cls-1" d="M28.17,36.67c-.18,0-.32-.14-.32-.32v-1.85c0-.18.14-.32.32-.32s.32.14.32.32v1.85c0,.18-.14.32-.32.32Z"/>
          <path class="cls-1" d="M36.83,36.67c-.18,0-.32-.14-.32-.32v-1.85c0-.18.14-.32.32-.32s.32.14.32.32v1.85c0,.18-.14.32-.32.32Z"/>
        </g>
      </g>
    </g>
    <g>
      <path class="cls-1" d="M32.5,45.34c-7.08,0-12.84-5.76-12.84-12.84s5.76-12.84,12.84-12.84,12.84,5.76,12.84,12.84-5.76,12.84-12.84,12.84ZM32.5,20.3c-6.72,0-12.2,5.47-12.2,12.2s5.48,12.2,12.2,12.2,12.2-5.48,12.2-12.2-5.48-12.2-12.2-12.2Z"/>
      <path class="cls-1" d="M33.8,53.47h-2.76c-.73,0-1.38-.46-1.62-1.14l-.97-2.73c-.27-.75-.69-1.36-1.21-1.74-1.97-1.45-4.42-.27-5.71.57-.64.42-1.5.35-2.08-.18l-2.58-2.35c-.6-.54-.73-1.44-.33-2.14l1.53-2.63c-.33-4.16-3.36-5.45-5.13-5.85-.78-.18-1.32-.87-1.32-1.67v-2.61c0-.83.6-1.53,1.42-1.68,3.43-.64,4.27-2.52,4.3-2.6,1.04-2.58.07-4.6-.6-5.58-.45-.66-.37-1.58.2-2.18l1.95-2.03c.56-.58,1.47-.69,2.17-.25,1.91,1.21,3.68,1.44,5.41.71,1.95-1.07,2.62-3.25,2.84-4.45.16-.83.87-1.42,1.69-1.42h3.05c.85,0,1.57.6,1.71,1.42.26,1.5,1.11,4.1,3.98,4.65,2.42.2,3.26-.35,4.17-1.13.66-.57,1.64-.54,2.28.07l2.43,2.29c.59.56.71,1.43.3,2.12l-1.26,2.14c-.39.66-.58,1.76-.43,2.4.47,1.89,2.18,3.26,4.72,3.75.81.16,1.4.87,1.4,1.68v3.18c0,.83-.59,1.53-1.4,1.69l-1.45.28c-.88.16-1.64.6-2.16,1.23-1.58,1.92-1.59,4.52-.03,6.8.46.68.39,1.59-.18,2.17l-1.93,1.99c-.63.64-1.65.71-2.33.14-1.17-.96-3.47-2.37-5.86-.92-.04.02-1.91,1.06-2.56,4.57-.15.83-.86,1.42-1.68,1.42ZM25.12,46.52c.84,0,1.69.22,2.5.82.63.47,1.13,1.17,1.44,2.04l.97,2.73c.15.43.56.71,1.01.71h2.76c.52,0,.96-.37,1.06-.89.7-3.85,2.79-4.97,2.88-5.01,2.71-1.65,5.29-.09,6.59.98.42.35,1.06.3,1.45-.1l1.93-1.99c.35-.36.4-.93.11-1.35-1.73-2.52-1.7-5.43.07-7.58.61-.74,1.51-1.26,2.54-1.45l1.45-.28c.5-.1.87-.54.87-1.06v-3.18c0-.51-.37-.95-.88-1.05-2.79-.54-4.69-2.08-5.22-4.23-.22-.89.09-2.2.49-2.88l1.26-2.14c.26-.43.18-.98-.19-1.32l-2.43-2.29c-.39-.37-1.02-.39-1.42-.05-1.14.98-2.23,1.48-4.68,1.28-3.28-.62-4.25-3.51-4.53-5.18-.09-.51-.54-.88-1.07-.88h-3.05c-.52,0-.96.37-1.06.88-.24,1.31-.98,3.7-3.2,4.92-1.95.82-3.97.56-6.04-.75-.44-.28-1.01-.22-1.36.15l-1.95,2.03c-.36.38-.42.95-.14,1.36.74,1.08,1.82,3.33.67,6.19-.04.1-.98,2.28-4.78,2.98-.52.1-.89.54-.89,1.06v2.61c0,.5.34.93.83,1.04,1.59.35,5.3,1.7,5.64,6.53,0,.07-.01.13-.05.18l-1.6,2.71c-.26.43-.17,1,.2,1.33l2.58,2.35c.36.33.89.38,1.29.12.93-.6,2.41-1.36,3.95-1.36Z"/>
    </g>
  </g>
</svg>