<?xml version="1.0" encoding="UTF-8"?>
<svg id="Layer_1" data-name="Layer 1" xmlns="http://www.w3.org/2000/svg" viewBox="0 0 65 65">
  <defs>
    <style>
      .cls-1 {
        fill: #f86b71;
      }

      .cls-2 {
        fill: #fff5f5;
      }
    </style>
  </defs>
  <rect class="cls-2" y="0" width="65" height="65" rx="5.31" ry="5.31"/>
  <path class="cls-1" d="M48.97,51.63h-9.56c-1.06,0-2.02-.64-2.44-1.59s-.21-2.13.53-2.87l8.82-8.82v-4.14l-16.68,16.68c-.53.53-1.17.74-1.91.74h-11.69c-1.06,0-2.02-.64-2.44-1.59s-.21-2.13.53-2.87l28.48-28.48h-4.14l-20.51,20.51c-.74.74-1.91.96-2.87.53-1.06-.43-1.7-1.38-1.7-2.44v-11.69c0-.74.32-1.38.74-1.91l4.99-4.99h-3.19c-1.38,0-2.55-1.17-2.55-2.66s1.17-2.66,2.66-2.66h9.56c1.06,0,2.02.64,2.44,1.59.43.96.21,2.13-.53,2.87l-8.82,8.82v4.14l16.68-16.68c.53-.43,1.17-.74,1.91-.74h11.69c1.06,0,2.02.64,2.44,1.59.43.96.21,2.13-.53,2.87l-28.48,28.48h4.14l20.51-20.51c.74-.74,1.91-.96,2.87-.53s1.59,1.38,1.59,2.44v11.69c0,.74-.32,1.38-.74,1.91l-4.99,4.99h3.19c1.49,0,2.66,1.17,2.66,2.66s-1.17,2.66-2.66,2.66Z"/>
</svg>