<?xml version="1.0" encoding="UTF-8"?>
<svg id="Layer_1" data-name="Layer 1" xmlns="http://www.w3.org/2000/svg" viewBox="0 0 65 65">
  <defs>
    <style>
      .cls-1 {
        fill: #f86b71;
      }

      .cls-2 {
        fill: #fff5f5;
      }
    </style>
  </defs>
  <rect class="cls-2" x="0" y="0" width="65" height="65" rx="5.31" ry="5.31"/>
  <g>
    <path class="cls-1" d="M44.12,43.4h-5.81c-1.2,0-2.18-.98-2.18-2.18v-3.63c0-1.2.98-2.18,2.18-2.18h5.81c1.2,0,2.18.98,2.18,2.18v3.63c0,1.2-.98,2.18-2.18,2.18ZM38.31,36.86c-.4,0-.73.33-.73.73v3.63c0,.4.33.73.73.73h5.81c.4,0,.73-.33.73-.73v-3.63c0-.4-.33-.73-.73-.73h-5.81Z"/>
    <path class="cls-1" d="M44.12,36.86h-5.81c-.4,0-.73-.33-.73-.73v-.73c0-2.01,1.63-3.63,3.63-3.63s3.63,1.63,3.63,3.63v.73c0,.4-.33.73-.73.73ZM39.04,35.41h4.36c0-1.2-.98-2.18-2.18-2.18s-2.18.98-2.18,2.18ZM41.22,40.49c-.4,0-.73-.33-.73-.73v-.73c0-.4.33-.73.73-.73s.73.33.73.73v.73c0,.4-.33.73-.73.73ZM29.23,23.78c-7.76,0-15.62-1.74-15.62-5.09s7.86-5.09,15.62-5.09,15.62,1.74,15.62,5.09-7.86,5.09-15.62,5.09ZM29.23,15.06c-8.65,0-14.17,2.18-14.17,3.63s5.52,3.63,14.17,3.63,14.17-2.18,14.17-3.63-5.52-3.63-14.17-3.63Z"/>
    <path class="cls-1" d="M41.22,51.39c-.09,0-.19-.02-.28-.05-4.65-1.91-8.14-5.89-9.41-10.75-.27-1.02-.43-2.07-.49-3.13v-7.72c0-.34.22-.64.55-.73l9.44-2.32c.11-.03.23-.03.35,0l9.44,2.32c.33.08.56.38.55.73v6.97c-.01,6.43-3.93,12.22-9.9,14.62-.09.04-.18.06-.28.06ZM32.5,30.32v7.07c.04.96.19,1.91.43,2.83.23.88.53,1.74.92,2.56.95,2,2.34,3.75,4.07,5.13,1.01.8,2.12,1.46,3.3,1.97,5.28-2.25,8.71-7.43,8.72-13.16v-6.39l-8.72-2.18-8.72,2.18Z"/>
    <path class="cls-1" d="M29.23,41.22c-7.76,0-15.62-1.74-15.62-5.09v-8.72c0-.4.33-.73.73-.73s.73.33.73.73c0,1.45,5.52,3.63,14.17,3.63.85,0,1.69-.02,2.51-.07.2,0,.39.06.54.2.14.14.22.33.23.52v5.68c.04.96.19,1.91.43,2.83.05.21.01.43-.12.61-.13.18-.33.29-.54.3-.97.09-2,.09-3.04.09ZM15.06,29.7v6.44c0,1.45,5.52,3.63,14.17,3.63.73,0,1.45,0,2.11-.04-.15-.75-.25-1.51-.29-2.27v-4.95h-1.82c-5.75,0-11.54-.96-14.17-2.8Z"/>
    <path class="cls-1" d="M29.23,32.5c-7.76,0-15.62-1.74-15.62-5.09v-8.72c0-.4.33-.73.73-.73s.73.33.73.73c0,1.45,5.52,3.63,14.17,3.63s14.17-2.18,14.17-3.63c0-.4.33-.73.73-.73s.73.33.73.73v8.72c0,.35-.09.7-.26,1.01-.16.29-.49.44-.81.36l-2.56-.65-8.72,2.18v1.4c0,.39-.3.71-.69.73-.84.05-1.71.05-2.58.05ZM15.06,20.98v6.44c0,1.45,5.52,3.63,14.17,3.63.61,0,1.22,0,1.82-.04v-1.27c0-.34.22-.64.55-.73l9.44-2.32c.11-.03.23-.03.35,0l2.01.51v-6.22c-2.62,1.85-8.42,2.8-14.17,2.8s-11.54-.96-14.17-2.8Z"/>
    <path class="cls-1" d="M44.12,28.87c-.06,0-.12,0-.17,0l-.17-.04c-.39-.1-.63-.49-.53-.88.01-.06.04-.11.06-.17.06-.11.09-.24.09-.36,0-.4.33-.73.73-.73s.73.33.73.73v.73c0,.4-.33.73-.73.73ZM29.23,49.94c-7.76,0-15.62-1.74-15.62-5.09v-8.72c0-.4.33-.73.73-.73s.73.33.73.73c0,1.45,5.52,3.63,14.17,3.63,1.01,0,2.01,0,2.96-.09.34-.01.64.22.73.54.23.88.53,1.74.92,2.56.95,2,2.34,3.75,4.07,5.13.22.17.32.46.25.73-.07.27-.29.48-.57.54-2.76.52-5.56.77-8.37.76ZM15.06,38.41v6.44c0,1.45,5.52,3.63,14.17,3.63,2.22,0,4.44-.15,6.63-.46-1.37-1.33-2.49-2.89-3.31-4.62-.34-.73-.63-1.48-.86-2.24-.8,0-1.63.06-2.46.06-5.75,0-11.54-.95-14.17-2.8ZM33.23,19.42h-7.99c-.4,0-.73-.33-.73-.73s.33-.73.73-.73h7.99c.4,0,.73.33.73.73s-.33.73-.73.73Z"/>
  </g>
</svg>