<?xml version="1.0" encoding="UTF-8"?>
<svg id="Layer_1" data-name="Layer 1" xmlns="http://www.w3.org/2000/svg" viewBox="0 0 65 65">
  <defs>
    <style>
      .cls-1 {
        fill: #f86b71;
      }

      .cls-2 {
        fill: #fff5f5;
      }
    </style>
  </defs>
  <rect class="cls-2" x="0" y="0" width="65" height="65" rx="5.31" ry="5.31"/>
  <g>
    <path class="cls-1" d="M30.9,12.62c4.22-.29,8.52.72,12.09,2.96,2.41-2.47,6.27.81,4.25,3.63-1.66,2.3-6,.87-4.87-2.92-8.49-5.17-19.69-2.84-25.38,5.26-2.62,3.74-3.67,8-3.43,12.55.02.46.55,2.2.04,2.38-.85.29-.93-1.81-.97-2.38-.44-6.31,2.11-12.63,6.9-16.73,3.03-2.59,7.39-4.48,11.38-4.76Z"/>
    <path class="cls-1" d="M32.23,17.92c.92-.13,2.75,1.43,3.66,1.95,1.76,1,4.75,2.29,6.71,2.65,4.01.74,4.77-1,4.33,4.95-.61,8.25-4.52,15.14-11.66,19.38-2.72,1.62-2.71,1.59-4.99.31-7.83-4.38-11.97-11.94-12.28-20.86-.16-4.44.54-3.18,3.94-3.7,1.88-.29,4.77-1.44,6.47-2.34,1.27-.78,2.55-1.56,3.82-2.34ZM32.07,25.64c-2.12.19-3.54,2.17-3.31,4.25-.71.29-1.3,1.04-1.4,1.79.03,2,.05,4,.08,6,.2.81,1.09,1.56,1.91,1.68,2.21-.03,4.42-.05,6.63-.08.81-.2,1.56-1.09,1.68-1.91-.03-2-.05-4-.08-6-.15-.62-.74-1.24-1.33-1.48.24-2.51-1.65-4.48-4.17-4.25Z"/>
    <path class="cls-1" d="M31.99,26.57c1.92-.25,3.44,1.14,3.31,3.08-1.86.01-3.72.03-5.58.04-.27-1.39.86-2.93,2.26-3.12Z"/>
    <path class="cls-1" d="M51.25,27.51c.17.04.34.08.51.12.22.2.59,2.83.62,3.28,1.17,17.23-18.17,27.8-31.93,17.43-2.7,2.11-6.32-.87-4.8-3.94,1.48-2.97,6.71-1.64,5.85,2.34-.11.5-.61.7-.19,1.13.33.34,3.07,1.85,3.66,2.11,6.39,2.72,14.02,1.69,19.42-2.65,4.88-3.93,7.51-10.14,7.06-16.41-.07-.91-.78-3.23-.19-3.39Z"/>
    <path class="cls-1" d="M32.23,32.19c.52-.1,1.21.23,1.29.82l-.23,1.17c.02.62.91,2.46-.04,2.69h-1.48c-.95-.23-.06-2.08-.04-2.69.02-.57-.48-.89-.08-1.56.19-.14.39-.29.58-.43Z"/>
  </g>
</svg>