<?xml version="1.0" encoding="UTF-8"?>
<svg id="Layer_1" data-name="Layer 1" xmlns="http://www.w3.org/2000/svg" viewBox="0 0 65 65">
  <defs>
    <style>
      .cls-1 {
        fill: #f86b71;
      }

      .cls-2 {
        fill: #fff5f5;
      }
    </style>
  </defs>
  <rect class="cls-2" x="0" y="0" width="65" height="65" rx="5.31" ry="5.31"/>
  <path class="cls-1" d="M32.55,13.48c-5.56,0-10.09,4.53-10.09,10.09,0,2.77,1.14,5.28,2.95,7.1.02.04.03.08.11.14l-.04-.04,4.2,4.72,2.41,2.77c.12.13.28.21.46.21h.04c.17,0,.34-.07.46-.2l2.45-2.78s0,0,0,0h0s4.7-5.33,4.7-5.33c.07-.08.12-.19.14-.29,1.4-1.73,2.3-3.9,2.3-6.3,0-5.48-4.4-9.91-9.85-10.04-.08-.03-.16-.05-.24-.05h0ZM32.55,14.69h0c4.9,0,8.86,3.98,8.87,8.87h0c0,2.14-.78,4.19-2.18,5.8-.04.05-.07.1-.1.15l-4.72,5.34s0,.02-.01.02l-1.84,2.08-1.82-2.12v.03s0-.01,0-.02l-4.36-4.89h0c-.02-.06-.03-.08-.1-.15-1.67-1.65-2.61-3.91-2.61-6.26,0-4.9,3.97-8.86,8.86-8.87,0,0,0,0,0,0ZM32.55,19.25c-2.38,0-4.31,1.94-4.32,4.32,0,2.38,1.94,4.31,4.32,4.32,2.38,0,4.31-1.94,4.32-4.32,0-2.38-1.94-4.31-4.32-4.32ZM32.55,20.47c1.71,0,3.1,1.38,3.1,3.1s-1.38,3.1-3.1,3.1c-1.71,0-3.09-1.38-3.1-3.09,0,0,0,0,0,0,0-1.71,1.38-3.1,3.1-3.1ZM17.69,24.59h0c-1.26,0-2.27,1.02-2.28,2.27l-.02,7.96c0,.26.07.41.07.44v-.04c.04.35.19.62.32.84h0s0,.03,0,.03c0-.01,0-.01,0,.01h0l7.4,11.98.14,3.43,1.22-.05-.15-3.75-7.56-12.24h0c-.08-.12-.14-.26-.18-.41v-.02s0-.02,0-.02c-.04-.18-.05-.23-.05-.2l.02-7.96c0-.58.48-1.05,1.06-1.05h.36c.56,0,1.02.45,1.03,1.01,0,0,0,.01,0,.02v7.34c-.07.13-.04.31-.1.46-.03.09.67-1.23-.16.21,0,0-.03.11-.04.16-.02.09-.07.06-.08.16-.04.53.15,1.2.55,1.85,0,.02,0,.03,0,.05h0s2.56,4.16,2.56,4.16l1.04-.64-2.57-4.16c-.36-.59-.39-.94-.35-1.19.01-.07.06-.15.08-.22.1-.24.27-.44.5-.57.43-.27.69-.27.97-.16.28.11.59.4.88.86l1.29,2.08c.39.64,1.04,1.04,1.65,1.45.61.41,1.17.83,1.34,1.06l1.91,3.09c.77,1.26.79,2.16.79,3.44l.08,5.23,1.22-.02-.08-5.22c0-1.31-.06-2.59-.98-4.08l-1.94-3.14h0c-.41-.6-1.06-.98-1.65-1.38-.6-.4-1.14-.83-1.29-1.08l-1.29-2.08c-.37-.6-.84-1.11-1.47-1.35-.51-.2-1.1-.03-1.67.21v-6.51c0-.31-.05-.6-.17-.88-.35-.83-1.17-1.37-2.08-1.37h-.36ZM46.95,24.59c-.93,0-1.74.56-2.08,1.37-.12.28-.17.58-.17.88v6.51c-.56-.23-1.16-.4-1.66-.21-.62.25-1.1.75-1.47,1.35l-1.29,2.08c-.15.25-.7.68-1.29,1.08-.6.4-1.24.78-1.65,1.37h0s-1.94,3.15-1.94,3.15c-.91,1.49-.98,2.77-.98,4.08l-.08,5.22,1.22.02.08-5.23c0-1.29.02-2.18.79-3.44h0l1.91-3.09c.16-.23.73-.65,1.34-1.06.61-.41,1.26-.82,1.65-1.45l1.28-2.08c.28-.46.6-.75.88-.86.28-.11.54-.11.97.16.3.18.41.37.5.57.02.07.07.15.08.22.04.26.02.6-.35,1.19l-2.57,4.16,1.04.64,2.56-4.15h0s0-.04,0-.06c.41-.65.59-1.24.55-1.77,0-.1-.06-.14-.08-.24,0-.05.04.22.04,0-.2-.35-.13-.28-.16-.36-.06-.16-.09-.34-.16-.47v-7.34c0-.56.44-1.02,1.01-1.02,0,0,.01,0,.02,0h.36c.58,0,1.06.47,1.06,1.05l.02,7.97s-.01.02-.05.2v.02s0,.02,0,.02c-.03.14-.09.27-.16.39,0,.01-.02.02-.02.03l-7.56,12.24-.15,3.75,1.22.05.13-3.43,7.4-11.98h0s0-.03,0-.03h0c.13-.23.28-.5.32-.85v.04s.07-.18.07-.44l-.02-7.96c0-1.25-1.03-2.27-2.28-2.27h-.36,0Z"/>
</svg>