<?xml version="1.0" encoding="UTF-8"?>
<svg id="Layer_1" data-name="Layer 1" xmlns="http://www.w3.org/2000/svg" viewBox="0 0 65 65">
  <defs>
    <style>
      .cls-1 {
        fill: #f86b71;
      }

      .cls-2 {
        fill: #fff5f5;
      }
    </style>
  </defs>
  <rect class="cls-2" x="0" y="0" width="65" height="65" rx="5.31" ry="5.31"/>
  <g>
    <path class="cls-1" d="M33.7,26.49h1.2c.23,0,.44-.13.53-.34,1.28,2.01,3.52,3.34,6.08,3.34s4.79-1.34,6.08-3.34c.1.2.3.34.53.34h1.2c.99,0,1.8-.81,1.8-1.8v-3.61c0-.77-.49-1.45-1.22-1.7-.17-4.39-3.79-7.92-8.22-7.92h-.35c-4.43,0-8.05,3.52-8.22,7.92-.73.25-1.22.93-1.22,1.7v3.61c0,.99.81,1.8,1.8,1.8ZM41.51,28.29c-3.31,0-6.01-2.7-6.01-6.01s2.7-6.01,6.01-6.01,6.01,2.7,6.01,6.01-2.7,6.01-6.01,6.01ZM49.93,24.69c0,.33-.27.6-.6.6h-.6v-4.81h.6c.33,0,.6.27.6.6v3.61ZM41.34,12.67h.35c3.74,0,6.79,2.93,7.01,6.61h-.58s-.04,0-.06.01c-1.14-2.49-3.64-4.22-6.55-4.22s-5.41,1.73-6.55,4.22c-.02,0-.04-.01-.06-.01h-.58c.22-3.68,3.28-6.61,7.01-6.61ZM33.1,21.08c0-.33.27-.6.6-.6h.6v4.81h-.6c-.33,0-.6-.27-.6-.6v-3.61ZM45.54,30.7c-.33,0-.6.27-.6.6,0,.85-1.41,1.8-3.43,1.8s-3.43-.95-3.43-1.8c0-.33-.27-.6-.6-.6-2.88,0-5.49,1.37-6.92,3.61h-13.69c-.99,0-1.8.81-1.8,1.8v13.93c-.72.25-1.2.93-1.2,1.69,0,.21.04.41.11.6h-1.91c-.33,0-.6.27-.6.6s.27.6.6.6h40.86c.33,0,.6-.27.6-.6v-15.02c0-3.98-3.58-7.21-7.99-7.21ZM16.88,35.5h20.43c.33,0,.6.27.6.6v13.82h-21.63v-13.82c0-.33.27-.6.6-.6ZM15.67,52.33c-.33,0-.6-.27-.6-.6s.27-.6.6-.6h22.84c.33,0,.6.27.6.6s-.27.6-.6.6H15.67ZM52.33,52.33h-7.21c-.66,0-1.2-.54-1.2-1.2s.54-1.2,1.2-1.2h3.61c.33,0,.6-.27.6-.6v-9.62c0-.33-.27-.6-.6-.6s-.6.27-.6.6v9.01h-3c-1.33,0-2.4,1.08-2.4,2.4,0,.44.13.85.33,1.2h-2.85c.07-.19.11-.39.11-.6,0-.76-.48-1.44-1.2-1.69v-13.93c0-.99-.81-1.8-1.8-1.8h-5.24c1.17-1.38,2.94-2.26,4.91-2.39.43,1.38,2.27,2.39,4.54,2.39s4.11-1.01,4.54-2.39c3.51.23,6.28,2.83,6.28,5.99v14.42Z"/>
    <path class="cls-1" d="M27.09,45.12c1.33,0,2.4-1.08,2.4-2.4s-1.08-2.4-2.4-2.4-2.4,1.08-2.4,2.4,1.08,2.4,2.4,2.4ZM27.09,41.51c.66,0,1.2.54,1.2,1.2s-.54,1.2-1.2,1.2-1.2-.54-1.2-1.2.54-1.2,1.2-1.2ZM18.08,48.73h18.03c.33,0,.6-.27.6-.6s-.27-.6-.6-.6h-18.03c-.33,0-.6.27-.6.6s.27.6.6.6Z"/>
  </g>
</svg>