<?xml version="1.0" encoding="UTF-8"?>
<svg id="Layer_1" data-name="Layer 1" xmlns="http://www.w3.org/2000/svg" viewBox="0 0 65 65">
  <defs>
    <style>
      .cls-1 {
        fill: #f86b71;
      }

      .cls-2 {
        fill: #fff5f5;
      }
    </style>
  </defs>
  <rect class="cls-2" x="0" y=".26" width="65" height="65" rx="5.31" ry="5.31"/>
  <g>
    <path class="cls-1" d="M14.98,51.73c-.32-.09-.42-.59-.42-.9,0-1.49,1.27-8.27,1.86-9.62,1-2.32,3.14-3.39,5.54-3.76l-.08,12.95h8.63v-2.66h-1.99s0,1.99,0,1.99h-1.33v-2.91c0-.12.4-.38.59-.41.43-.08,3.44-.06,3.73.08.08.04.33.3.33.33v3.57c.46-.07,1.28.14,1.66-.08s1.22-2.08,1.66-2.49l-1.99-.08v-1.33h3.57l.39.45c.21.76-1.69,2.7-1.97,3.53h7.97l-.09-12.95c2.55.41,4.77,1.55,5.71,4.09.5,1.34,1.68,7.86,1.69,9.29,0,.27-.15.9-.42.9H14.98Z"/>
    <path class="cls-1" d="M39.66,17.83c2.49-.42,1.11,2.76,1.47,4.23,2.04.98,2.72,3.61,1.16,5.35-.51.57-1.53.84-1.74,1.08-.17.2-.47,1.81-.67,2.32-3.08,7.9-14.75,5.85-15.38-2.47-3.25-.55-3.53-4.91-.64-6.28l.15-3.97c.35-.44,1.06-.1,1.32-.26.09-.05.79-1.44,1.1-1.8,3.73-4.35,10.87-3.43,13.23,1.8ZM26.85,17.86h11.29c-2.45-4.29-8.83-4.29-11.29,0ZM39.14,22.51h-13.28v6.06c0,2.97,3.52,5.84,6.39,5.9s6.9-2.61,6.9-5.74v-6.23ZM24.53,26.99v-3.65c-1.75.75-1.75,2.9,0,3.65ZM40.47,26.99c1.73-.74,1.8-2.93,0-3.65v3.65Z"/>
    <path class="cls-1" d="M26.87,36.47c1.73-.59,2.96.42,4.6.6,1.12.12,2.08,0,3.16-.23,1.22-.26,2.09-.97,3.43-.22.95,2.79-1.35,6.02-4.2,6.43-4.35.63-7.87-2.04-7-6.58Z"/>
  </g>
</svg>