<?xml version="1.0" encoding="UTF-8"?>
<svg id="Layer_1" data-name="Layer 1" xmlns="http://www.w3.org/2000/svg" viewBox="0 0 65 65">
  <defs>
    <style>
      .cls-1 {
        fill: #f86b71;
      }

      .cls-2 {
        fill: #fff5f5;
      }
    </style>
  </defs>
  <rect class="cls-2" x="0" y="-.04" width="65" height="65" rx="5.31" ry="5.31"/>
  <g>
    <path class="cls-1" d="M51.09,41.73h2.39c.28,0,.63.57.66.86.09.77.07,2.46,0,3.25-.15,1.63-1.33,2.99-2.92,3.38-12.46.21-24.98.21-37.43,0-1.24-.26-2.37-1.33-2.74-2.54-.24-.76-.3-3.38-.17-4.19.04-.25.44-.77.65-.77h2.39v-25.55c0-.34.86-.62,1.16-.56h34.95c.29-.03,1.06.25,1.06.56v25.55ZM49.46,17.35H15.54v24.38h33.93v-24.38ZM52.51,43.46H12.49v2.29s.21.68.25.76c.28.58.99,1.04,1.63,1.12l36.6-.07c.68-.12,1.54-1.15,1.54-1.81v-2.29Z"/>
    <path class="cls-1" d="M28.64,31.47c-.08-.88-.04-1.88,1.12-1.58,1.9,1.21,4.25,2.2,6.08,3.46.87.6.71,1.16-.1,1.71-1.47.99-3.82,2.32-5.41,3.12-1.36.68-1.76.42-1.71-1.17l-.15-.15-7.07-.04c-5.43-1.28-3.32-7.45-3.74-11.51.04-.47.39-.81.86-.86.78-.09,2.89-.09,3.66,0,.48.06.81.38.86.86.2,1.66-.25,3.88,0,5.48.03.17.33.67.45.67h5.13ZM21.43,26.19h-2.13v6.25c0,1.46,1.4,2.68,2.79,2.8,2.4.21,5.08-.17,7.51,0,.52.08.54.45.67.86.03.11-.07.18.15.15l3.4-2.08-3.5-2.08c-.04.55-.26.99-.84,1.09-1.04.19-4.52.13-5.66.02-.79-.07-1.57-.45-2.03-1.12-.07-.11-.36-.69-.36-.76v-5.13Z"/>
    <path class="cls-1" d="M36.36,27.61c.08.93.04,1.84-1.14,1.6l-6.46-3.8c-.25-.41-.22-.92.2-1.2l6.55-3.71c.97.05.87.8.87,1.56l.15.15,6.97.04c5.53,1.16,3.43,7.44,3.84,11.51-.04.47-.39.81-.86.86-.82.1-2.73.08-3.56,0-.6-.05-.89-.24-.96-.87-.19-1.67.25-3.88,0-5.48-.03-.17-.33-.67-.45-.67h-5.13ZM43.57,27.77v5.13h2.13v-6.25c0-1.45-1.41-2.68-2.79-2.8-2.4-.21-5.08.17-7.51,0-.56-.11-.57-.41-.67-.86-.03-.12.08-.18-.15-.15l-3.4,2.08,3.5,2.08c.04-.55.26-.99.84-1.09,1.04-.19,4.52-.13,5.66-.02.97.09,2.22.85,2.39,1.88Z"/>
    <path class="cls-1" d="M27.8,44.7l9.32-.02c1.13.33.96,1.63-.2,1.72-2.8-.23-6.1.31-8.84,0-1.13-.13-1.33-1.26-.28-1.71Z"/>
  </g>
</svg>