<?xml version="1.0" encoding="UTF-8"?>
<svg id="Layer_1" data-name="Layer 1" xmlns="http://www.w3.org/2000/svg" viewBox="0 0 65 65">
  <defs>
    <style>
      .cls-1 {
        fill: #f86b71;
      }

      .cls-2 {
        fill: #fff5f5;
      }
    </style>
  </defs>
  <rect class="cls-2" x="0" y="0" width="65" height="65" rx="5.31" ry="5.31"/>
  <g>
    <path class="cls-1" d="M42.12,24.94c-4.4,0-8.11,3.23-8.8,7.42l-.34-.34c-.27-.27-.69-.27-.96,0s-.27.69,0,.96l1.37,1.37c.14.14.41.27.76.14.27-.07.41-.34.41-.62,0-4.19,3.37-7.56,7.56-7.56s7.56,3.37,7.56,7.56c0,.41.27.69.69.69s.69-.27.69-.69c0-4.95-3.99-8.93-8.93-8.93ZM50.09,36.21c-.34-.14-.76.07-.89.41-1.1,2.89-3.99,4.81-7.08,4.81-1.86,0-3.64-.69-5.02-1.92-.27-.27-.69-.21-.96.07s-.21.69.07.96c1.65,1.51,3.78,2.34,5.98,2.34,3.64,0,7.01-2.27,8.32-5.7.07-.41-.07-.82-.41-.96Z"/>
    <path class="cls-1" d="M42.12,35.56c.41,0,.69-.27.69-.69v-5.5c0-.41-.27-.69-.69-.69s-.69.27-.69.69v4.81h-2.06c-.41,0-.69.27-.69.69s.27.69.69.69h2.75ZM14.63,43.84c.41,0,.69-.27.69-.69V13.26c0-.41.27-.69.69-.69h12.1l4.6,4.6c.27.27.69.27.96,0s.27-.69,0-.96l-2.47-2.47,8.66,3.44c-1.1.62-1.99,1.58-2.41,2.82l-1.79-1.79c-.27-.27-.69-.27-.96,0s-.27.69,0,.96l2.75,2.75c.14.14.41.27.76.14.27-.07.41-.34.41-.62,0-1.65,1.17-3.02,2.75-3.37v4.67c0,.41.27.69.69.69s.69-.27.69-.69v-5.36c0-.48-.41-.62-.41-.62l-13.75-5.57h-12.58c-1.17,0-2.06.89-2.06,2.06v29.9c0,.41.27.69.69.69ZM14.63,48.45c.41,0,.69-.27.69-.69v-1.51c0-.41-.27-.69-.69-.69s-.69.27-.69.69v1.51c0,.41.27.69.69.69ZM42.12,44.32c-.41,0-.69.27-.69.69v6.74c0,.41-.27.69-.69.69h-24.74c-.41,0-.69-.27-.69-.69v-1.37c0-.41-.27-.69-.69-.69s-.69.27-.69.69v1.37c0,1.17.89,2.06,2.06,2.06h24.74c1.17,0,2.06-.89,2.06-2.06v-6.74c0-.34-.27-.69-.69-.69Z"/>
    <path class="cls-1" d="M17.38,16.69c.41,0,.69-.27.69-.69v-.69h.69c.41,0,.69-.27.69-.69s-.27-.69-.69-.69h-1.37c-.41,0-.69.27-.69.69v1.37c0,.41.27.69.69.69ZM39.37,48.31c-.41,0-.69.27-.69.69v.69h-.69c-.41,0-.69.27-.69.69s.27.69.69.69h1.37c.41,0,.69-.27.69-.69v-1.37c0-.41-.27-.69-.69-.69ZM22.88,15.32c.41,0,.69-.27.69-.69s-.27-.69-.69-.69h-1.37c-.41,0-.69.27-.69.69s.27.69.69.69h1.37ZM17.38,19.44h13.75c.41,0,.69-.27.69-.69s-.27-.69-.69-.69h-13.75c-.41,0-.69.27-.69.69s.27.69.69.69ZM39.37,45.56h-21.99c-.41,0-.69.27-.69.69s.27.69.69.69h21.99c.41,0,.69-.27.69-.69s-.27-.69-.69-.69ZM37.31,24.25c0-.41-.27-.69-.69-.69h-19.24c-.41,0-.69.27-.69.69s.27.69.69.69h19.24c.41,0,.69-.27.69-.69ZM33.19,29.75c0-.41-.27-.69-.69-.69h-15.12c-.41,0-.69.27-.69.69s.27.69.69.69h15.12c.41,0,.69-.27.69-.69ZM31.13,34.56h-13.75c-.41,0-.69.27-.69.69s.27.69.69.69h13.75c.41,0,.69-.27.69-.69s-.27-.69-.69-.69ZM33.87,40.06h-16.5c-.41,0-.69.27-.69.69s.27.69.69.69h16.5c.41,0,.69-.27.69-.69s-.27-.69-.69-.69Z"/>
  </g>
</svg>