<?xml version="1.0" encoding="UTF-8"?>
<svg id="Layer_1" data-name="Layer 1" xmlns="http://www.w3.org/2000/svg" viewBox="0 0 45 45">
  <defs>
    <style>
      .cls-1, .cls-2 {
        fill: #f86b71;
      }

      .cls-2 {
        font-family: Poppins-Medium, Poppins;
        font-size: 8.31px;
        font-weight: 500;
      }

      .cls-3 {
        fill: #293949;
        fill-rule: evenodd;
      }
    </style>
  </defs>
  <path class="cls-1" d="M20.48,37.07c-.11,0-.23-.04-.32-.13l-4.62-4.62c-.17-.17-.17-.46,0-.63l1.73-1.73c.17-.17.46-.17.63,0l2.57,2.57,6.61-6.61c.17-.17.46-.17.63,0l1.73,1.73c.08.08.13.2.13.32s-.05.23-.13.32l-8.66,8.66c-.09.09-.2.13-.32.13ZM16.49,32.01l3.99,3.99,8.03-8.03-1.1-1.1-6.61,6.61c-.17.17-.46.17-.63,0l-2.57-2.57-1.1,1.1Z"/>
  <text class="cls-2" transform="translate(11.44 21.73)"><tspan x="0" y="0">DDoS</tspan></text>
  <path class="cls-3" d="M41.78,6.19c0-.51-.41-.92-.92-.92-.13,0-.26.03-.38.08C30.48,9.89,23.22.78,23.22.78c-.32-.4-.9-.46-1.29-.14-.05.04-.1.09-.14.14,0,0-7.26,9.11-17.26,4.57-.46-.21-1.01,0-1.22.46-.05.12-.08.25-.08.38v13.68c0,1.59.14,3.18.43,4.73h0c1.14,6.01,5.23,15.25,17.13,19.66h0c1.11.41,2.33.41,3.43,0h0c11.89-4.41,15.99-13.65,17.13-19.66h0c.29-1.55.43-3.14.43-4.73V6.19h0ZM39.94,7.55v12.31c0,1.48-.13,2.95-.4,4.39-1.06,5.59-4.89,14.17-15.96,18.27-.7.26-1.46.26-2.16,0-11.07-4.1-14.9-12.68-15.96-18.27-.27-1.44-.4-2.91-.4-4.39V7.55c8.67,3.12,15.31-2.64,17.44-4.83,2.12,2.19,8.77,7.95,17.44,4.83h0Z"/>
</svg>