<?xml version="1.0" encoding="UTF-8"?>
<svg id="Layer_1" data-name="Layer 1" xmlns="http://www.w3.org/2000/svg" viewBox="0 0 45 45">
  <defs>
    <style>
      .cls-1 {
        fill: #293949;
      }

      .cls-2 {
        fill: #f86b71;
      }
    </style>
  </defs>
  <path class="cls-1" d="M26.4,25.31c-1.78.35-3.59.49-5.4.42-1.74-.03-3.48-.27-5.16-.72-.58-.16-1.15-.38-1.68-.66l-.78-.66c-.12-.12-.21-.26-.27-.41-.06-.15-.09-.32-.09-.49v-14.7c0-.19.03-.38.1-.56.07-.18.18-.33.32-.46.37-.35.8-.63,1.26-.84.85-.33,1.74-.57,2.64-.72,1.74-.3,3.51-.42,5.28-.36,1.74.04,3.47.26,5.16.66.67.17,1.32.43,1.92.78l.66.54c.24.26.37.61.36.96v4.92l.42.12,2.82.72c.36.06.48.18.48.54v3.84c-.01,1.24-.28,2.47-.79,3.6-.51,1.13-1.24,2.15-2.15,3-.56.53-1.19.99-1.86,1.38l-.6.24c-.13.06-.28.09-.43.08-.15-.01-.29-.06-.41-.14l-1.44-.84c-.12-.06-.18-.18-.36-.24ZM28.62,25.67c1.46-.62,2.71-1.65,3.59-2.98.88-1.32,1.34-2.88,1.33-4.46.06-1.14.06-2.22.06-3.36,0-.06-.06-.18-.06-.24h-.24l-4.32-1.14c-.22-.06-.44-.06-.66,0l-3.6.9-.96.24s-.03.09-.06.12c0,1.2,0,2.4.06,3.6,0,.4.01.8.06,1.2.24,1.33.81,2.59,1.64,3.65.84,1.07,1.92,1.91,3.16,2.47ZM13.86,9.35v3.54c0,.09.01.18.04.26.03.08.08.16.14.22l.42.3,1.08.48c1.6.47,3.25.73,4.92.78h2.4v-.6c.06-.3.12-.42.42-.48l4.92-1.26c.3-.07.61-.05.9.06l.72.18c.06-1.14.06-2.28,0-3.42-.6.35-1.25.61-1.92.78-1.62.45-3.3.69-4.98.72-1.75.08-3.49-.02-5.22-.3-1.35-.18-2.65-.61-3.84-1.26ZM21.48,5.99l-2.34.12c-1.04.11-2.06.31-3.06.6-.5.11-.99.29-1.44.54l-.48.3c-.42.3-.42.66.06.96.11.13.26.24.42.3l1.44.54c1.3.4,2.66.62,4.02.66,1.32.06,2.58.06,3.84,0l2.7-.42c.79-.12,1.56-.36,2.28-.72.22-.07.43-.2.6-.36.48-.3.48-.66,0-1.02l-.18-.12-.54-.24c-.69-.32-1.41-.54-2.16-.66-1.7-.36-3.43-.52-5.16-.48ZM13.86,19.25v3.3c-.02.18.01.36.1.52s.22.29.38.38l.36.24,1.32.48c1.84.46,3.74.68,5.64.66.88.04,1.76.02,2.64-.06l1.26-.18c-1.08-1.07-1.88-2.39-2.34-3.84h-.18c-1.99.09-3.98-.03-5.94-.36-.87-.17-1.71-.43-2.52-.78l-.72-.36ZM23.04,19.91c-.3-1.38-.12-2.7-.18-4.08h-2.4c-1.03-.01-2.05-.11-3.06-.3-.91-.12-1.8-.36-2.64-.72l-.9-.42v3.3c0,.16.02.31.1.45.07.14.19.25.32.33.26.18.54.32.84.42,1.16.43,2.37.72,3.6.84,1.08.12,2.16.18,3.24.18h1.08Z"/>
  <path class="cls-2" d="M26.58,17.51c.08-.49.34-.93.72-1.25.38-.32.86-.49,1.35-.49s.98.18,1.35.49c.38.32.63.76.72,1.25l.3.18c.16.12.29.27.39.45.09.18.15.37.15.57v2.1c-.02.32-.15.63-.39.85-.23.22-.55.35-.87.35h-3.3c-.33,0-.65-.13-.89-.37-.24-.24-.37-.56-.37-.89v-1.98c0-.25.06-.49.19-.7.13-.21.31-.38.53-.5l.12-.06ZM28.62,21.17h1.56c.36,0,.54-.12.54-.54v-1.8c0-.07,0-.15-.02-.22-.02-.07-.06-.13-.12-.19s-.12-.09-.19-.12c-.07-.02-.14-.03-.22-.02h-3.06c-.07,0-.15,0-.22.02-.07.02-.13.06-.19.12s-.09.12-.12.19c-.02.07-.03.14-.02.22v1.8c0,.42.18.54.54.54h1.5ZM27.42,17.45h2.4c0-.15-.02-.31-.07-.45-.05-.15-.14-.28-.24-.39-.11-.11-.24-.2-.38-.26-.14-.06-.3-.09-.45-.09-.32,0-.64.12-.87.35-.23.22-.37.53-.39.85Z"/>
  <path class="cls-2" d="M21.9,7.61h2.28c.11,0,.22.04.3.12.08.08.12.19.12.3s-.04.22-.12.3c-.08.08-.19.12-.3.12h-4.62c-.1-.01-.19-.07-.26-.14-.07-.08-.1-.18-.1-.28,0-.1.03-.2.1-.28s.16-.13.26-.14h2.34Z"/>
  <path class="cls-2" d="M29.1,19.73c0,.08-.01.17-.06.24,0,.1-.03.2-.1.28-.07.08-.16.13-.26.14-.11,0-.22-.04-.3-.12-.08-.08-.12-.19-.12-.3-.06-.15-.06-.33,0-.48,0-.1.04-.19.11-.25s.16-.11.25-.11c.24,0,.42.12.42.36v.24h.06Z"/>
  <path class="cls-1" d="M42.78,35.57H2.22c-.59,0-1.15-.23-1.57-.65-.42-.42-.65-.98-.65-1.57V3.65c0-.59.23-1.15.65-1.57.42-.42.98-.65,1.57-.65h40.56c.59,0,1.15.23,1.57.65.42.42.65.98.65,1.57v29.7c0,.59-.23,1.15-.65,1.57-.42.42-.98.65-1.57.65ZM2.22,2.57c-.29,0-.56.11-.76.32-.2.2-.32.48-.32.76v29.7c0,.29.11.56.32.76.2.2.48.32.76.32h40.56c.29,0,.56-.11.76-.32.2-.2.32-.48.32-.76V3.65c0-.29-.11-.56-.32-.76-.2-.2-.48-.32-.76-.32H2.22Z"/>
  <path class="cls-1" d="M44.46,28.97H.6v1.16h43.86v-1.16Z"/>
  <path class="cls-1" d="M34.44,42.41H.6v1.16h33.84v-1.16Z"/>
  <path class="cls-1" d="M39.3,42.41h-3v1.16h3v-1.16Z"/>
  <path class="cls-1" d="M43.38,42.41h-2.16v1.16h2.16v-1.16Z"/>
  <path class="cls-1" d="M16.38,43.55v-1.14c.35.02.7-.04,1.02-.18.32-.14.61-.34.84-.6,1.8-1.92,1.44-6.54,1.44-6.6h1.2c0,.18.3,5.16-1.8,7.44-.35.36-.77.65-1.23.84-.47.19-.97.27-1.47.24Z"/>
  <path class="cls-1" d="M30.72,43.55c-4.56,0-4.62-8.22-4.62-8.52h1.2c0,.06.12,7.38,3.42,7.38v1.14Z"/>
</svg>