<?xml version="1.0" encoding="UTF-8"?>
<svg id="Layer_1" data-name="Layer 1" xmlns="http://www.w3.org/2000/svg" viewBox="0 0 45 45">
  <defs>
    <style>
      .cls-1 {
        fill: #293949;
      }

      .cls-2 {
        fill: #f86b71;
      }
    </style>
  </defs>
  <path class="cls-1" d="M3.37,2.46l37.99-.03c2.04.16,3.55,1.73,3.75,3.75v32.64c-.2,2.03-1.7,3.58-3.75,3.75H3.65c-1.72-.17-3.12-1.29-3.61-2.94C-.27,28.51,0,17.32-.09,6.18c.15-1.91,1.58-3.43,3.47-3.72ZM43.84,9.19v-3.22c0-.95-1.5-2.31-2.48-2.27H3.86c-1.06-.15-2.69,1.26-2.69,2.27v3.22h42.67ZM43.84,10.46H1.18v28.57c0,.95,1.5,2.31,2.48,2.27h37.49c1.06.15,2.69-1.26,2.69-2.27V10.46Z"/>
  <path class="cls-2" d="M4.63,15.13l8.03.06c.27.12.35.43.35.71-.23,3.17.29,6.71,0,9.83-.06.6-.19.74-.79.79-1.8.17-5.5.17-7.3,0-.6-.06-.74-.19-.79-.79-.29-3.15.23-6.74,0-9.93.01-.33.17-.59.5-.66ZM11.74,16.37h-6.34v8.87h6.34v-8.87Z"/>
  <path class="cls-2" d="M24.91,15.13l8.03.06c.27.12.35.43.35.71-.23,3.17.29,6.71,0,9.83-.06.6-.19.74-.79.79-1.8.17-5.5.17-7.3,0-.6-.06-.74-.19-.79-.79-.29-3.15.23-6.74,0-9.93.01-.33.17-.59.5-.66ZM32.01,16.37h-6.34v8.87h6.34v-8.87Z"/>
  <path class="cls-1" d="M4.63,30.34l15.29-.02c.91.06.91,1.21,0,1.27H4.82c-.79,0-.94-1.07-.19-1.25Z"/>
  <path class="cls-1" d="M24.91,30.34l15.29-.02c.91.06.91,1.21,0,1.27h-15.11c-.79,0-.94-1.07-.19-1.25Z"/>
  <path class="cls-1" d="M4.63,35.41l15.29-.02c.91.06.91,1.21,0,1.27H4.82c-.79,0-.94-1.07-.19-1.25Z"/>
  <path class="cls-1" d="M24.91,35.41l15.29-.02c.91.06.91,1.21,0,1.27h-15.11c-.79,0-.94-1.07-.19-1.25Z"/>
  <path class="cls-1" d="M15.61,15.13c.51-.12,3.83-.11,4.41-.02.78.12.78,1.13,0,1.25-.69.11-3.63.11-4.32,0-.76-.12-.77-1.08-.09-1.24Z"/>
  <path class="cls-1" d="M35.89,15.13c.51-.12,3.83-.11,4.41-.02.78.12.78,1.13,0,1.25-.69.11-3.63.11-4.32,0-.76-.12-.77-1.08-.09-1.24Z"/>
  <path class="cls-1" d="M15.61,20.2c.51-.12,3.83-.11,4.41-.02.78.12.78,1.13,0,1.25-.69.11-3.63.11-4.32,0-.76-.12-.77-1.08-.09-1.24Z"/>
  <path class="cls-1" d="M35.89,20.2c.51-.12,3.83-.11,4.41-.02.78.12.78,1.13,0,1.25-.69.11-3.63.11-4.32,0-.76-.12-.77-1.08-.09-1.24Z"/>
  <path class="cls-1" d="M15.61,25.27c.51-.12,3.83-.11,4.41-.02.78.12.78,1.13,0,1.25-.69.11-3.63.11-4.32,0-.76-.12-.77-1.08-.09-1.24Z"/>
  <path class="cls-1" d="M35.89,25.27c.51-.12,3.83-.11,4.41-.02.78.12.78,1.13,0,1.25-.69.11-3.63.11-4.32,0-.76-.12-.77-1.08-.09-1.24Z"/>
</svg>