<?xml version="1.0" encoding="UTF-8"?>
<svg id="Layer_1" data-name="Layer 1" xmlns="http://www.w3.org/2000/svg" viewBox="0 0 65 65">
  <defs>
    <style>
      .cls-1, .cls-2 {
        fill: #f86b71;
      }

      .cls-2 {
        fill-rule: evenodd;
      }

      .cls-3 {
        fill: #fff5f5;
      }
    </style>
  </defs>
  <rect class="cls-3" y="0" width="65" height="65" rx="5.31" ry="5.31"/>
  <g>
    <path class="cls-1" d="M11.45,10.67c-.43,0-.78.35-.78.78v42.1c0,.43.35.78.78.78h42.1c.43,0,.78-.35.78-.78V11.45c0-.43-.35-.78-.78-.78,0,0-42.1,0-42.1,0ZM12.23,12.23h40.54v40.54H12.23s0-40.54,0-40.54Z"/>
    <path class="cls-2" d="M11.45,16.91v1.56h42.1v-1.56H11.45Z"/>
    <path class="cls-1" d="M15.35,14.57c0,.43-.35.78-.78.78s-.78-.35-.78-.78.35-.78.78-.78.78.35.78.78ZM18.47,14.57c0,.43-.35.78-.78.78s-.78-.35-.78-.78.35-.78.78-.78.78.35.78.78ZM21.59,14.57c0,.43-.35.78-.78.78s-.78-.35-.78-.78.35-.78.78-.78.78.35.78.78Z"/>
    <path class="cls-1" d="M30.37,23.14c-.43,0-.78.35-.78.78v1.87c-.69.2-1.36.48-2,.82l-1.31-1.32c-.3-.3-.8-.3-1.1,0l-3.01,3.01c-.3.3-.3.8,0,1.1l1.32,1.32c-.34.63-.62,1.3-.82,1.99h-1.87c-.43,0-.78.35-.78.78v4.26c0,.43.35.78.78.78h1.87c.2.69.47,1.36.82,1.99l-1.32,1.32c-.3.3-.3.8,0,1.1l3.01,3.01c.3.3.8.3,1.1,0l1.32-1.32c.63.34,1.3.62,1.99.83v1.86c0,.43.35.78.78.78h4.25c.43,0,.78-.35.78-.78v-1.87c.69-.2,1.36-.48,1.99-.82l1.31,1.32c.3.3.8.3,1.1,0l3.01-3.01c.3-.3.3-.8,0-1.1l-1.32-1.32c.34-.63.62-1.3.83-1.99h1.86c.43,0,.78-.35.78-.78v-4.26c0-.43-.35-.78-.78-.78h-1.87c-.2-.69-.47-1.36-.82-1.99l1.32-1.32c.3-.3.3-.8,0-1.1l-3.01-3.01c-.3-.3-.8-.3-1.1,0l-1.32,1.32c-.63-.34-1.3-.62-1.99-.83v-1.86c0-.43-.35-.78-.78-.78,0,0-4.25,0-4.25,0ZM31.15,24.7h2.69v1.6c0,.36.25.68.61.76.96.22,1.88.6,2.72,1.13.31.19.71.15.97-.11l1.12-1.13,1.91,1.9-1.12,1.12c-.26.26-.3.65-.11.96.52.84.9,1.76,1.12,2.73.08.36.4.61.76.6h1.6v2.7h-1.6c-.36,0-.68.25-.76.6-.22.96-.6,1.88-1.12,2.72-.19.31-.15.71.11.97l1.13,1.13-1.91,1.9-1.12-1.12c-.26-.26-.66-.3-.97-.11-.84.52-1.76.9-2.72,1.12-.36.08-.61.4-.61.76v1.6h-2.69v-1.6c0-.36-.25-.68-.61-.76-.96-.22-1.88-.6-2.72-1.13-.31-.19-.71-.15-.97.11l-1.13,1.13-1.91-1.9,1.12-1.12c.26-.26.3-.66.11-.96-.52-.84-.9-1.76-1.12-2.72-.08-.36-.4-.61-.76-.61h-1.6v-2.7h1.6c.36,0,.68-.25.76-.6.22-.96.6-1.88,1.12-2.72.19-.31.15-.71-.11-.97l-1.13-1.13,1.91-1.9,1.12,1.12c.26.26.66.3.97.11.84-.52,1.76-.9,2.72-1.12.36-.08.61-.4.61-.76v-1.6h0Z"/>
    <path class="cls-1" d="M32.5,31.4c-2.32,0-4.21,1.89-4.21,4.21,0,2.33,1.89,4.21,4.21,4.21,2.32,0,4.21-1.89,4.21-4.21,0-2.33-1.89-4.21-4.21-4.22ZM32.5,32.96c1.48,0,2.66,1.18,2.66,2.66s-1.18,2.65-2.66,2.65c-1.46,0-2.65-1.17-2.66-2.63v-.03c0-1.48,1.18-2.66,2.66-2.66Z"/>
  </g>
</svg>