<?xml version="1.0" encoding="UTF-8"?>
<svg id="Layer_1" data-name="Layer 1" xmlns="http://www.w3.org/2000/svg" viewBox="0 0 65 65">
  <defs>
    <style>
      .cls-1 {
        fill: #f86b71;
      }

      .cls-2 {
        fill: #fff5f5;
      }
    </style>
  </defs>
  <rect class="cls-2" y="0" width="65" height="65" rx="5.31" ry="5.31"/>
  <g>
    <path class="cls-1" d="M39.16,28.2v1.48l7.15,7.19-.08.39-4.15,4.15c-.26.41-.94-.52-.88-.06.09.64.57,1.81.82,2.46.87,2.31,2.06,4.72,3.55,6.69.2.27,1.14,1.23,1.15,1.41,0,.11-.1.24-.14.24h-2.1v5.22h9.63s.02.41,0,.41H10.89s-.02-.41,0-.41h9.63v-5.22h-2.1s-.16-.14-.14-.24c.02-.12,1.29-1.58,1.51-1.87,3.44-4.78,5.04-11.46,5.75-17.23l-5.68,5.43c-.3,0-3.77-3.8-4.36-4.25l-.08-.39,8.69-8.73c.31-.16.99,1.04,1.23.88l3.08-4.04-9.63-9.72-.1-.21c1.41-1.58,2.96-3.12,4.55-4.55l8.86,8.86-3.12,3.21c-.13.25.75.9.94,1.11,1.74-1.31,3.45-1.31,5.19,0l10.1-9.88,4.31,4.3.08.39-8.66,8.66-.39-.08-2.91-2.93c-.32-.15-1.12.66-.97.97.59.58,1.13,1.21,1.63,1.86.46.6,2.22,2.91,2.37,3.47.26.99-.75,1.12-1.49,1.03ZM23.14,7.72l-1.08,1.16c.19.18.98,1.11,1.16,1.08l1.08-1.16c-.19-.18-.98-1.11-1.16-1.08ZM24.58,9.16l-1.08,1.16c.19.18.98,1.11,1.16,1.08l1.08-1.16c-.19-.18-.98-1.11-1.16-1.08ZM21.62,9.26c-.12.03-1,.93-1,1.06.11.25.9,1.08,1.08,1.08.46-.24.78-.74,1.18-1.08-.28-.2-.95-1.15-1.26-1.06ZM20.18,10.7c-.12.03-1,.93-1,1.06.11.25.9,1.08,1.08,1.08.46-.24.78-.74,1.18-1.08-.28-.2-.95-1.15-1.26-1.06ZM23.05,10.7c-.12.03-1,.93-1,1.06.11.25.9,1.08,1.08,1.08.46-.24.78-.74,1.18-1.08-.28-.2-.95-1.15-1.26-1.06ZM26.02,10.7c-.22.06-.84.89-1.09,1.06.25.18.94,1.08,1.18,1.08.23-.09,1.08-.89,1.08-1.08-.14-.27-.9-1.13-1.16-1.06ZM45.06,11.11c-.22.06-.84.89-1.09,1.06.25.18.94,1.08,1.18,1.08.23-.09,1.08-.89,1.08-1.08-.14-.27-.9-1.13-1.16-1.06ZM21.71,12.13l-1.08,1.08c-.03.15.86,1,1.07,1.06.24,0,.92-.9,1.18-1.08l-1.16-1.07ZM24.58,12.13l-1.08,1.16,1.16,1.08,1.08-1.16c-.19-.18-.98-1.11-1.16-1.08ZM27.93,12.49c-.15-.14-.16-.44-.48-.36-.22.06-.84.89-1.09,1.06.38.25.93,1.28,1.39.98.09-.06.84-.83.85-.89.06-.24-.49-.61-.67-.79ZM43.63,12.54c-.22.06-.84.89-1.09,1.06.25.18.94,1.08,1.18,1.08.23-.09,1.08-.89,1.08-1.08-.14-.27-.9-1.13-1.16-1.06ZM46.5,12.54c-.22.06-.84.89-1.09,1.06.25.18.94,1.08,1.18,1.08.23-.09,1.08-.89,1.08-1.08-.14-.27-.9-1.13-1.16-1.06ZM23.14,13.56l-1.08,1.16,1.16,1.08,1.08-1.16-1.16-1.08ZM26.01,13.56l-1.08,1.16c.19.18.98,1.11,1.16,1.08l1.08-1.16-1.16-1.08ZM29.88,14.43c-.25-.32-.55-.71-.92-.88-.19,0-.99.85-1.08,1.08,0,.24.9.92,1.08,1.18.23-.31,1.12-.92,1.08-1.27,0-.06-.13-.06-.16-.1ZM42.19,13.97c-.18.19-1.11.98-1.08,1.16l1.16,1.08c.18-.19,1.11-.98,1.08-1.16l-1.16-1.08ZM45.65,14.43c-.17-.16-.28-.54-.59-.46-.22.06-.84.89-1.09,1.06.28.2.95,1.15,1.26,1.06.09-.02.96-.89.97-.98.05-.23-.39-.53-.55-.69ZM47.93,13.97c-.12.03-1,.93-1,1.06.11.25.9,1.08,1.08,1.08.23-.09,1.08-.89,1.08-1.08-.14-.27-.9-1.13-1.16-1.06ZM24.58,14.99l-1.08,1.16,1.16,1.08,1.08-1.16-1.16-1.08ZM27.45,14.99l-1.08,1.16,1.16,1.08,1.08-1.16-1.16-1.08ZM30.32,15c-.13.03-1,.93-1,1.06.24.46.74.78,1.08,1.18.18-.25,1.08-.94,1.08-1.18-.14-.27-.9-1.13-1.16-1.06ZM40.76,15.4c-.18.19-1.11.98-1.08,1.16l1.16,1.08c.18-.19,1.11-.98,1.08-1.16l-1.16-1.08ZM43.62,15.4c-.18.19-1.11.98-1.08,1.16l1.16,1.08c.18-.19,1.11-.98,1.08-1.16l-1.16-1.08ZM46.5,15.41c-.13.03-1,.93-1,1.06.24.46.74.78,1.08,1.18l1.07-1.16c-.31-.2-.8-1.17-1.15-1.08ZM26.01,16.43l-1.08,1.16,1.16,1.08,1.08-1.16-1.16-1.08ZM28.88,16.43l-1.08,1.16,1.16,1.08,1.08-1.16-1.16-1.08ZM39.32,16.84c-.18.19-1.11.98-1.08,1.16l1.16,1.08c.18-.19,1.11-.98,1.08-1.16l-1.16-1.08ZM42.19,16.84c-.18.19-1.11.98-1.08,1.16l1.16,1.08c.18-.19,1.11-.98,1.08-1.16l-1.16-1.08ZM45.06,16.84c-.18.19-1.11.98-1.08,1.16l1.16,1.08c.18-.19,1.11-.98,1.08-1.16l-1.16-1.08ZM27.45,17.86l-1.08,1.16,1.16,1.08,1.08-1.16c-.19-.18-.98-1.11-1.16-1.08ZM37.89,18.27c-.18.19-1.11.98-1.08,1.16l1.16,1.08c.18-.19,1.11-.98,1.08-1.16l-1.16-1.08ZM40.76,18.27c-.18.19-1.11.98-1.08,1.16l1.16,1.08c.18-.19,1.11-.98,1.08-1.16l-1.16-1.08ZM43.62,18.27c-.18.19-1.11.98-1.08,1.16l1.16,1.08,1.08-1.16-1.16-1.08ZM28.56,19.7c-.19.27-.79.55-.62.92.88.67,1.8,2.08,2.66,2.67.3.21.92-.54.83-.72l-2.87-2.87ZM36.44,19.7l-2.87,2.87c-.09.18.53.93.83.72.86-.59,1.78-2,2.66-2.67.17-.37-.43-.65-.62-.92ZM39.32,19.7c-.18.19-1.11.98-1.08,1.16l1.16,1.08c.18-.19,1.11-.98,1.08-1.16l-1.16-1.08ZM42.19,19.7c-.18.19-1.11.98-1.08,1.16l1.16,1.08c.18-.19,1.11-.98,1.08-1.16l-1.16-1.08ZM40.76,21.14c-.18.19-1.11.98-1.08,1.16l1.16,1.08c.18-.19,1.11-.98,1.08-1.16l-1.16-1.08ZM30.89,23.82c-.07.13-.05.93.03,1.1.04.09,1.06,1.08,1.15,1.11.21.06.75.06.95-.03.09-.04,1.08-1.06,1.11-1.15.06-.21.06-.86-.03-1.05-.04-.09-.96-.98-1.04-1-1.15-.34-1.44.39-2.16,1.03ZM24.17,25.34l-1.08,1.16,1.16,1.08,1.08-1.16-1.16-1.08ZM30.73,25.44c-.38.1-2.26,2.41-2.79,2.76-.2.25.45.82.62.82.4-.28,2.92-2.71,2.92-2.92,0-.18-.53-.71-.75-.65ZM34.11,25.44c-.13.04-.74.6-.54.81.43.33,2.6,2.77,2.87,2.77.16,0,.82-.58.62-.82l-2.66-2.67c-.08-.08-.17-.12-.29-.09ZM22.74,26.77l-1.08,1.16,1.16,1.08,1.08-1.16-1.16-1.08ZM25.61,26.88c-.22.06-.84.89-1.09,1.06.25.18.94,1.08,1.18,1.08.23-.09,1.08-.89,1.08-1.08-.14-.27-.9-1.13-1.16-1.06ZM21.95,51.75h21.09c-3.54-4.33-5.33-9.8-6.43-15.23-.89-.95-1.77-1.92-2.74-2.79-.02.33-.15.86-.06,1.17.04.13.28.02.31.06.06.06-.05.41-.15.41h-2.97c-.11,0-.21-.35-.15-.41.04-.04.28.07.31-.06.18-.64-.36-2.3.88-2.58.41-.09.88.1,1.09.06.29-.06,2.08-2.19,2.53-2.48.42-.61-.26-1.62-.87-1.7-1.42-.19-3.25.15-4.71,0-.16.03-.76.58-.82.72-.14.31-.11,2.01-.16,2.51-.7,7.15-2.66,14.64-7.17,20.33ZM38.75,28.2h-1.02s.97,1.02.97,1.02l.05-1.02ZM21.21,28.31c-.12.03-1,.93-1,1.06.11.25.9,1.08,1.08,1.08.46-.24.78-.74,1.18-1.08-.28-.2-.95-1.15-1.26-1.06ZM24.18,28.31c-.22.06-.84.89-1.09,1.06.25.18.94,1.08,1.18,1.08.23-.09,1.08-.89,1.08-1.08-.14-.27-.9-1.13-1.16-1.06ZM27.04,28.31c-.22.06-.84.89-1.09,1.06.25.18.94,1.08,1.18,1.08.23-.09,1.08-.89,1.08-1.08-.14-.27-.9-1.13-1.16-1.06ZM37.38,28.72c-.12.03-1.01.94-.99,1.05.28.19.77,1.09,1.07,1.09.24,0,.93-.91,1.18-1.08-.28-.2-.95-1.15-1.26-1.06ZM18.98,51.75h2.3c.38,0,2.54-3.39,2.83-3.92,3-5.49,4.28-12.19,4.69-18.4l-2.74,2.73c-.81,6.9-2.64,14.13-7.09,19.59ZM19.77,29.74c-.12.03-1,.93-1,1.06.11.25.9,1.08,1.08,1.08.46-.24.78-.74,1.18-1.08-.28-.2-.95-1.15-1.26-1.06ZM22.74,29.74l-1.08,1.16,1.16,1.08,1.08-1.16-1.16-1.08ZM25.61,29.74c-.22.06-.84.89-1.09,1.06.25.18.94,1.08,1.18,1.08.23-.09,1.08-.89,1.08-1.08-.14-.27-.9-1.13-1.16-1.06ZM35.95,30.15c-.12.03-1,.93-1,1.06.11.25.9,1.08,1.08,1.08.46-.24.78-.74,1.18-1.08-.28-.2-.95-1.15-1.26-1.06ZM38.82,30.15c-.12.03-1,.93-1,1.06.11.25.9,1.08,1.08,1.08.46-.24.78-.74,1.18-1.08-.28-.2-.95-1.15-1.26-1.06ZM18.34,31.18c-.07.02-1,.99-1,1.06.24.46.74.78,1.08,1.18.18-.25,1.08-.94,1.08-1.18-.14-.27-.9-1.13-1.16-1.06ZM21.3,31.17l-1.08,1.16c.19.18.98,1.11,1.16,1.08l1.08-1.16-1.16-1.08ZM24.17,31.17l-1.08,1.16c.19.18.98,1.11,1.16,1.08l1.08-1.16-1.16-1.08ZM34.52,31.59c-.12.03-1,.93-1,1.06.1.24.89,1.08,1.08,1.08.23-.09,1.08-.89,1.08-1.08-.14-.27-.9-1.13-1.16-1.06ZM37.38,31.59c-.12.03-1,.93-1,1.06.11.25.9,1.08,1.08,1.08.46-.24.78-.74,1.18-1.08-.28-.2-.95-1.15-1.26-1.06ZM40.35,31.58l-1.08,1.16c.19.18.98,1.11,1.16,1.08.18-.19,1.11-.98,1.08-1.16l-1.16-1.08ZM16.91,32.61c-.13.03-1,.93-1,1.06.24.46.74.78,1.08,1.18.18-.25,1.08-.94,1.08-1.18-.14-.27-.9-1.13-1.16-1.06ZM19.87,32.61c-.18.19-1.11.98-1.08,1.16.19.18.98,1.11,1.16,1.08l1.08-1.16c-.19-.18-.98-1.11-1.16-1.08ZM22.74,32.61l-1.08,1.16c.19.18.98,1.11,1.16,1.08l1.08-1.16c-.19-.18-.98-1.11-1.16-1.08ZM35.95,33.02c-.13.03-1,.93-1,1.06.24.46.74.78,1.08,1.18.18-.25,1.08-.94,1.08-1.18-.14-.27-.9-1.13-1.16-1.06ZM38.91,33.02l-1.08,1.16,1.16,1.08,1.08-1.16-1.16-1.08ZM41.78,33.02l-1.08,1.16,1.16,1.08,1.08-1.16-1.16-1.08ZM18.43,34.04l-1.08,1.16c.19.18.98,1.11,1.16,1.08l1.08-1.16c-.19-.18-.98-1.11-1.16-1.08ZM21.3,34.04l-1.08,1.16c.19.18.98,1.11,1.16,1.08l1.08-1.16c-.19-.18-.98-1.11-1.16-1.08ZM37.48,34.45l-1.08,1.16,1.16,1.08c.24-.26.99-.82.99-1.17,0-.16-.92-1.09-1.06-1.07ZM40.35,34.45l-1.08,1.16,1.16,1.08,1.08-1.16-1.16-1.08ZM43.21,34.45l-1.08,1.16,1.16,1.08,1.08-1.16-1.16-1.08ZM19.87,35.47l-1.08,1.16c.19.18.98,1.11,1.16,1.08l1.08-1.16c-.19-.18-.98-1.11-1.16-1.08ZM38.91,35.88l-1.08,1.16,1.16,1.08,1.08-1.16-1.16-1.08ZM41.78,35.88l-1.08,1.16,1.16,1.08,1.08-1.16-1.16-1.08ZM44.65,35.88l-1.08,1.16,1.16,1.08,1.08-1.16-1.16-1.08ZM46.02,51.75c-2.01-2.39-3.44-5.22-4.51-8.14-.33-.9-.73-2.77-1.14-3.47-.22-.38-2.36-2.48-2.8-2.83-.11-.09-.14-.16-.31-.2-.27-.06-.09.09-.07.18.87,3.84,2.1,7.94,4.14,11.33.25.42,2.11,3.14,2.39,3.14h2.3ZM40.35,37.32l-1.08,1.16,1.16,1.08,1.08-1.16-1.16-1.08ZM43.21,37.32l-1.08,1.16,1.16,1.08,1.08-1.16-1.16-1.08ZM41.78,38.75l-1.08,1.16,1.16,1.08,1.08-1.16-1.16-1.08ZM41.15,41v.1c.07-.03.07-.07,0-.1ZM40.69,52.16h-16.38v5.22h6.35v-2.71c0-.08.25-.49.32-.6.78-1.1,2.35-1.07,3.08.06.06.1.28.47.28.54v2.71h6.35v-5.22Z"/>
    <path class="cls-1" d="M41.15,41c.07.03.07.07,0,.1v-.1Z"/>
    <path class="cls-1" d="M30.86,47.75s-.01-.37.02-.4c.04-.05.28.05.3-.07.18-.88-.39-2.56,1.27-2.61,1.77-.05,1.19,1.71,1.38,2.61.02.11.47-.07.31.47-.42-.09-3.16.12-3.28,0Z"/>
    <path class="cls-1" d="M30.86,41.51c-.2-.2.29-.41.31-.48.08-.32-.05-.91,0-1.3.24-1.71,2.41-1.71,2.64,0,.05.39-.07.98,0,1.3.03.13.44.14.31.48-.42-.09-3.16.12-3.28,0Z"/>
    <path class="cls-1" d="M32.36,24.11c.58-.18.53.54.18.6-.25.04-.53-.49-.18-.6Z"/>
  </g>
</svg>