<?xml version="1.0" encoding="UTF-8"?>
<svg id="Layer_1" data-name="Layer 1" xmlns="http://www.w3.org/2000/svg" viewBox="0 0 80 80">
  <defs>
    <style>
      .cls-1 {
        fill: #fff;
      }

      .cls-2 {
        fill: #f6355a;
      }
    </style>
  </defs>
  <rect class="cls-2" x="-.15" y="-.15" width="80.3" height="80.3" rx="21.61" ry="21.61"/>
  <g>
    <path class="cls-1" d="M20.93,33.86c-5.18-.61-5.32-8.58.11-9.19.27-.03,1.22.07,1.34-.1.67-7.06,9.38-10.1,14.4-5.1.57-.2,1.06-.56,1.64-.73,3.36-.98,6.56,1.35,6.94,4.75,1.42.33,2.64,1.15,3.69,2.12.57-.2,1.06-.56,1.64-.73,3.78-1.1,7.46,2.06,6.83,5.92h1.49c2.28,0,4.16,2.88,3.98,5.03-.15,1.81-2.07,4.17-3.98,4.17h-5.7c.02.16.22.13.34.29.08.1.12.22.14.34.09.61.08,2.63,0,3.26s-.51.7-1.06.81c-.09.13.59.62.23,1.24l-2.45,2.45c-.62.35-1.11-.33-1.24-.23-.11,1.07-.68,1.13-1.63,1.05v9.2c.48,0,1.21-.11,1.4.47.11.34-.19,1.86-.31,2.29-.3,1.1-1.02,1.75-2.18,1.84h-27.23c-1.7-.24-2.15-2.19-2.25-3.61-.07-1.02.58-1.05,1.43-.99v-15.01c0-.62,1.24-1.87,1.87-1.87h19.61c.03-.34-.06-.73.04-1.06.09-.3.32-.27.44-.47h-7.24c-.16,0-.9-.26-1.1-.34-2.22-.88-3.5-3.54-2.59-5.8h-8.58ZM43.71,23.12c-.57-2.68-3.5-3.9-5.84-2.44-.41.25-.76.79-1.28.7-.35-.06-1.12-1.04-1.46-1.33-3.85-3.13-9.86-1.19-11.04,3.62-.13.52-.18,1.97-.37,2.22-.36.5-1.7.24-2.3.29-3.86.31-3.81,5.73-.18,6.13,2.87.31,6.32-.17,9.24-.04,1.03-1.19,2.58-1.58,4.11-1.5.39-3.36,2.76-6.4,6.05-7.32.35-.1,1.27-.34,1.58-.34h1.49ZM56.01,32.1c-.44-.44.04-1.26.07-1.84.15-2.77-2.56-4.8-5.18-3.84-.62.23-1.57,1.17-2.04,1.09-.34-.06-1.16-1.08-1.52-1.37-3.85-3.08-9.82-1.12-10.99,3.66-.13.52-.18,1.97-.37,2.22-.36.5-1.7.24-2.3.29-3.88.31-3.82,5.8-.09,6.14,2.34.21,4.99-.14,7.36-.02.4-.12,1.74-1.91,2.28-2.23.62-.35,1.11.33,1.24.23.08-.37.14-.88.57-1.01.31-.09,3.34-.1,3.65,0,.43.13.49.64.57,1.01.13.09.62-.59,1.24-.23.54.31,1.88,2.11,2.28,2.23,1.89-.1,4.06.21,5.91,0,3.24-.35,3.74-4.9.7-5.95-.86-.3-2.99.02-3.4-.39ZM47.82,36.93h-1.9c-.11.37-.15,1.1-.46,1.33-.77.59-1.39-.54-1.84-.34-.08.03-1.12,1.09-1.14,1.17.02.48.62.88.55,1.39-.13.84-1.47.71-1.52.9l.02,1.85c.37.11,1.1.15,1.33.46.59.77-.54,1.39-.34,1.84.03.08,1.09,1.12,1.17,1.14.48-.02.88-.62,1.39-.55.84.13.71,1.47.9,1.52l1.85-.02c.15-.56.12-1.39.85-1.51.54-.09,1.08.68,1.46.51.08-.03,1.12-1.09,1.14-1.17-.02-.48-.62-.88-.55-1.39.13-.84,1.47-.71,1.52-.9l-.02-1.85c-.37-.11-1.1-.15-1.33-.46-.59-.77.54-1.39.34-1.84-.03-.08-1.09-1.12-1.17-1.14-.48.02-.88.62-1.39.55-.69-.11-.71-.97-.85-1.51ZM39.97,43.06h-19.42c-.11,0-.53.41-.53.53v14.81h10.98c.27,0,.52.55.59.77h2.95c.07-.23.32-.77.59-.77h10.98v-9.2c-.95.08-1.52.01-1.63-1.05-.13-.09-.62.59-1.24.23-.21-.12-2.18-2.08-2.36-2.34-.52-.72.26-1.2.15-1.35-1.07-.11-1.13-.68-1.05-1.63ZM30,59.94h-11.22c.06.62,0,1.48.81,1.54l27.26-.07c.49-.21.45-1.01.5-1.46h-11.22c-.05,0,.05.66-.63.76-.91.14-3.72.1-4.7.01-.92-.08-.67-.65-.81-.77Z"/>
    <path class="cls-1" d="M59.14,41.53v9.73c0,1.35-1.95,3.31-3.31,3.31h-6.66v-1.53h6.57c.62,0,1.87-1.24,1.87-1.87v-9.64h1.53Z"/>
    <rect class="cls-1" x="29.23" y="49.96" width="1.53" height="1.53"/>
    <rect class="cls-1" x="32.3" y="49.96" width="1.53" height="1.53"/>
    <rect class="cls-1" x="35.36" y="49.96" width="1.53" height="1.53"/>
    <path class="cls-1" d="M46.37,39.25c4.2-.6,4.82,5.64.92,6.1-4.1.49-4.73-5.56-.92-6.1ZM46.56,40.78c-1.85.3-1.53,3.37.63,3.02,1.85-.3,1.53-3.37-.63-3.02Z"/>
  </g>
</svg>