<?xml version="1.0" encoding="UTF-8"?>
<svg id="Layer_1" data-name="Layer 1" xmlns="http://www.w3.org/2000/svg" viewBox="0 0 65 65">
  <defs>
    <style>
      .cls-1 {
        fill: #f86b71;
      }

      .cls-2 {
        fill: #fff5f5;
      }
    </style>
  </defs>
  <rect class="cls-2" x="0" y="0" width="65" height="65" rx="5.31" ry="5.31"/>
  <path class="cls-1" d="M13.06,33.26c-1.08,0-1.96.88-1.96,1.97v15.29c0,1.08.88,1.96,1.96,1.96h5.22c.83,0,1.57-.53,1.84-1.31h1.37c.91,0,1.7-.63,1.91-1.52,2.04.09,4.34.74,6.58,1.37,1.82.52,3.7,1.06,5.49,1.31.24.03.49.05.73.05,1.37-.01,2.68-.53,3.7-1.44l12.86-11.41c1.22-1.09,1.5-2.88.67-4.29-.96-1.63-3.05-2.17-4.68-1.21l-11.93,7.09-7.32-3.82c-1.76-.92-3.71-1.43-5.69-1.47h-.48c-.29-.75-1.02-1.25-1.83-1.25h-1.37c-.27-.78-1.01-1.31-1.84-1.31h-5.22s0,0,0,0ZM23.47,48.6v-11.74h.33c1.83.04,3.62.51,5.23,1.36l8.45,4.42c.11.06.2.12.3.2.71.59.8,1.65.21,2.36-.51.62-1.39.78-2.09.4l-8.74-4.82c-.25-.14-.57-.05-.71.21s-.05.57.21.71l8.73,4.83c1.32.71,2.97.21,3.68-1.11s.21-2.97-1.11-3.68l-.06-.03,11.38-6.77c.92-.53,2.09-.39,2.86.34.04.04.08.08.12.13.87.98.78,2.48-.2,3.35l-12.86,11.41c-.97.89-2.28,1.31-3.58,1.14-1.72-.24-3.57-.77-5.35-1.27-2.29-.65-4.65-1.32-6.8-1.42ZM21.5,50.13h-1.25v-14.51h1.25c.51,0,.92.41.92.92v12.67c0,.51-.41.92-.92.92ZM12.15,35.23c0-.51.41-.92.92-.92h5.22c.51,0,.92.41.92.92v15.29h0c0,.51-.41.92-.92.92h-5.23c-.51,0-.92-.41-.92-.92v-15.29ZM17.26,43.44c-.77,0-1.4.63-1.4,1.4,0,.77.63,1.4,1.4,1.4s1.4-.63,1.4-1.4c0-.77-.63-1.4-1.4-1.4h0ZM16.91,44.84h0c0-.19.16-.35.35-.35s.35.16.35.35-.16.35-.35.35-.35-.16-.35-.35ZM17.26,47.34s-.01,0-.02,0c-.77,0-1.39.64-1.38,1.41,0,0,0,0,0,0,0,.77.63,1.4,1.4,1.4.77,0,1.4-.63,1.4-1.4,0-.77-.63-1.4-1.4-1.4h0ZM17.26,49.08c-.19,0-.34-.14-.35-.33h0c0-.19.16-.35.35-.35s.35.16.35.35c0,.19-.16.35-.35.35v-.02ZM25.28,21.68c0-.44-.35-.8-.79-.8,0,0,0,0,0,0-.85,0-1.55-.69-1.55-1.54,0-.64.39-1.21.98-1.45l.1-.04v-.26c0-.21.17-.38.38-.38s.38.17.38.38v.22l.11.03c.68.18,1.16.8,1.15,1.5,0,.21-.17.38-.38.38s-.38-.17-.38-.38c.01-.44-.34-.8-.77-.81s-.8.34-.81.77c-.01.44.34.8.77.81,0,0,.01,0,.02,0,.85,0,1.55.69,1.55,1.54,0,.7-.47,1.32-1.15,1.5l-.11.03v.19c0,.21-.17.38-.38.38s-.38-.17-.38-.38v-.23l-.1-.04c-.59-.23-.98-.8-.98-1.44,0-.21.17-.38.38-.38s.38.17.38.38c0,.44.35.8.79.8s.8-.35.8-.79h0ZM24.48,28.46c4.4,0,7.97-3.57,7.97-7.97,0-4.4-3.57-7.97-7.97-7.97-4.4,0-7.97,3.56-7.97,7.97,0,4.4,3.56,7.97,7.97,7.97h0ZM24.48,13.56c3.82,0,6.92,3.1,6.92,6.92,0,3.82-3.1,6.92-6.92,6.92s-6.92-3.1-6.92-6.92,3.1-6.92,6.92-6.92h0ZM28.56,24.92c.07-.06.14-.13.22-.2.6-.59,1.06-1.31,1.36-2.1.07-.19.14-.38.19-.58.14-.51.2-1.04.2-1.57-.01-3.32-2.72-6.01-6.04-6-.53,0-1.06.07-1.57.21-.2.05-.39.11-.58.19-.79.3-1.51.76-2.11,1.35-.07.07-.14.14-.2.21-.22.23-.41.49-.59.75l-.05.07c-.23.34-.41.71-.56,1.1-.06.15-.11.3-.16.46-.16.54-.25,1.11-.25,1.67,0,2.88,2.05,5.36,4.88,5.89.38.08.77.11,1.16.11.57,0,1.14-.09,1.68-.25.16-.04.31-.1.46-.15.4-.15.78-.34,1.14-.57l.05-.03c.27-.17.52-.37.75-.58h0ZM29.31,21.77c-.04.16-.1.32-.15.47-.25.65-.63,1.24-1.13,1.73l-.17.16c-.19.18-.4.35-.62.5-.31.2-.64.36-.99.49-.13.05-.25.09-.38.13-.77.22-1.57.25-2.35.1-2.34-.44-4.04-2.48-4.04-4.87,0-.47.07-.93.2-1.38.04-.13.08-.26.13-.38.12-.33.28-.64.47-.93,0-.02.02-.03.03-.05.14-.22.3-.42.48-.61l.17-.17c.5-.49,1.1-.88,1.75-1.12.16-.06.32-.11.48-.16.42-.11.86-.17,1.3-.17,2.75,0,4.98,2.21,5,4.96,0,.43-.06.87-.17,1.29h0ZM40.43,29.52c0,.44-.36.79-.79.79s-.79-.36-.79-.79c0-.21-.17-.38-.38-.38s-.38.17-.38.38c0,.64.39,1.21.98,1.44l.1.04v.23c0,.21.17.38.38.38s.38-.17.38-.38v-.18l.11-.03c.68-.18,1.16-.79,1.15-1.5,0-.85-.69-1.54-1.55-1.54h0c.44,0-.79-.36-.79-.79,0-.44.36-.79.79-.79.44,0,.79.36.79.79,0,.21.17.38.38.38s.38-.17.38-.38c0-.71-.47-1.33-1.15-1.5l-.11-.03v-.21c0-.21-.17-.38-.38-.38s-.38.17-.38.38v.26l-.1.04c-.59.23-.99.8-.98,1.44,0,.85.7,1.54,1.55,1.54.44,0,.79.36.79.8h0ZM39.63,36.29c4.4,0,7.96-3.57,7.97-7.97,0,0,0,0,0-.01,0-4.4-3.57-7.97-7.97-7.97-4.4,0-7.97,3.57-7.97,7.97,0,4.4,3.57,7.97,7.97,7.97h0ZM39.63,21.4c3.82,0,6.91,3.11,6.91,6.92,0,0,0,0,0,0,0,3.82-3.11,6.92-6.94,6.91-3.82,0-6.92-3.11-6.91-6.94,0-3.82,3.11-6.92,6.94-6.91h0ZM43.92,32.56c.6-.6,1.06-1.31,1.36-2.1.07-.19.13-.38.19-.58.14-.51.21-1.03.21-1.56,0-.52-.07-1.03-.21-1.53-.86-3.22-4.18-5.14-7.4-4.28-.2.05-.39.11-.58.19-.79.3-1.51.76-2.11,1.35-.07.07-.14.14-.2.21-.22.23-.41.49-.59.75l-.05.07c-.22.35-.41.72-.56,1.1-.06.15-.11.3-.16.46-.16.55-.24,1.11-.24,1.68,0,2.89,2.05,5.38,4.89,5.91.38.08.77.11,1.16.11.57,0,1.14-.09,1.68-.25.16-.04.31-.1.46-.15.39-.15.77-.34,1.12-.57l.06-.04c.27-.17.52-.36.75-.58.07-.06.14-.13.21-.2ZM44.46,29.61c-.05.17-.1.32-.15.47-.25.65-.63,1.24-1.13,1.73l-.17.16c-.2.18-.41.34-.63.48-.31.2-.63.37-.98.5-.13.05-.25.09-.38.13-.77.22-1.57.25-2.36.1-2.34-.44-4.04-2.49-4.04-4.87,0-.47.07-.93.2-1.38.04-.13.08-.26.13-.38.13-.32.29-.64.48-.93.15-.23.32-.45.5-.66.05-.06.11-.12.17-.17.5-.49,1.1-.88,1.75-1.12.16-.06.31-.11.48-.16.42-.11.86-.17,1.3-.17,2.75,0,4.99,2.21,5,4.96,0,.43-.06.87-.17,1.29h0Z"/>
</svg>