<?xml version="1.0" encoding="UTF-8"?>
<svg id="Layer_1" data-name="Layer 1" xmlns="http://www.w3.org/2000/svg" viewBox="0 0 45 45">
  <defs>
    <style>
      .cls-1 {
        fill: #293949;
      }

      .cls-2 {
        fill: #f86b71;
      }
    </style>
  </defs>
  <path class="cls-1" d="M23.79,16.2h1.29c.24,0,.47-.14.57-.36,1.37,2.15,3.77,3.58,6.5,3.58s5.13-1.43,6.5-3.58c.11.21.32.36.57.36h1.29c1.06,0,1.93-.87,1.93-1.93v-3.86c0-.82-.53-1.55-1.3-1.81-.18-4.7-4.05-8.47-8.79-8.47h-.38c-4.74,0-8.61,3.77-8.79,8.47-.78.27-1.3.99-1.3,1.81v3.86c0,1.06.87,1.93,1.93,1.93ZM32.14,18.13c-3.54,0-6.43-2.88-6.43-6.43s2.88-6.43,6.43-6.43,6.43,2.88,6.43,6.43-2.88,6.43-6.43,6.43ZM41.14,14.28c0,.35-.29.64-.64.64h-.64v-5.14h.64c.35,0,.64.29.64.64v3.86ZM31.95,1.42h.38c4,0,7.26,3.13,7.5,7.07h-.62s-.04.01-.06.01c-1.22-2.66-3.9-4.51-7.01-4.51s-5.79,1.85-7.01,4.51c-.02,0-.04-.01-.06-.01h-.62c.24-3.94,3.51-7.07,7.5-7.07ZM23.14,10.42c0-.35.29-.64.64-.64h.64v5.14h-.64c-.35,0-.64-.29-.64-.64v-3.86ZM36.45,20.7c-.35,0-.64.29-.64.64,0,.91-1.51,1.93-3.67,1.93s-3.67-1.02-3.67-1.93c0-.35-.29-.64-.64-.64-3.08,0-5.87,1.47-7.4,3.86H5.79c-1.06,0-1.93.87-1.93,1.93v14.9c-.77.27-1.28,1-1.29,1.81,0,.23.05.44.12.64H.65c-.35,0-.64.29-.64.64s.29.64.64.64h43.7c.35,0,.64-.29.64-.64v-16.07c0-4.25-3.83-7.71-8.54-7.71ZM5.79,25.84h21.85c.35,0,.64.29.64.64v14.78H5.15v-14.78c0-.35.29-.64.64-.64ZM4.51,43.84c-.35,0-.64-.29-.64-.64s.29-.64.64-.64h24.42c.35,0,.64.29.64.64s-.29.64-.64.64H4.51ZM43.71,43.84h-7.71c-.71,0-1.29-.58-1.29-1.29s.58-1.29,1.29-1.29h3.86c.35,0,.64-.29.64-.64v-10.28c0-.35-.29-.64-.64-.64s-.64.29-.64.64v9.64h-3.21c-1.42,0-2.57,1.15-2.57,2.57,0,.47.14.91.36,1.29h-3.05c.07-.2.12-.42.12-.64,0-.81-.52-1.54-1.29-1.81v-14.9c0-1.06-.87-1.93-1.93-1.93h-5.6c1.25-1.48,3.15-2.42,5.25-2.55.46,1.47,2.43,2.55,4.85,2.55s4.39-1.08,4.85-2.55c3.75.25,6.72,3.03,6.72,6.41v15.42Z"/>
  <path class="cls-2" d="M16.72,36.13c1.42,0,2.57-1.15,2.57-2.57s-1.15-2.57-2.57-2.57-2.57,1.15-2.57,2.57,1.15,2.57,2.57,2.57ZM16.72,32.27c.71,0,1.29.58,1.29,1.29s-.58,1.29-1.29,1.29-1.29-.58-1.29-1.29.58-1.29,1.29-1.29ZM7.08,39.98h19.28c.35,0,.64-.29.64-.64s-.29-.64-.64-.64H7.08c-.35,0-.64.29-.64.64s.29.64.64.64Z"/>
</svg>