<?xml version="1.0" encoding="UTF-8"?>
<svg id="Layer_1" data-name="Layer 1" xmlns="http://www.w3.org/2000/svg" viewBox="0 0 65 65">
  <defs>
    <style>
      .cls-1 {
        letter-spacing: 0em;
      }

      .cls-2 {
        font-family: Raleway-Bold, Raleway;
        font-size: 4.33px;
        font-weight: 700;
        isolation: isolate;
      }

      .cls-2, .cls-3 {
        fill: #f86b71;
      }

      .cls-3 {
        fill-rule: evenodd;
      }

      .cls-4 {
        fill: #fff5f5;
      }
    </style>
  </defs>
  <rect class="cls-4" y=".26" width="65" height="65" rx="5.31" ry="5.31"/>
  <g>
    <path class="cls-3" d="M15.88,37.67h0c-.25-.23-.63-.22-.87.03-.17.19-.21.45-.1.68h.03c.09.13.23.21.38.24.16.02.3-.02.43-.11.32.05.6-.01.65-.33s-.17-.62-.49-.67l-.03.16h0ZM15.88,37.67h0c-.25-.23-.63-.22-.87.03-.17.19-.21.45-.1.68h.03c.09.13.23.21.38.24.16.02.3-.02.43-.11.32.05.6-.01.65-.33s-.17-.62-.49-.67l-.03.16h0ZM55.97,25.95c-.01-.09-.04-.18-.1-.25l-3.83-5.22-.5.34c-.14.12-.31.2-.49.23l-.59-.02c-.22-.06-.43-.15-.62-.27-.19-.1-.36-.25-.49-.42-.13-.18-.23-.38-.29-.6-.05-.21-.06-.44-.03-.66.02-.2.07-.41.16-.59l.34-.4.5-.34-.15-.16-.76-1.09c-1.03-1.44-2.59-3.65-2.95-3.98l-.18-.16-.26-.11-.28.03-.22.1L11.7,36.99c-.07.05-.13.13-.17.21-.05.06-.09.15-.11.22-.01.09,0,.19.03.28.02.09.05.17.1.25l.37.51-2.72,2c-.23.18-.28.51-.11.75l1.66,2.26c.15.19.41.23.61.09l.42-.28c.11-.09.25-.14.4-.11.14.02.26.11.35.23.15.24.1.56-.11.75l-.42.28c-.19.15-.23.41-.09.61l5.49,7.45c.14.25.45.35.69.21.04-.03.08-.05.12-.09l2.68-1.94.34.47.21.17.22.11.28-.03.25-.1,33.54-24.6c.07-.05.13-.13.17-.21.05-.08.09-.17.11-.26.01-.09,0-.17-.03-.24h0ZM14.58,36.91c.3-.22.68-.32,1.04-.25.36.05.68.25.89.55.22.3.32.68.25,1.04-.05.36-.25.68-.55.89-.29.23-.65.32-1.01.26-.36-.06-.7-.25-.92-.55-.22-.29-.31-.65-.26-1.01s.25-.7.55-.92ZM17.9,51.76l-.72-.94,1.71-1.25-.48-.69-1.71,1.25-.64-.82,1.71-1.25-.51-.7-1.68,1.26-.64-.82,1.71-1.25-.51-.7-1.71,1.25-.66-.9,1.71-1.25-.48-.69-1.71,1.25-.46-.63v-.07c.31-.21.51-.53.56-.89.06-.36-.03-.74-.25-1.04-.21-.29-.53-.49-.89-.55s-.74.03-1.04.25l-.08.06-.28-.39,1.71-1.25-.48-.69-1.71,1.25-.43-.58,2.49-1.83,7.91,10.82-2.45,1.8v-.02ZM49.84,26.95l-25.62,18.77c-.1.1-.28.11-.39,0,0,0-.01-.02-.03-.03h0l-6.14-8.41c-.08-.13-.06-.3.06-.4l25.59-18.78c.13-.08.3-.06.4.06l6.18,8.38c.08.13.06.3-.06.4h0ZM14.94,38.39c.09.13.23.21.38.23.16.02.3-.02.43-.11.26-.2.32-.57.13-.85h0c-.25-.23-.63-.22-.87.03-.17.19-.21.45-.1.68h.03s0,0,0,0Z"/>
    <text class="cls-2" transform="translate(25.66 39.45) rotate(-36.22)"><tspan x="0" y="0">NV</tspan><tspan class="cls-1" x="6.24" y="0">M</tspan><tspan x="9.96" y="0">e SSD</tspan></text>
  </g>
</svg>