<?xml version="1.0" encoding="UTF-8"?>
<svg id="Layer_1" data-name="Layer 1" xmlns="http://www.w3.org/2000/svg" viewBox="0 0 65 65">
  <defs>
    <style>
      .cls-1 {
        fill: #f86b71;
      }

      .cls-2 {
        fill: #fff5f5;
      }
    </style>
  </defs>
  <rect class="cls-2" y="0" width="65" height="65" rx="5.31" ry="5.31"/>
  <g>
    <path class="cls-1" d="M51.27,32.4c.02,6.92-2.92,14.74-9.61,17.68-3.82,1.68-7.49,1.47-11.28-.09-1-.41-.67-.49-1.84-.48-3.11.02-5.54-.2-8.42-1.45-12.73-5.54-14.61-22.9-3.29-30.99,8.43-6.03,20.03-3.61,25.56,5l2.09-2.84c.37-.29.65-.23,1.02,0l10,11.95c.36.3.01,1.2-.37,1.2h-3.86ZM39.83,25.34c.14.04.15-.02.22-.1.47-.46.84-1.34,1.34-1.82-4.8-8.39-16.04-10.8-23.88-5-13.19,9.76-5.51,30.6,10.92,29.61,5.03-.3,9.31-3.81,10.64-8.65-4.49,6.63-13.51,8.44-20.11,3.7-8.39-6.03-7.57-18.83,1.45-23.8,7-3.86,15.93-1.08,19.41,6.06ZM39.83,32.4h-3.77c-.36,0-.7-.78-.46-1.11l3.26-4.46c-2.91-7.34-12.09-10.11-18.68-5.66-8.48,5.71-6.94,18.68,2.61,22.28,7.96,3,16.54-2.63,17.04-11.04ZM37.79,30.92h3.21c.25,0,.49.45.51.7.16,1.37-.09,3.79-.29,5.2-.79,5.55-3.79,10.28-9.29,12.06-.04.24.02.14.13.19,1.41.64,3.96.81,5.48.63,7.55-.89,11.49-8.07,12.15-15.01.09-.93-.03-2.22.12-3.05.03-.18.35-.72.49-.72h2.93l-8.14-9.86-7.3,9.86Z"/>
    <path class="cls-1" d="M28.04,31.27l3.23,1.93c.33.56-.21,1.25-.83,1.12-.36-.08-2.18-1.2-2.63-1.47-.24-.15-1.14-.64-1.23-.82l-.04-5.62c.12-.79,1.33-.79,1.47.28.09.69-.11,4.37.02,4.58Z"/>
    <path class="cls-1" d="M19.53,23.4c.79-.18,2.37,1.54,1.42,2.16-.28.18-.55.16-.82,0-.1-.06-1.05-.99-1.07-1.06-.19-.45,0-.99.48-1.1Z"/>
    <path class="cls-1" d="M34.51,23.41c.67-.18,1.13.39.93,1.03-.03.1-.98,1.05-1.1,1.13-.67.38-1.28-.17-1.09-.9.07-.28.98-1.18,1.26-1.26Z"/>
    <path class="cls-1" d="M27.16,20.24c.92-.12.94,1.26.85,1.88-.15,1.02-1.38,1.02-1.48.2-.08-.62-.17-1.97.63-2.08Z"/>
    <path class="cls-1" d="M20.28,37.63c.65-.17,1.12.39.93,1.03-.03.1-.98,1.05-1.1,1.13-.67.38-1.28-.17-1.09-.9.07-.27.98-1.18,1.26-1.26Z"/>
    <path class="cls-1" d="M33.76,37.63c.79-.18,2.37,1.54,1.42,2.16s-2.89-1.83-1.42-2.16Z"/>
    <path class="cls-1" d="M18.32,31.13c.24.29.23.72-.01,1-.55.64-3.16.33-2.32-.93.28-.42,2.06-.41,2.34-.07Z"/>
    <path class="cls-1" d="M27.81,40.61c.31.36.28,1.6.08,2.02-.27.58-1.23.46-1.35-.15-.04-.21-.04-1.46.02-1.65.14-.48.94-.6,1.25-.22Z"/>
  </g>
</svg>