<?xml version="1.0" encoding="UTF-8"?>
<svg id="Layer_1" data-name="Layer 1" xmlns="http://www.w3.org/2000/svg" viewBox="0 0 80 80">
  <defs>
    <style>
      .cls-1 {
        fill: #fff;
      }

      .cls-2 {
        fill: #f6355a;
      }
    </style>
  </defs>
  <rect class="cls-2" x="-.15" y="-.15" width="80.3" height="80.3" rx="21.61" ry="21.61"/>
  <g>
    <path class="cls-1" d="M33.79,59.31c-5.64,0-10.93-2.19-14.92-6.18-3.99-3.99-6.19-9.29-6.19-14.93,0-11.64,9.46-21.12,21.1-21.12h0c6.01,0,11.74,2.57,15.75,7.05,3.46,3.87,5.37,8.86,5.37,14.06,0,11.64-9.46,21.11-21.1,21.12h0ZM33.79,18.69h0c-10.76,0-19.5,8.76-19.5,19.52,0,5.21,2.03,10.11,5.72,13.79,3.68,3.68,8.58,5.71,13.79,5.71h0c10.76,0,19.5-8.76,19.5-19.52h0c0-4.8-1.76-9.41-4.96-12.99-3.7-4.14-9-6.51-14.55-6.51Z"/>
    <path class="cls-1" d="M33.79,59.3c-3.26,0-6.29-2.26-8.52-6.37-2.15-3.95-3.34-9.19-3.34-14.74s1.19-10.79,3.34-14.74c2.24-4.11,5.26-6.37,8.52-6.37s6.29,2.26,8.52,6.37c2.15,3.95,3.34,9.19,3.34,14.74s-1.19,10.79-3.34,14.74c-2.24,4.11-5.26,6.37-8.52,6.37ZM33.79,18.68c-2.65,0-5.17,1.96-7.12,5.53-2.03,3.72-3.14,8.68-3.14,13.98s1.12,10.26,3.14,13.98c1.94,3.57,4.47,5.53,7.12,5.53s5.17-1.96,7.12-5.53c2.03-3.72,3.14-8.68,3.14-13.98s-1.12-10.26-3.14-13.98c-1.94-3.57-4.47-5.53-7.12-5.53Z"/>
    <path class="cls-1" d="M33.79,59.3c-.44,0-.8-.36-.8-.8v-10.27c-5.16.13-10.04,1.47-14.17,3.91-.38.23-.87.1-1.1-.28-.23-.38-.1-.87.28-1.1,4.38-2.58,9.54-4,14.99-4.13v-7.63H13.49c-.44,0-.8-.36-.8-.8s.36-.8.8-.8h19.51v-8.03c-5.35-.12-10.43-1.5-14.75-3.99l-.85-.49.66-.74c3.75-4.21,8.92-6.7,14.55-7.02,5.63-.32,11.05,1.57,15.25,5.32.6.53,1.17,1.1,1.7,1.7l1.19,1.34h-1.58c-4.28,2.43-9.29,3.76-14.56,3.89v8.03h19.51c.44,0,.8.36.8.8s-.36.8-.8.8h-19.51v7.63c5.45.13,10.61,1.55,14.99,4.13.38.23.51.72.28,1.1-.23.38-.72.51-1.1.28-4.13-2.44-9.02-3.78-14.17-3.91v10.27c0,.44-.36.8-.8.8ZM19.93,24.46c3.88,2.04,8.36,3.17,13.06,3.29v-9.05c-.1,0-.2,0-.31.02-4.86.28-9.35,2.31-12.75,5.75ZM34.6,18.7v9.06c4.7-.12,9.18-1.24,13.06-3.29-.28-.29-.57-.56-.87-.83-3.41-3.04-7.68-4.76-12.18-4.94Z"/>
    <path class="cls-1" d="M52.61,62.92l-5.79-19.15c-.38-1.25.89-2.36,2.08-1.81l18.42,8.46-.13.05c-6.07,2.49-11.17,6.85-14.58,12.45h0Z"/>
  </g>
</svg>