<?xml version="1.0" encoding="UTF-8"?>
<svg id="Layer_1" data-name="Layer 1" xmlns="http://www.w3.org/2000/svg" viewBox="0 0 45 45">
  <defs>
    <style>
      .cls-1 {
        fill: #293949;
      }

      .cls-2 {
        fill: #f86b71;
      }
    </style>
  </defs>
  <path class="cls-2" d="M35.82,14.38c-4.6,0-8.48,3.38-9.2,7.76l-.36-.36c-.29-.29-.72-.29-1.01,0s-.29.72,0,1.01l1.44,1.44c.14.14.43.29.79.14.29-.07.43-.36.43-.65,0-4.38,3.52-7.91,7.91-7.91s7.91,3.52,7.91,7.91c0,.43.29.72.72.72s.72-.29.72-.72c0-5.18-4.17-9.34-9.34-9.34ZM44.15,26.16c-.36-.14-.79.07-.93.43-1.15,3.02-4.17,5.03-7.4,5.03-1.94,0-3.81-.72-5.25-2.01-.29-.29-.72-.22-1.01.07s-.22.72.07,1.01c1.73,1.58,3.95,2.44,6.25,2.44,3.81,0,7.33-2.37,8.7-5.97.07-.43-.07-.86-.43-1.01Z"/>
  <path class="cls-1" d="M35.82,24.44c.43,0,.72-.29.72-.72v-5.75c0-.43-.29-.72-.72-.72s-.72.29-.72.72v5.03h-2.16c-.43,0-.72.29-.72.72s.29.72.72.72h2.88ZM7.07,34.14c.43,0,.72-.29.72-.72V2.16c0-.43.29-.72.72-.72h12.65l4.82,4.82c.29.29.72.29,1.01,0s.29-.72,0-1.01l-2.59-2.59,9.06,3.59c-1.15.65-2.08,1.65-2.52,2.95l-1.87-1.87c-.29-.29-.72-.29-1.01,0s-.29.72,0,1.01l2.88,2.88c.14.14.43.29.79.14.29-.07.43-.36.43-.65,0-1.73,1.22-3.16,2.88-3.52v4.89c0,.43.29.72.72.72s.72-.29.72-.72v-5.61c0-.5-.43-.65-.43-.65L21.66,0h-13.15c-1.22,0-2.16.93-2.16,2.16v31.27c0,.43.29.72.72.72ZM7.07,38.96c.43,0,.72-.29.72-.72v-1.58c0-.43-.29-.72-.72-.72s-.72.29-.72.72v1.58c0,.43.29.72.72.72ZM35.82,34.64c-.43,0-.72.29-.72.72v7.04c0,.43-.29.72-.72.72H8.5c-.43,0-.72-.29-.72-.72v-1.44c0-.43-.29-.72-.72-.72s-.72.29-.72.72v1.44c0,1.22.93,2.16,2.16,2.16h25.88c1.22,0,2.16-.93,2.16-2.16v-7.04c0-.36-.29-.72-.72-.72Z"/>
  <path class="cls-1" d="M9.94,5.75c.43,0,.72-.29.72-.72v-.72h.72c.43,0,.72-.29.72-.72s-.29-.72-.72-.72h-1.44c-.43,0-.72.29-.72.72v1.44c0,.43.29.72.72.72ZM32.94,38.81c-.43,0-.72.29-.72.72v.72h-.72c-.43,0-.72.29-.72.72s.29.72.72.72h1.44c.43,0,.72-.29.72-.72v-1.44c0-.43-.29-.72-.72-.72ZM15.69,4.31c.43,0,.72-.29.72-.72s-.29-.72-.72-.72h-1.44c-.43,0-.72.29-.72.72s.29.72.72.72h1.44ZM9.94,8.63h14.38c.43,0,.72-.29.72-.72s-.29-.72-.72-.72h-14.38c-.43,0-.72.29-.72.72s.29.72.72.72ZM32.94,35.94H9.94c-.43,0-.72.29-.72.72s.29.72.72.72h23c.43,0,.72-.29.72-.72s-.29-.72-.72-.72ZM30.78,13.66c0-.43-.29-.72-.72-.72H9.94c-.43,0-.72.29-.72.72s.29.72.72.72h20.13c.43,0,.72-.29.72-.72ZM26.47,19.41c0-.43-.29-.72-.72-.72h-15.81c-.43,0-.72.29-.72.72s.29.72.72.72h15.81c.43,0,.72-.29.72-.72ZM24.32,24.44h-14.38c-.43,0-.72.29-.72.72s.29.72.72.72h14.38c.43,0,.72-.29.72-.72s-.29-.72-.72-.72ZM27.19,30.19H9.94c-.43,0-.72.29-.72.72s.29.72.72.72h17.25c.43,0,.72-.29.72-.72s-.29-.72-.72-.72Z"/>
</svg>