<?xml version="1.0" encoding="UTF-8"?>
<svg xmlns="http://www.w3.org/2000/svg" viewBox="0 0 144 44">
  <defs>
    <style>
      .cls-1 {
        mix-blend-mode: soft-light;
        opacity: .61;
      }

      .cls-1, .cls-2 {
        fill: #f6355a;
      }

      .cls-3 {
        isolation: isolate;
      }
    </style>
  </defs>
  <g class="cls-3">
    <g id="Layer_1" data-name="Layer 1">
      <g>
        <polygon class="cls-2" points="27.81 40.94 33.79 43.66 31.72 41.12 27.81 40.94"/>
        <g>
          <path class="cls-2" d="M83.1,32.08c0,6.39-5.2,11.58-11.59,11.58h-25.76c-.75,0-1.36-.61-1.36-1.36s.61-1.36,1.36-1.36h25.76c4.89,0,8.87-3.98,8.87-8.86,0-4.12-2.91-7.75-6.93-8.65-.37-.08-.68-.31-.87-.63-.19-.32-.24-.71-.14-1.07.36-1.29.55-2.63.55-3.98,0-8.1-6.59-14.69-14.69-14.69-7.55,0-13.83,5.65-14.61,13.14-.05.51-.39.95-.87,1.13-.48.18-1.02.08-1.4-.27-1.93-1.76-4.72-2.2-7.09-1.12-2.57,1.17-4.09,3.85-3.77,6.66.05.49-.16.96-.55,1.25-.39.29-.92.34-1.36.14-1.15-.52-2.38-.78-3.65-.78-4.89,0-8.86,3.98-8.86,8.86s3.98,8.86,8.86,8.86h6.59l2.21,2.72h-8.8c-6.39,0-11.58-5.2-11.58-11.58s5.2-11.59,11.58-11.59c.97,0,1.93.12,2.85.36.35-3.19,2.34-6.01,5.35-7.38,2.65-1.21,5.67-1.08,8.16.25.81-3.4,2.63-6.49,5.25-8.87,3.21-2.91,7.36-4.51,11.69-4.51,9.6,0,17.41,7.81,17.41,17.41,0,1.15-.11,2.29-.33,3.41,2,.71,3.79,1.97,5.14,3.63,1.67,2.05,2.58,4.64,2.58,7.29Z"/>
          <path class="cls-2" d="M60.62,8.24h-.04c-.75,0-1.36-.61-1.36-1.36s.61-1.36,1.36-1.36h.05c.75,0,1.36.62,1.36,1.37,0,.75-.61,1.36-1.36,1.36Z"/>
          <path class="cls-2" d="M68.9,19.11c-.75,0-1.36-.61-1.36-1.36,0-3.29-1.77-6.36-4.62-8.01-.65-.38-.87-1.21-.5-1.86.38-.65,1.21-.87,1.86-.5,3.69,2.14,5.98,6.11,5.98,10.36,0,.75-.61,1.36-1.36,1.36Z"/>
        </g>
        <circle class="cls-2" cx="29.76" cy="34.46" r=".25"/>
        <path class="cls-2" d="M31.58,40.94l-.14-.17,2.34,2.89-2.21-2.72Z"/>
        <g>
          <path class="cls-2" d="M36.44,36.27h3.85v2.27h-6.79v-12.07h2.94v9.8Z"/>
          <path class="cls-2" d="M44.29,37.75c-.95-.53-1.7-1.26-2.25-2.21-.56-.95-.83-2.01-.83-3.19s.28-2.24.83-3.18c.56-.94,1.31-1.67,2.25-2.2.95-.53,1.98-.79,3.12-.79s2.17.26,3.12.79c.95.53,1.69,1.26,2.23,2.2.54.94.82,2,.82,3.18s-.28,2.24-.83,3.19c-.55.95-1.29,1.68-2.23,2.21-.94.53-1.98.79-3.11.79s-2.17-.26-3.12-.79ZM49.72,34.89c.58-.64.87-1.49.87-2.54s-.29-1.92-.87-2.55c-.58-.64-1.35-.95-2.31-.95s-1.75.32-2.33.95c-.58.63-.87,1.48-.87,2.56s.29,1.92.87,2.55c.58.64,1.35.95,2.33.95s1.73-.32,2.31-.96Z"/>
          <path class="cls-2" d="M58.1,26.47v7.22c0,.72.18,1.28.53,1.67.35.39.88.58,1.56.58s1.21-.19,1.58-.58c.37-.39.55-.95.55-1.67v-7.22h2.94v7.2c0,1.08-.23,1.99-.69,2.73-.46.75-1.07,1.31-1.85,1.68-.77.38-1.64.57-2.59.57s-1.8-.19-2.55-.56c-.75-.37-1.34-.93-1.78-1.68-.44-.75-.65-1.66-.65-2.74v-7.2h2.94Z"/>
          <path class="cls-2" d="M75.18,27.23c.95.5,1.69,1.21,2.21,2.12.52.91.78,1.96.78,3.15s-.26,2.23-.78,3.15c-.52.92-1.26,1.63-2.22,2.13-.96.5-2.07.76-3.33.76h-4.52v-12.07h4.52c1.27,0,2.38.25,3.33.76ZM74.25,35.08c.62-.61.93-1.47.93-2.58s-.31-1.98-.93-2.6c-.62-.62-1.48-.93-2.6-.93h-1.39v7.01h1.39c1.11,0,1.98-.3,2.6-.91Z"/>
        </g>
        <g>
          <path class="cls-2" d="M95.72,26.47v12.07h-2.94v-4.97h-4.57v4.97h-2.94v-12.07h2.94v4.73h4.57v-4.73h2.94Z"/>
          <path class="cls-2" d="M100.42,37.87c-.95-.53-1.7-1.26-2.25-2.21-.56-.95-.83-2.01-.83-3.19s.28-2.24.83-3.18c.56-.94,1.31-1.67,2.25-2.2.95-.53,1.99-.79,3.12-.79s2.17.26,3.12.79c.95.53,1.69,1.26,2.23,2.2.54.94.82,2,.82,3.18s-.28,2.24-.83,3.19c-.55.95-1.29,1.68-2.23,2.21-.94.53-1.98.79-3.11.79s-2.17-.26-3.12-.79ZM105.86,35.01c.58-.64.87-1.49.87-2.54s-.29-1.92-.87-2.55c-.58-.64-1.35-.95-2.31-.95s-1.75.32-2.33.95c-.58.63-.87,1.48-.87,2.56s.29,1.92.87,2.55c.58.64,1.35.95,2.33.95s1.73-.32,2.31-.96Z"/>
          <path class="cls-2" d="M113.34,38.23c-.7-.29-1.26-.71-1.68-1.27-.42-.56-.64-1.24-.66-2.03h3.13c.05.45.2.79.46,1.02.26.23.61.35,1.03.35s.78-.1,1.03-.3c.25-.2.38-.48.38-.83,0-.3-.1-.54-.3-.74-.2-.19-.45-.35-.74-.48-.29-.13-.71-.27-1.25-.43-.78-.24-1.42-.48-1.91-.72s-.92-.6-1.27-1.07c-.36-.47-.53-1.08-.53-1.84,0-1.12.41-2,1.22-2.64.81-.64,1.87-.95,3.18-.95s2.4.32,3.21.95c.81.64,1.25,1.52,1.31,2.66h-3.18c-.02-.39-.17-.7-.43-.92s-.6-.34-1.01-.34c-.36,0-.64.09-.86.28-.22.19-.33.46-.33.82,0,.39.18.69.55.91.37.22.94.45,1.72.7.78.26,1.41.52,1.9.76.49.24.91.59,1.26,1.05.35.46.53,1.05.53,1.77s-.17,1.31-.52,1.87c-.35.56-.86,1.01-1.52,1.34-.66.33-1.45.5-2.35.5s-1.67-.14-2.37-.43Z"/>
          <path class="cls-2" d="M130.6,26.47v2.35h-3.2v9.71h-2.94v-9.71h-3.2v-2.35h9.33Z"/>
        </g>
        <polygon class="cls-1" points="31.28 40.94 33.79 43.66 27.24 43.66 24.3 40.91 31.28 40.94"/>
        <path class="cls-2" d="M31.44,40.77l-2.54-3.12c.81-.61,1.44-1.37,1.89-2.3.45-.93.68-1.95.68-3.06,0-1.28-.3-2.42-.88-3.44-.59-1.01-1.39-1.81-2.42-2.38-1.02-.57-2.15-.85-3.38-.85s-2.35.28-3.38.85c-1.02.57-1.83,1.37-2.44,2.38-.6,1.02-.9,2.17-.9,3.44s.3,2.42.9,3.45c.6,1.02,1.41,1.82,2.44,2.39,1.02.57,2.15.85,3.38.85.47,0,.95-.05,1.45-.15l1.57,2.1,5.98,2.72-2.34-2.89ZM27.29,35.04c-.62.7-1.46,1.04-2.5,1.04s-1.89-.34-2.52-1.03c-.63-.69-.94-1.61-.94-2.76s.31-2.09.94-2.77c.63-.68,1.47-1.03,2.52-1.03s1.88.34,2.5,1.03c.63.69.94,1.61.94,2.76s-.31,2.06-.94,2.75Z"/>
      </g>
    </g>
  </g>
</svg>