<?xml version="1.0" encoding="UTF-8"?>
<svg id="Layer_1" data-name="Layer 1" xmlns="http://www.w3.org/2000/svg" xmlns:xlink="http://www.w3.org/1999/xlink" viewBox="0 0 120 108">
  <defs>
    <style>
      .cls-1 {
        mask: url(#mask);
      }

      .cls-2 {
        fill: none;
      }

      .cls-3 {
        fill: #f6355a;
      }

      .cls-4 {
        opacity: .26;
      }

      .cls-5 {
        clip-path: url(#clippath);
      }
    </style>
    <filter id="luminosity-noclip" x="92.05" y="-287.46" width="1101.64" height="604.14" color-interpolation-filters="sRGB" filterUnits="userSpaceOnUse">
      <feFlood flood-color="#fff" result="bg"/>
      <feBlend in="SourceGraphic" in2="bg"/>
    </filter>
    <mask id="mask" x="92.05" y="-287.46" width="1101.64" height="604.14" maskUnits="userSpaceOnUse"/>
    <clipPath id="clippath">
      <rect class="cls-2" x="413.14" y="-167.05" width="447.16" height="422.6" transform="translate(1273.43 88.51) rotate(-180)"/>
    </clipPath>
  </defs>
  <g class="cls-1">
    <g class="cls-4">
      <g class="cls-5">
        <g>
          <path class="cls-3" d="M92.05-287.46h1101.64V316.68H92.05V-287.46ZM1192.27-286.22H93.48s0,601.65,0,601.65h1098.8s0-601.65,0-601.65Z"/>
          <rect class="cls-3" x="92.76" y="104.42" width="1100.22" height="1.25"/>
          <rect class="cls-3" x="92.76" y="74.28" width="1100.22" height="1.25"/>
          <rect class="cls-3" x="92.76" y="44.13" width="1100.22" height="1.25"/>
          <rect class="cls-3" x="92.76" y="13.99" width="1100.22" height="1.25"/>
        </g>
      </g>
    </g>
  </g>
  <g>
    <path class="cls-3" d="M57.28.09c32.32-2.13,54.28,32.57,38.4,60.93-14.56,26.01-51.55,28.09-68.96,3.86C7.97,38.8,25.37,2.2,57.28.09ZM57.75,7.52c-26.09,1.75-40.35,31.79-24.89,53.08,14.15,19.49,43.87,18.11,56.01-2.69,13.54-23.2-4.44-52.18-31.12-50.39Z"/>
    <path class="cls-3" d="M48.74,84.09l-13.59,23.91-5.6-15.52-1.33-.48-15.47,3,13.7-24.15c.35-.09.38.09.58.23,1.44,1,3.29,3.35,4.88,4.64,4.79,3.89,10.81,6.97,16.83,8.37Z"/>
    <path class="cls-3" d="M107.25,95l-15.28-2.97c-1.48-.09-1.8.57-2.31,1.75-1.9,4.39-2.99,9.74-4.81,14.22l-13.81-23.57c2.51-1.01,5.11-1.73,7.58-2.86,5.54-2.54,10.45-6.29,14.59-10.72l14.05,24.14Z"/>
    <path class="cls-3" d="M57.98,11.24c23.28-1.57,39.25,23.21,28.27,43.82-10.46,19.63-38.49,21.03-50.93,2.62-12.9-19.07-.16-44.91,22.67-46.45ZM67.61,29.91c-1.43-2.1-2.59-4.43-4.06-6.51-3.23-4.58-4.25-4.16-7.34.23-1.4,1.99-2.55,4.21-3.82,6.28-2.81.85-5.8,1.25-8.58,2.22-1.56.54-3.22.84-3.22,2.84,0,2.35,5.5,7.53,6.94,9.57-.08,3.47-.74,7.18-.43,10.64.16,1.72,1.44,2.4,3.09,2.14,2.96-.47,6.66-2.75,9.59-3.65,2.72.42,8.87,4.2,11.31,3.66,1.19-.26,1.7-1.24,1.8-2.38.31-3.4-.41-7.01-.43-10.41,1.46-2.81,10.53-9.4,5.06-11.88-3.01-1.37-6.76-1.71-9.91-2.74Z"/>
    <path class="cls-3" d="M74.98,35.56c-1.32,2.16-3.4,3.92-4.87,5.93-1.2,1.64-1.48,2.03-1.41,4.18.02.57.78,7.54.35,7.54-2.97-.74-7.26-3.81-10.29-3.1-1.05.25-7.65,3.41-7.94,3.09.02-1.12-.04-2.24,0-3.36.07-1.79.74-4.7.3-6.35-.37-1.42-6.47-7.58-6.11-7.94,2.55-.69,5.45-1.1,7.94-1.93,3.49-1.16,4.61-6.2,7.03-8.75l5.14,7.85c3,1.59,6.57,1.95,9.83,2.82Z"/>
  </g>
</svg>