<?xml version="1.0" encoding="UTF-8"?>
<svg id="Layer_1" data-name="Layer 1" xmlns="http://www.w3.org/2000/svg" xmlns:xlink="http://www.w3.org/1999/xlink" viewBox="0 0 120 108">
  <defs>
    <style>
      .cls-1 {
        mask: url(#mask);
      }

      .cls-2 {
        fill: none;
      }

      .cls-3 {
        fill: #f6355a;
      }

      .cls-4 {
        opacity: .26;
      }

      .cls-5 {
        clip-path: url(#clippath);
      }
    </style>
    <filter id="luminosity-noclip" x="92.05" y="-155.98" width="1101.64" height="604.14" color-interpolation-filters="sRGB" filterUnits="userSpaceOnUse">
      <feFlood flood-color="#fff" result="bg"/>
      <feBlend in="SourceGraphic" in2="bg"/>
    </filter>
    <mask id="mask" x="92.05" y="-155.98" width="1101.64" height="604.14" maskUnits="userSpaceOnUse"/>
    <clipPath id="clippath">
      <rect class="cls-2" x="413.14" y="-35.57" width="447.16" height="422.6" transform="translate(1273.43 351.47) rotate(-180)"/>
    </clipPath>
  </defs>
  <g class="cls-1">
    <g class="cls-4">
      <g class="cls-5">
        <g>
          <path class="cls-3" d="M92.05-155.98h1101.64V448.16H92.05V-155.98ZM1192.27-154.74H93.48s0,601.65,0,601.65h1098.8s0-601.65,0-601.65Z"/>
          <rect class="cls-3" x="92.76" y="85.17" width="1100.22" height="1.25"/>
          <rect class="cls-3" x="92.76" y="55.03" width="1100.22" height="1.25"/>
          <rect class="cls-3" x="92.76" y="24.88" width="1100.22" height="1.25"/>
        </g>
      </g>
    </g>
  </g>
  <g>
    <path class="cls-3" d="M36.56,7.43c13.26-1.19,22.45,12.81,15.87,24.48-5.95,10.54-21.22,11-27.89.92-6.76-10.23-.18-24.3,12.02-25.4ZM37.86,11.9c-1.57.33-.82,1.94-1.16,2.41-.07.1-1.78.68-2.23.96-3.26,2.05-3.38,6.73,0,8.73,1.91,1.13,5.62,1.15,6.89,2.47,2.95,3.06-4.34,5.66-6.62,2.12-.26-.4-.33-.93-.59-1.29-.9-1.23-2.68-.64-2.64.94.05,2.37,2.86,4.55,5.08,4.86.4.3-.27,2.67,1.76,2.53,1.58-.11,1.26-2.27,1.6-2.53.18-.14,1.53-.39,2.01-.62,3.7-1.73,4-6.29.79-8.73-2.02-1.53-4.25-1.16-6.29-2.13-3.89-1.86.46-6.1,3.86-3.86,1.18.78,1.63,3.12,3.34,2.37,2.35-1.02-.62-4.32-1.96-5.07-.45-.25-1.58-.55-1.75-.69-.38-.33-.05-2.93-2.11-2.5Z"/>
    <path class="cls-3" d="M86.85,90.08c-.23-.22-.36-.62-.5-.91l-.11-53.23c.13-.93.66-1.74,1.62-1.94,1.11-.22,7.01-.21,8.18-.03.67.1,1.48.66,1.67,1.33l.11,53.61c-.16.77-.63,1.37-1.4,1.59-2.7-.23-5.98.34-8.61.02-.35-.04-.71-.2-.96-.45Z"/>
    <path class="cls-3" d="M65.5,90.08c-.23-.22-.36-.62-.5-.91l-.08-42.71c.23-.83.87-1.49,1.75-1.62,1.18-.18,7.08-.19,8.18.03.89.18,1.55,1.02,1.64,1.92l-.05,42.09c-.16.81-.55,1.4-1.37,1.63-2.7-.23-5.98.34-8.61.02-.35-.04-.71-.2-.96-.45Z"/>
    <path class="cls-3" d="M54.52,57.43c.21.2.35.64.49.91l.05,30.69c-.23.7-.58,1.29-1.33,1.47l-8.93-.04c-.95-.38-1.19-1.14-1.27-2.1l.09-29.89c.27-.92.71-1.38,1.69-1.49,1.76-.2,6.3-.2,8.06,0,.34.04.91.21,1.16.44Z"/>
    <path class="cls-3" d="M20.07,96.37l79.55-.04c2.37.28,2.37,4.03,0,4.32l-79.83-.15c-1.69-.96-1.57-3.41.27-4.13Z"/>
    <path class="cls-3" d="M95.59,16.37c-.32-.08-.37.13-.56.28-2.6,1.99-5.16,4.55-7.78,6.64-15.65,12.5-33.29,22.72-51.78,30.43-3.58,1.49-10.3,4.58-13.84,5.26-2.11.4-2.81-1.7-1.46-2.58,26.83-9.41,52.17-23.37,73.36-42.37-1.44-.49-5.98,1.1-6.37-.94-.22-1.16.48-1.83,1.59-1.96,1.7-.2,3.87-.11,5.62-.18,1.53-.07,4.95-1.04,4.95,1.38-.68,2.85-.64,6.19-1.31,8.99-.25,1.03-.79,1.64-1.94,1.42-2.15-.4-.24-4.89-.48-6.37Z"/>
    <path class="cls-3" d="M33.16,90.08c-.25.25-.61.4-.96.45-1.6.2-6.87.21-8.44,0-1.06-.14-1.5-1-1.59-1.97-.55-5.74.43-12.35,0-18.18.21-1.5,1.16-1.85,2.53-1.97,1.72-.15,5.05-.16,6.75,0,1.61.16,2.21.7,2.35,2.33.51,5.81-.29,12.54-.13,18.42-.14.29-.27.68-.5.91Z"/>
  </g>
</svg>